<?xml version="1.0" encoding="UTF-8"?>
<svg id="Layer_1" xmlns="http://www.w3.org/2000/svg" version="1.1" viewBox="0 0 223 133">
  <!-- Generator: Adobe Illustrator 29.6.1, SVG Export Plug-In . SVG Version: 2.1.1 Build 9)  -->
  <defs>
    <style>
      .st0 {
        fill: #00c2bb;
      }

      .st1 {
        fill: #645df6;
      }
    </style>
  </defs>
  <path class="st1" d="M143.9,105c2.2-2.7,0-7.2-3.4-7.2h-20.3c-2.5,0-4.5,2-4.5,4.5v26.3c0,4.3,5.2,6.1,7.7,2.7,6.8-8.8,13.7-17.5,20.5-26.3h0Z"/>
  <path class="st0" d="M104.6,4.4c0-4.2-5.1-6-7.5-2.7L.9,125.9c-2.2,2.7,0,7.1,3.3,7.1h96.2c2.4,0,4.4-2,4.4-4.4,0-41.4-.2-82.8-.2-124.2h0Z"/>
  <path class="st0" d="M179.7,49h-59.2c-2.5,0-4.5,2-4.5,4.5v27.4c0,2.5,2,4.5,4.5,4.5h38.1c1.4,0,2.7-.7,3.4-1.6l21.2-27.4c2.2-2.7,0-7.2-3.4-7.2v-.2Z"/>
  <path class="st1" d="M222.1,7.4c2.2-2.7,0-7.2-3.4-7.2h-98.7c-2.5,0-4.5,2-4.5,4.5v27.4c0,2.5,2,4.5,4.5,4.5h76.7c1.7,0,3.4-.8,4.4-2.2l20.9-27h0Z"/>
</svg>