<?xml version="1.0" encoding="UTF-8"?>
<svg id="Layer_2" data-name="Layer 2" xmlns="http://www.w3.org/2000/svg" viewBox="0 0 423.82 250.01">
  <defs>
    <style>
      .cls-1 {
        fill: #f1f1f1;
      }
    </style>
  </defs>
  <g id="Layer_1-2" data-name="Layer 1">
    <path class="cls-1" d="M198.79,8.28c0-7.9-9.6-11.3-14.2-5L1.69,236.68c-4.2,5,0,13.3,6.3,13.3h183c4.6,0,8.4-3.8,8.4-8.3-.1-77.8-.3-155.6-.4-233.4h-.2Z"/>
    <path class="cls-1" d="M341.59,91.98h-112.6c-4.7,0-8.6,3.8-8.6,8.5v51.5c0,4.7,3.8,8.5,8.6,8.5h72.4c2.6,0,5.1-1.3,6.4-3l40.2-51.5c4.3-5.1,0-13.6-6.4-13.6v-.4Z"/>
    <path class="cls-1" d="M422.09,13.98c4.3-5.1,0-13.6-6.4-13.6h-187.6c-4.7,0-8.6,3.8-8.6,8.5v51.5c0,4.7,3.8,8.5,8.6,8.5h145.8c3.3,0,6.4-1.5,8.4-4.1l39.7-50.8h.1Z"/>
    <path class="cls-1" d="M273.49,197.28c4.3-5.1,0-13.6-6.4-13.6h-38.6c-4.7,0-8.6,3.8-8.6,8.5v49.4c0,8.1,9.8,11.5,14.6,5.1,13-16.5,26-32.9,39-49.4h0Z"/>
  </g>
</svg>