<svg xmlns="http://www.w3.org/2000/svg" width="200" height="200" fill="none" viewBox="0 0 200 200">
  <path fill="#fff" d="M93.357 3.281a15 15 0 0 1 13.286 0l67.112 33.15a15.003 15.003 0 0 1 7.999 10.192l16.713 75.106a15.002 15.002 0 0 1-2.8 12.465l-46.659 60.013A15 15 0 0 1 137.166 200H62.834a15 15 0 0 1-11.842-5.793L4.333 134.194a15 15 0 0 1-2.8-12.465l16.713-75.106a15 15 0 0 1 8-10.191l67.11-33.15Z"/>
  <mask id="a" width="200" height="199" x="0" y="1" maskUnits="userSpaceOnUse" style="mask-type:alpha">
    <path fill="#000" d="M95.571 2.188a10 10 0 0 1 8.858 0l71.472 35.304a10.003 10.003 0 0 1 5.333 6.794l17.744 79.741a10.002 10.002 0 0 1-1.867 8.31l-49.604 63.801a10 10 0 0 1-7.895 3.862H60.388a10 10 0 0 1-7.895-3.862L2.89 132.337a10.001 10.001 0 0 1-1.867-8.31l17.744-79.741a10 10 0 0 1 5.333-6.794L95.57 2.188Z"/>
  </mask>
  <g mask="url(#a)">
    <path fill="#30363D" d="M77.73 137a2 2 0 0 1-1.892-1.352L53.359 70h.92a2 2 0 0 1 1.894 1.357L71.3 115.943c.719 2.169 1.34 4.052 1.863 5.647a170.808 170.808 0 0 0 1.568 4.403 120.18 120.18 0 0 1 1.569 4.498 651.07 651.07 0 0 1 1.789 5.329.17.17 0 1 1-.316-.013 460.945 460.945 0 0 0 3.625-8.761c.98-2.361 1.83-4.435 2.55-6.222a762.962 762.962 0 0 0 2.45-5.647l12.075-29.282a1.093 1.093 0 0 1 2.025.009l16.392 40.759a208.15 208.15 0 0 1 1.568 4.02c.458 1.148.85 2.169 1.177 3.063.267.609.504 1.159.711 1.65a.466.466 0 0 1-.432.647.47.47 0 0 1-.442-.631c.629-1.729 1.206-3.305 1.732-4.729a153.917 153.917 0 0 0 1.666-4.403c.523-1.34.981-2.584 1.373-3.733.457-1.212.882-2.361 1.274-3.446.458-1.148.915-2.329 1.373-3.541l17.056-44.279A2 2 0 0 1 145.813 70h.981l-25.263 65.892a1.726 1.726 0 0 1-3.213.026l-19.23-47.815a.428.428 0 1 1 .792.005l-19.831 47.66A2 2 0 0 1 78.202 137h-.472Z"/>
    <path stroke="#30363D" stroke-linecap="round" stroke-linejoin="round" stroke-width="15" d="m53.36 70 22.478 65.648A2 2 0 0 0 77.73 137h.472a2 2 0 0 0 1.847-1.232l19.83-47.66a.428.428 0 0 0-.395-.592v0a.428.428 0 0 0-.397.587l19.231 47.815A1.726 1.726 0 0 0 119.92 137v0c.715 0 1.355-.441 1.611-1.108L146.794 70m-93.435 0h.92a2 2 0 0 1 1.894 1.357L71.3 115.943c.719 2.169 1.34 4.052 1.863 5.647a170.808 170.808 0 0 0 1.568 4.403 120.18 120.18 0 0 1 1.569 4.498 651.07 651.07 0 0 1 1.789 5.329.17.17 0 0 1-.16.223v0a.17.17 0 0 1-.156-.236 460.945 460.945 0 0 0 3.625-8.761c.98-2.361 1.83-4.435 2.55-6.222a762.962 762.962 0 0 0 2.45-5.647l12.075-29.282c.169-.41.568-.676 1.01-.676v0c.447 0 .849.27 1.015.685l16.392 40.759a208.15 208.15 0 0 1 1.568 4.02c.458 1.148.85 2.169 1.177 3.063.267.609.504 1.159.711 1.65a.466.466 0 0 1-.432.647v0a.47.47 0 0 1-.442-.631c.629-1.729 1.206-3.305 1.732-4.729a153.917 153.917 0 0 0 1.666-4.403c.523-1.34.981-2.584 1.373-3.733.457-1.212.882-2.361 1.274-3.446.458-1.148.915-2.329 1.373-3.541l17.056-44.279A2 2 0 0 1 145.813 70h.981m-93.435 0L33.251 90.536a2 2 0 0 1-1.429.6H.492M146.795 70l19.576 20.517c.377.396.9.62 1.447.62h24.676"/>
  </g>
</svg>
