<svg xmlns="http://www.w3.org/2000/svg" width="780" height="200" fill="none" viewBox="0 0 780 200">
  <path fill="#fff" d="M93.239 1.577a15.286 15.286 0 0 1 13.522 0l67.697 33.306c4.273 2.102 7.376 6.077 8.431 10.8l16.72 74.839c1.055 4.723-.052 9.68-3.009 13.468l-46.848 60.016c-2.957 3.788-7.441 5.994-12.183 5.994H62.431c-4.742 0-9.226-2.206-12.183-5.994L3.4 133.99c-2.957-3.788-4.064-8.745-3.01-13.468l16.72-74.839c1.056-4.723 4.159-8.698 8.431-10.8L93.24 1.577Z"/>
  <mask id="a" width="200" height="200" x="0" y="0" maskUnits="userSpaceOnUse" style="mask-type:alpha">
    <path fill="#30363D" d="M93.239 1.577a15.286 15.286 0 0 1 13.522 0l67.697 33.306c4.273 2.102 7.376 6.077 8.431 10.8l16.72 74.839c1.055 4.723-.052 9.68-3.009 13.468l-46.848 60.016c-2.957 3.788-7.441 5.994-12.183 5.994H62.431c-4.742 0-9.226-2.206-12.183-5.994L3.4 133.99c-2.957-3.788-4.064-8.745-3.01-13.468l16.72-74.839c1.056-4.723 4.159-8.698 8.431-10.8L93.24 1.577Z"/>
  </mask>
  <g mask="url(#a)">
    <path fill="#0F172A" d="M79.237 138a2 2 0 0 1-1.892-1.352L54.866 71h.92a2 2 0 0 1 1.894 1.357l15.128 44.586c.72 2.169 1.34 4.052 1.863 5.647a170.8 170.8 0 0 0 1.569 4.403 120.185 120.185 0 0 1 1.568 4.498 647.252 647.252 0 0 1 1.79 5.329.17.17 0 1 1-.316-.013 461.053 461.053 0 0 0 3.625-8.761c.98-2.361 1.83-4.435 2.549-6.222a767.346 767.346 0 0 0 2.45-5.647l12.075-29.282a1.093 1.093 0 0 1 2.025.009l16.392 40.759a215.375 215.375 0 0 1 1.569 4.02c.457 1.148.849 2.169 1.176 3.063.268.609.505 1.159.711 1.65a.466.466 0 0 1-.432.647.47.47 0 0 1-.441-.631c.629-1.729 1.206-3.305 1.731-4.729a157.3 157.3 0 0 0 1.667-4.403c.522-1.34.98-2.584 1.372-3.733.458-1.212.883-2.361 1.275-3.446.457-1.148.915-2.329 1.372-3.541l17.056-44.279A2.002 2.002 0 0 1 147.321 71h.98l-25.262 65.892a1.725 1.725 0 0 1-3.213.026l-19.232-47.815a.427.427 0 1 1 .792.005l-19.83 47.66A2 2 0 0 1 79.71 138h-.472Z"/>
    <path stroke="#0F172A" stroke-linecap="round" stroke-linejoin="round" stroke-width="15" d="m54.866 71 22.48 65.648a2 2 0 0 0 1.89 1.352h.473a2 2 0 0 0 1.846-1.232l19.83-47.66a.427.427 0 0 0-.395-.592v0a.428.428 0 0 0-.397.587l19.232 47.815a1.725 1.725 0 0 0 1.601 1.082v0c.715 0 1.356-.441 1.612-1.108L148.301 71m-93.435 0h.92a2 2 0 0 1 1.894 1.357l15.128 44.586c.72 2.169 1.34 4.052 1.863 5.647a170.8 170.8 0 0 0 1.569 4.403 120.185 120.185 0 0 1 1.568 4.498 647.252 647.252 0 0 1 1.79 5.329.17.17 0 0 1-.161.223v0a.17.17 0 0 1-.156-.236 461.053 461.053 0 0 0 3.626-8.761c.98-2.361 1.83-4.435 2.549-6.222a767.346 767.346 0 0 0 2.45-5.647l12.075-29.282c.169-.41.568-.676 1.011-.676v0c.446 0 .848.27 1.014.685l16.392 40.759a215.375 215.375 0 0 1 1.569 4.02c.457 1.148.849 2.169 1.176 3.063.268.609.505 1.159.711 1.65a.466.466 0 0 1-.432.647v0a.47.47 0 0 1-.441-.631c.629-1.729 1.206-3.305 1.731-4.729a157.3 157.3 0 0 0 1.667-4.403c.522-1.34.98-2.584 1.372-3.733.458-1.212.883-2.361 1.275-3.446.457-1.148.915-2.329 1.372-3.541l17.056-44.279A2.002 2.002 0 0 1 147.321 71h.98m-93.435 0L34.758 91.536a2 2 0 0 1-1.429.6H2M148.301 71l19.576 20.517a2 2 0 0 0 1.447.62H194"/>
  </g>
</svg>
