<svg xmlns="http://www.w3.org/2000/svg" width="780" height="200" fill="none" viewBox="0 0 780 200">
  <path fill="#0F172A" d="M93.239 1.577a15.286 15.286 0 0 1 13.522 0l67.697 33.306c4.273 2.102 7.376 6.077 8.431 10.8l16.72 74.839c1.055 4.723-.052 9.68-3.009 13.468l-46.848 60.016c-2.957 3.788-7.441 5.994-12.183 5.994H62.431c-4.742 0-9.226-2.206-12.183-5.994L3.4 133.99c-2.957-3.788-4.064-8.745-3.01-13.468l16.72-74.839c1.056-4.723 4.159-8.698 8.431-10.8L93.24 1.577Z"/>
  <mask id="a" width="200" height="200" x="0" y="0" maskUnits="userSpaceOnUse" style="mask-type:alpha">
    <path fill="#30363D" d="M93.239 1.577a15.286 15.286 0 0 1 13.522 0l67.697 33.306c4.273 2.102 7.376 6.077 8.431 10.8l16.72 74.839c1.055 4.723-.052 9.68-3.009 13.468l-46.848 60.016c-2.957 3.788-7.441 5.994-12.183 5.994H62.431c-4.742 0-9.226-2.206-12.183-5.994L3.4 133.99c-2.957-3.788-4.064-8.745-3.01-13.468l16.72-74.839c1.056-4.723 4.159-8.698 8.431-10.8L93.24 1.577Z"/>
  </mask>
  <g mask="url(#a)">
    <path fill="#fff" d="M79.237 138a2 2 0 0 1-1.892-1.352L54.866 71h.92a2 2 0 0 1 1.894 1.357l15.128 44.586c.72 2.169 1.34 4.052 1.863 5.647a170.8 170.8 0 0 0 1.569 4.403 120.185 120.185 0 0 1 1.568 4.498 647.252 647.252 0 0 1 1.79 5.329.17.17 0 1 1-.316-.013 461.053 461.053 0 0 0 3.625-8.761c.98-2.361 1.83-4.435 2.549-6.222a767.346 767.346 0 0 0 2.45-5.647l12.075-29.282a1.093 1.093 0 0 1 2.025.009l16.392 40.759a215.375 215.375 0 0 1 1.569 4.02c.457 1.148.849 2.169 1.176 3.063.268.609.505 1.159.711 1.65a.466.466 0 0 1-.432.647.47.47 0 0 1-.441-.631c.629-1.729 1.206-3.305 1.731-4.729a157.3 157.3 0 0 0 1.667-4.403c.522-1.34.98-2.584 1.372-3.733.458-1.212.883-2.361 1.275-3.446.457-1.148.915-2.329 1.372-3.541l17.056-44.279A2.002 2.002 0 0 1 147.321 71h.98l-25.262 65.892a1.725 1.725 0 0 1-3.213.026l-19.232-47.815a.427.427 0 1 1 .792.005l-19.83 47.66A2 2 0 0 1 79.71 138h-.472Z"/>
    <path stroke="#fff" stroke-linecap="round" stroke-linejoin="round" stroke-width="15" d="m54.866 71 22.48 65.648a2 2 0 0 0 1.89 1.352h.473a2 2 0 0 0 1.846-1.232l19.83-47.66a.427.427 0 0 0-.395-.592v0a.428.428 0 0 0-.397.587l19.232 47.815a1.725 1.725 0 0 0 1.601 1.082v0c.715 0 1.356-.441 1.612-1.108L148.301 71m-93.435 0h.92a2 2 0 0 1 1.894 1.357l15.128 44.586c.72 2.169 1.34 4.052 1.863 5.647a170.8 170.8 0 0 0 1.569 4.403 120.185 120.185 0 0 1 1.568 4.498 647.252 647.252 0 0 1 1.79 5.329.17.17 0 0 1-.161.223v0a.17.17 0 0 1-.156-.236 461.053 461.053 0 0 0 3.626-8.761c.98-2.361 1.83-4.435 2.549-6.222a767.346 767.346 0 0 0 2.45-5.647l12.075-29.282c.169-.41.568-.676 1.011-.676v0c.446 0 .848.27 1.014.685l16.392 40.759a215.375 215.375 0 0 1 1.569 4.02c.457 1.148.849 2.169 1.176 3.063.268.609.505 1.159.711 1.65a.466.466 0 0 1-.432.647v0a.47.47 0 0 1-.441-.631c.629-1.729 1.206-3.305 1.731-4.729a157.3 157.3 0 0 0 1.667-4.403c.522-1.34.98-2.584 1.372-3.733.458-1.212.883-2.361 1.275-3.446.457-1.148.915-2.329 1.372-3.541l17.056-44.279A2.002 2.002 0 0 1 147.321 71h.98m-93.435 0L34.758 91.536a2 2 0 0 1-1.429.6H2M148.301 71l19.576 20.517a2 2 0 0 0 1.447.62H194"/>
  </g>
  <path fill="#0F172A" d="M256.47 104.992a482.505 482.505 0 0 0 5.759-6.4 369.234 369.234 0 0 0 5.889-6.528 711.747 711.747 0 0 0 5.248-6.272 258.931 258.931 0 0 0 4.352-5.12h22.656a859.835 859.835 0 0 1-13.312 14.976c-4.267 4.693-8.96 9.557-14.08 14.592 2.56 2.304 5.205 5.077 7.936 8.32a182.234 182.234 0 0 1 7.936 9.856 146.664 146.664 0 0 1 7.04 10.24c2.133 3.413 3.925 6.528 5.376 9.344h-21.888a200.664 200.664 0 0 0-4.736-7.296 122.677 122.677 0 0 0-5.504-8.064 93.166 93.166 0 0 0-6.272-7.808c-2.134-2.475-4.267-4.565-6.4-6.272V148h-19.072V51.744l19.072-3.072v56.32Zm111.275 40.704c-3.243.939-7.424 1.792-12.544 2.56-5.12.853-10.496 1.28-16.128 1.28-5.718 0-10.496-.768-14.336-2.304-3.755-1.536-6.742-3.669-8.96-6.4-2.219-2.816-3.798-6.144-4.736-9.984-.939-3.84-1.408-8.064-1.408-12.672V80.672h19.072v35.2c0 6.144.81 10.581 2.432 13.312 1.621 2.731 4.65 4.096 9.088 4.096 1.365 0 2.816-.043 4.352-.128 1.536-.171 2.901-.341 4.096-.512V80.672h19.072v65.024Zm61.039-31.872c0-12.288-4.523-18.432-13.568-18.432-1.963 0-3.926.256-5.888.768-1.878.512-3.414 1.152-4.608 1.92v34.688a59.57 59.57 0 0 0 3.584.512c1.45.085 3.029.128 4.736.128 5.205 0 9.13-1.792 11.776-5.376 2.645-3.584 3.968-8.32 3.968-14.208Zm19.456.512c0 5.376-.811 10.24-2.432 14.592-1.536 4.352-3.798 8.064-6.784 11.136-2.987 3.072-6.656 5.461-11.008 7.168-4.352 1.621-9.302 2.432-14.848 2.432-2.304 0-4.736-.128-7.296-.384-2.475-.171-4.95-.427-7.424-.768a144.69 144.69 0 0 1-6.912-1.152 94.983 94.983 0 0 1-5.888-1.536v-94.08l19.072-3.072v33.536a35.72 35.72 0 0 1 6.656-2.176c2.304-.512 4.778-.768 7.424-.768 4.778 0 9.002.853 12.672 2.56 3.669 1.621 6.741 3.968 9.216 7.04 2.474 3.072 4.352 6.784 5.632 11.136 1.28 4.267 1.92 9.045 1.92 14.336Zm11.458.512c0-5.973.896-11.179 2.687-15.616 1.878-4.523 4.31-8.277 7.297-11.264 2.986-2.987 6.4-5.248 10.24-6.784 3.925-1.536 7.936-2.304 12.032-2.304 9.557 0 17.109 2.944 22.656 8.832 5.546 5.803 8.32 14.379 8.32 25.728 0 1.109-.043 2.347-.128 3.712-.086 1.28-.171 2.432-.256 3.456h-43.264c.426 3.925 2.261 7.04 5.504 9.344 3.242 2.304 7.594 3.456 13.056 3.456 3.498 0 6.912-.299 10.24-.896 3.413-.683 6.186-1.493 8.32-2.432l2.56 15.488c-1.024.512-2.39 1.024-4.096 1.536-1.707.512-3.627.939-5.76 1.28a68.404 68.404 0 0 1-6.656 1.024c-2.39.256-4.779.384-7.168.384-6.059 0-11.35-.896-15.872-2.688-4.438-1.792-8.15-4.224-11.136-7.296-2.902-3.157-5.078-6.869-6.528-11.136-1.366-4.267-2.048-8.875-2.048-13.824Zm44.8-7.296a17.91 17.91 0 0 0-.896-4.736 10.561 10.561 0 0 0-2.176-4.096c-.939-1.195-2.176-2.176-3.712-2.944-1.451-.768-3.286-1.152-5.504-1.152-2.134 0-3.968.384-5.504 1.152-1.536.683-2.816 1.621-3.84 2.816-1.024 1.195-1.835 2.603-2.432 4.224a29.506 29.506 0 0 0-1.152 4.736h25.216Zm74.11 1.792a501.38 501.38 0 0 1-5.504 19.328A625.948 625.948 0 0 1 567.088 148H552.24c-1.536-3.584-3.2-7.851-4.992-12.8a802.46 802.46 0 0 1-5.632-16.128 6832.957 6832.957 0 0 1-5.888-18.56 1337.465 1337.465 0 0 1-5.76-19.84h20.096a856.036 856.036 0 0 1 2.176 10.112 771.732 771.732 0 0 1 2.56 11.136c.938 3.84 1.877 7.723 2.816 11.648a653.253 653.253 0 0 0 3.072 11.136 374.019 374.019 0 0 0 3.2-11.52 393.31 393.31 0 0 0 3.072-11.52 538.05 538.05 0 0 0 2.816-11.008 277.633 277.633 0 0 0 2.432-9.984h13.824c.682 3.072 1.45 6.4 2.304 9.984.853 3.499 1.749 7.168 2.688 11.008.938 3.755 1.92 7.595 2.944 11.52a371.212 371.212 0 0 0 3.2 11.52 653.253 653.253 0 0 0 3.072-11.136 329.532 329.532 0 0 0 2.816-11.648c.938-3.84 1.792-7.552 2.56-11.136.853-3.67 1.621-7.04 2.304-10.112h19.84a762.49 762.49 0 0 1-5.888 19.84 703.478 703.478 0 0 1-5.888 18.56c-1.878 5.803-3.755 11.179-5.632 16.128-1.792 4.949-3.456 9.216-4.992 12.8h-14.848a2477.014 2477.014 0 0 1-6.272-19.328 383.73 383.73 0 0 1-5.632-19.328Zm83.893 25.344c1.877 0 3.669-.043 5.376-.128 1.706-.085 3.072-.213 4.096-.384v-14.464c-.768-.171-1.92-.341-3.456-.512a38.405 38.405 0 0 0-4.224-.256c-1.792 0-3.499.128-5.12.384-1.536.171-2.902.555-4.096 1.152-1.195.597-2.134 1.408-2.816 2.432-.683 1.024-1.024 2.304-1.024 3.84 0 2.987.981 5.077 2.944 6.272 2.048 1.109 4.821 1.664 8.32 1.664Zm-1.536-55.808c5.632 0 10.325.64 14.08 1.92 3.754 1.28 6.741 3.115 8.96 5.504 2.304 2.39 3.925 5.29 4.864 8.704.938 3.413 1.408 7.211 1.408 11.392v39.68c-2.731.597-6.528 1.28-11.392 2.048-4.864.853-10.752 1.28-17.664 1.28-4.352 0-8.32-.384-11.904-1.152-3.499-.768-6.528-2.005-9.088-3.712a17.758 17.758 0 0 1-5.888-6.912c-1.366-2.816-2.048-6.272-2.048-10.368 0-3.925.768-7.253 2.304-9.984 1.621-2.731 3.754-4.907 6.4-6.528 2.645-1.621 5.674-2.773 9.088-3.456 3.413-.768 6.954-1.152 10.623-1.152 2.475 0 4.651.128 6.529.384 1.962.171 3.541.427 4.736.768v-1.792c0-3.243-.982-5.845-2.944-7.808-1.963-1.963-5.376-2.944-10.24-2.944a59.87 59.87 0 0 0-9.6.768c-3.158.427-5.888 1.067-8.192 1.92l-2.432-15.36c1.109-.341 2.474-.683 4.096-1.024a48.63 48.63 0 0 1 5.504-1.024 67.057 67.057 0 0 1 6.144-.768 58.008 58.008 0 0 1 6.656-.384Zm73.438 70.4c-5.547-.085-10.07-.683-13.568-1.792-3.414-1.109-6.144-2.645-8.192-4.608-1.963-2.048-3.328-4.48-4.096-7.296-.683-2.901-1.024-6.144-1.024-9.728V51.744l19.072-3.072v73.344c0 1.707.128 3.243.384 4.608.256 1.365.725 2.517 1.408 3.456.768.939 1.834 1.707 3.2 2.304 1.365.597 3.2.981 5.504 1.152l-2.688 15.744Zm40.5 0c-5.547-.085-10.07-.683-13.568-1.792-3.414-1.109-6.144-2.645-8.192-4.608-1.963-2.048-3.328-4.48-4.096-7.296-.683-2.901-1.024-6.144-1.024-9.728V51.744l19.072-3.072v73.344c0 1.707.128 3.243.384 4.608.256 1.365.725 2.517 1.408 3.456.768.939 1.834 1.707 3.2 2.304 1.365.597 3.2.981 5.504 1.152l-2.688 15.744Z"/>
</svg>
