<svg width="200" height="200" viewBox="0 0 200 200" fill="none" xmlns="http://www.w3.org/2000/svg"><path d="M93.239 1.577a15.29 15.29 0 0 1 13.522 0l67.697 33.306c4.273 2.102 7.376 6.077 8.431 10.8l16.72 74.839c1.055 4.723-.052 9.68-3.009 13.468l-46.848 60.016c-2.957 3.788-7.441 5.994-12.183 5.994H62.431c-4.742 0-9.226-2.206-12.183-5.994L3.4 133.99c-2.957-3.788-4.064-8.745-3.01-13.468l16.72-74.839c1.056-4.723 4.159-8.698 8.432-10.8z" fill="#0F172A"/><mask id="a" style="mask-type:alpha" maskUnits="userSpaceOnUse" x="0" y="0" width="200" height="200"><path d="M93.239 1.577a15.29 15.29 0 0 1 13.522 0l67.697 33.306c4.273 2.102 7.376 6.077 8.431 10.8l16.72 74.839c1.055 4.723-.052 9.68-3.009 13.468l-46.848 60.016c-2.957 3.788-7.441 5.994-12.183 5.994H62.431c-4.742 0-9.226-2.206-12.183-5.994L3.4 133.99c-2.957-3.788-4.064-8.745-3.01-13.468l16.72-74.839c1.056-4.723 4.159-8.698 8.432-10.8z" fill="#30363D"/></mask><g mask="url(#a)"><path d="M79.238 138a2 2 0 0 1-1.893-1.352L54.866 71h.92a2 2 0 0 1 1.894 1.357l15.128 44.586q1.08 3.254 1.863 5.647a171 171 0 0 0 1.569 4.403 120 120 0 0 1 1.568 4.498 647 647 0 0 1 1.79 5.329.17.17 0 1 1-.317-.013 461 461 0 0 0 3.626-8.761q1.47-3.542 2.549-6.222a767 767 0 0 0 2.45-5.647l12.075-29.282a1.093 1.093 0 0 1 2.025.009l16.392 40.759a215 215 0 0 1 1.569 4.02q.686 1.722 1.176 3.063.402.914.711 1.65a.466.466 0 0 1-.432.647.47.47 0 0 1-.441-.631q.944-2.593 1.731-4.729a157 157 0 0 0 1.667-4.403q.783-2.01 1.372-3.733.687-1.818 1.275-3.446.686-1.722 1.372-3.541l17.056-44.279A2 2 0 0 1 147.321 71h.98l-25.262 65.892a1.727 1.727 0 0 1-3.213.026l-19.232-47.815a.428.428 0 1 1 .792.005l-19.83 47.66A2 2 0 0 1 79.71 138z" fill="#fff"/><path d="m54.866 71 22.48 65.648a2 2 0 0 0 1.89 1.352h.473a2 2 0 0 0 1.846-1.232l19.83-47.66a.427.427 0 0 0-.395-.592v0a.428.428 0 0 0-.397.587l19.232 47.815a1.725 1.725 0 0 0 1.601 1.082v0c.715 0 1.356-.441 1.612-1.108L148.301 71m-93.435 0h.92a2 2 0 0 1 1.894 1.357l15.128 44.586q1.08 3.254 1.863 5.647a171 171 0 0 0 1.569 4.403 120 120 0 0 1 1.568 4.498 647 647 0 0 1 1.79 5.329.17.17 0 0 1-.161.223v0a.17.17 0 0 1-.156-.236 461 461 0 0 0 3.626-8.761q1.47-3.542 2.549-6.222a767 767 0 0 0 2.45-5.647l12.075-29.282c.169-.41.568-.676 1.011-.676v0c.446 0 .848.27 1.014.685l16.392 40.759a215 215 0 0 1 1.569 4.02q.686 1.722 1.176 3.063.402.914.711 1.65a.466.466 0 0 1-.432.647v0a.47.47 0 0 1-.441-.631q.944-2.593 1.731-4.729a157 157 0 0 0 1.667-4.403q.783-2.01 1.372-3.733.687-1.818 1.275-3.446.686-1.722 1.372-3.541l17.056-44.279A2 2 0 0 1 147.321 71h.98m-93.435 0L34.758 91.536a2 2 0 0 1-1.429.6H2M148.301 71l19.576 20.518a2 2 0 0 0 1.447.619H194" stroke="#fff" stroke-width="15" stroke-linecap="round" stroke-linejoin="round"/></g></svg>