<svg style="background-color: #FFF;" xmlns="http://www.w3.org/2000/svg" viewBox="0 0 512 512">
  <defs>
    <style>
      .a {
        fill: #2496ed;
        fill-rule: evenodd;
      }
    </style>
  </defs>
  <path class="a" d="M499.11,212.37c-1.35-1.09-13.91-10.57-40.4-10.57a128.36,128.36,0,0,0-20.87,1.8c-5.11-35.15-34.12-52.27-35.47-53l-7.11-4.11-4.69,6.76a94.54,94.54,0,0,0-12.64,29.58c-4.75,20.06-1.87,38.89,8.32,55-12.3,6.84-31.94,8.63-36,8.68H23.52A15.55,15.55,0,0,0,8,261.92c-.13,30.06,4.83,59.1,14.32,84,11.26,29.52,28,51.25,49.78,64.6,24.42,15,64.16,23.53,109.05,23.53a325.23,325.23,0,0,0,60.53-5.48c29.31-5.65,55.92-15.32,79.09-28.72a217.35,217.35,0,0,0,53.93-44.17c25.88-29.3,41.3-62,52.77-91,1.55.07,3.07.1,4.57.1,28.34,0,45.77-11.33,55.39-20.84,10.44-10.31,14.15-20.59,14.54-21.73l2-6Z" />
  <path class="a" d="M53.8,236.91H97.59a3.83,3.83,0,0,0,3.83-3.83v-39a3.83,3.83,0,0,0-3.83-3.83H53.8A3.83,3.83,0,0,0,50,194.06v39A3.83,3.83,0,0,0,53.8,236.91Z" />
  <path class="a" d="M114.14,236.91h43.77a3.83,3.83,0,0,0,3.84-3.83v-39a3.83,3.83,0,0,0-3.84-3.83H114.14a3.82,3.82,0,0,0-3.83,3.83v39A3.82,3.82,0,0,0,114.14,236.91Z" />
  <path class="a" d="M175.39,236.91h43.78a3.82,3.82,0,0,0,3.83-3.83v-39a3.82,3.82,0,0,0-3.83-3.83H175.39a3.83,3.83,0,0,0-3.83,3.83v39A3.83,3.83,0,0,0,175.39,236.91Z" />
  <path class="a" d="M235.93,236.91h43.78a3.82,3.82,0,0,0,3.83-3.83v-39a3.82,3.82,0,0,0-3.83-3.83H235.93a3.84,3.84,0,0,0-3.84,3.83v39A3.84,3.84,0,0,0,235.93,236.91Z" />
  <path class="a" d="M114.14,180.77h43.77a3.83,3.83,0,0,0,3.84-3.83v-39a3.83,3.83,0,0,0-3.84-3.83H114.14a3.82,3.82,0,0,0-3.83,3.83v39A3.82,3.82,0,0,0,114.14,180.77Z" />
  <path class="a" d="M175.39,180.77h43.78a3.82,3.82,0,0,0,3.83-3.83v-39a3.82,3.82,0,0,0-3.83-3.83H175.39a3.83,3.83,0,0,0-3.83,3.83v39A3.83,3.83,0,0,0,175.39,180.77Z" />
  <path class="a" d="M235.93,180.77h43.78a3.82,3.82,0,0,0,3.83-3.83v-39a3.82,3.82,0,0,0-3.83-3.83H235.93a3.84,3.84,0,0,0-3.84,3.83v39A3.84,3.84,0,0,0,235.93,180.77Z" />
  <path class="a" d="M235.93,124.63h43.78a3.83,3.83,0,0,0,3.83-3.83v-39A3.82,3.82,0,0,0,279.71,78H235.93a3.84,3.84,0,0,0-3.84,3.83v39A3.85,3.85,0,0,0,235.93,124.63Z" />
  <path class="a" d="M297,236.91h43.77a3.83,3.83,0,0,0,3.84-3.83v-39a3.83,3.83,0,0,0-3.84-3.83H297a3.82,3.82,0,0,0-3.83,3.83v39A3.82,3.82,0,0,0,297,236.91Z" />
</svg>