<svg xmlns="http://www.w3.org/2000/svg" xmlns:xlink="http://www.w3.org/1999/xlink" width="64" height="64" viewBox="0 0 32 32"><defs><linearGradient id="A" y2="285.603" x2="192.603" y1="270.601" x1="192.025" xlink:href="#Ab"><stop offset="0" stop-color="#693594"/><stop offset=".106" stop-color="#892e83"/><stop offset=".265" stop-color="#b4246c"/><stop offset=".409" stop-color="#d31d5c"/><stop offset=".531" stop-color="#e61952"/><stop offset=".616" stop-color="#ed174e"/><stop offset="1" stop-color="#f9e57e"/></linearGradient><linearGradient id="B" y2="288.061" x2="197.672" y1="275.723" x1="197.196" xlink:href="#Ab"><stop offset="0" stop-color="#693594"/><stop offset=".106" stop-color="#892e83"/><stop offset=".265" stop-color="#b4246c"/><stop offset=".409" stop-color="#d31d5c"/><stop offset=".531" stop-color="#e61952"/><stop offset=".616" stop-color="#ed174e"/><stop offset="1" stop-color="#f9e57e"/></linearGradient><linearGradient id="C" y2="284.981" x2="202.537" y1="271.819" x1="202.031" xlink:href="#Ab"><stop offset="0" stop-color="#693594"/><stop offset=".106" stop-color="#892e83"/><stop offset=".265" stop-color="#b4246c"/><stop offset=".409" stop-color="#d31d5c"/><stop offset=".531" stop-color="#e61952"/><stop offset=".616" stop-color="#ed174e"/><stop offset="1" stop-color="#f9e57e"/></linearGradient><linearGradient id="D" y2="287.705" x2="206.926" y1="275.366" x1="206.451" xlink:href="#Ab"><stop offset="0" stop-color="#693594"/><stop offset=".106" stop-color="#892e83"/><stop offset=".265" stop-color="#b4246c"/><stop offset=".409" stop-color="#d31d5c"/><stop offset=".531" stop-color="#e61952"/><stop offset=".616" stop-color="#ed174e"/><stop offset="1" stop-color="#f9e57e"/></linearGradient><linearGradient id="E" y2="285.195" x2="212.374" y1="272.566" x1="211.888" xlink:href="#Ab"><stop offset="0" stop-color="#693594"/><stop offset=".106" stop-color="#892e83"/><stop offset=".265" stop-color="#b4246c"/><stop offset=".409" stop-color="#d31d5c"/><stop offset=".531" stop-color="#e61952"/><stop offset=".616" stop-color="#ed174e"/><stop offset="1" stop-color="#f9e57e"/></linearGradient><linearGradient id="F" y2="287.348" x2="216.188" y1="275.01" x1="215.713" xlink:href="#Ab"><stop offset="0" stop-color="#693594"/><stop offset=".106" stop-color="#892e83"/><stop offset=".265" stop-color="#b4246c"/><stop offset=".409" stop-color="#d31d5c"/><stop offset=".531" stop-color="#e61952"/><stop offset=".616" stop-color="#ed174e"/><stop offset="1" stop-color="#f9e57e"/></linearGradient><linearGradient id="G" y2="284.042" x2="220.93" y1="273.337" x1="220.518" xlink:href="#Ab"><stop offset="0" stop-color="#693594"/><stop offset=".106" stop-color="#892e83"/><stop offset=".265" stop-color="#b4246c"/><stop offset=".409" stop-color="#d31d5c"/><stop offset=".531" stop-color="#e61952"/><stop offset=".616" stop-color="#ed174e"/><stop offset="1" stop-color="#f9e57e"/></linearGradient><linearGradient id="H" y2="286.978" x2="225.805" y1="274.639" x1="225.33" xlink:href="#Ab"><stop offset="0" stop-color="#693594"/><stop offset=".106" stop-color="#892e83"/><stop offset=".265" stop-color="#b4246c"/><stop offset=".409" stop-color="#d31d5c"/><stop offset=".531" stop-color="#e61952"/><stop offset=".616" stop-color="#ed174e"/><stop offset="1" stop-color="#f9e57e"/></linearGradient><linearGradient id="I" y2="278.408" x2="229.77" y1="272.657" x1="229.643" xlink:href="#Ab"><stop offset="0" stop-color="#f9e57e"/><stop offset=".106" stop-color="#f7db7d"/><stop offset=".349" stop-color="#f3c87a"/><stop offset=".52" stop-color="#f2c179"/><stop offset=".71" stop-color="#f5d17b"/><stop offset="1" stop-color="#f9e57e"/></linearGradient><linearGradient id="J" y2="281.797" x2="232.851" y1="269.314" x1="234.718" xlink:href="#Ab"><stop offset="0" stop-color="#f9e57e"/><stop offset=".106" stop-color="#f7db7d"/><stop offset=".349" stop-color="#f3c87a"/><stop offset=".52" stop-color="#f2c179"/><stop offset=".71" stop-color="#f5d17b"/><stop offset="1" stop-color="#f9e57e"/></linearGradient><linearGradient id="K" y2="278.243" x2="237.281" y1="272.491" x1="237.154" xlink:href="#Ab"><stop offset="0" stop-color="#f9e57e"/><stop offset=".106" stop-color="#f7db7d"/><stop offset=".349" stop-color="#f3c87a"/><stop offset=".52" stop-color="#f2c179"/><stop offset=".71" stop-color="#f5d17b"/><stop offset="1" stop-color="#f9e57e"/></linearGradient><linearGradient id="L" y2="282.93" x2="240.425" y1="270.446" x1="242.292" xlink:href="#Ab"><stop offset="0" stop-color="#f9e57e"/><stop offset=".106" stop-color="#f7db7d"/><stop offset=".349" stop-color="#f3c87a"/><stop offset=".52" stop-color="#f2c179"/><stop offset=".71" stop-color="#f5d17b"/><stop offset="1" stop-color="#f9e57e"/></linearGradient><linearGradient id="M" y2="278.096" x2="243.909" y1="272.344" x1="243.782" xlink:href="#Ab"><stop offset="0" stop-color="#f9e57e"/><stop offset=".106" stop-color="#f7db7d"/><stop offset=".349" stop-color="#f3c87a"/><stop offset=".52" stop-color="#f2c179"/><stop offset=".71" stop-color="#f5d17b"/><stop offset="1" stop-color="#f9e57e"/></linearGradient><linearGradient id="N" y2="278.057" x2="245.717" y1="272.305" x1="245.59" xlink:href="#Ab"><stop offset="0" stop-color="#f9e57e"/><stop offset=".106" stop-color="#f7db7d"/><stop offset=".349" stop-color="#f3c87a"/><stop offset=".52" stop-color="#f2c179"/><stop offset=".71" stop-color="#f5d17b"/><stop offset="1" stop-color="#f9e57e"/></linearGradient><linearGradient id="O" y2="279.878" x2="247.68" y1="276.177" x1="247.599" xlink:href="#Ab"><stop offset="0" stop-color="#f9e57e"/><stop offset=".106" stop-color="#f7db7d"/><stop offset=".349" stop-color="#f3c87a"/><stop offset=".52" stop-color="#f2c179"/><stop offset=".71" stop-color="#f5d17b"/><stop offset="1" stop-color="#f9e57e"/></linearGradient><linearGradient id="P" y2="278.011" x2="247.765" y1="272.259" x1="247.638" xlink:href="#Ab"><stop offset="0" stop-color="#f9e57e"/><stop offset=".106" stop-color="#f7db7d"/><stop offset=".349" stop-color="#f3c87a"/><stop offset=".52" stop-color="#f2c179"/><stop offset=".71" stop-color="#f5d17b"/><stop offset="1" stop-color="#f9e57e"/></linearGradient><linearGradient id="Q" y2="257.035" x2="198.421" y1="274.599" x1="193.106" xlink:href="#Ab"><stop offset="0" stop-color="#693594"/><stop offset=".106" stop-color="#892e83"/><stop offset=".265" stop-color="#b4246c"/><stop offset=".409" stop-color="#d31d5c"/><stop offset=".531" stop-color="#e61952"/><stop offset=".616" stop-color="#ed174e"/><stop offset="1" stop-color="#f9e57e"/></linearGradient><linearGradient id="R" y2="252.292" x2="210.45" y1="266.268" x1="200.916" xlink:href="#Ab"><stop offset="0" stop-color="#693594"/><stop offset=".106" stop-color="#892e83"/><stop offset=".265" stop-color="#b4246c"/><stop offset=".409" stop-color="#d31d5c"/><stop offset=".531" stop-color="#e61952"/><stop offset=".616" stop-color="#ed174e"/><stop offset="1" stop-color="#f9e57e"/></linearGradient><linearGradient id="S" y2="259.656" x2="207.085" y1="277.22" x1="201.77" xlink:href="#Ab"><stop offset="0" stop-color="#693594"/><stop offset=".106" stop-color="#892e83"/><stop offset=".265" stop-color="#b4246c"/><stop offset=".409" stop-color="#d31d5c"/><stop offset=".531" stop-color="#e61952"/><stop offset=".616" stop-color="#ed174e"/><stop offset="1" stop-color="#f9e57e"/></linearGradient><linearGradient id="T" y2="257.382" x2="217.911" y1="271.357" x1="208.376" xlink:href="#Ab"><stop offset="0" stop-color="#693594"/><stop offset=".106" stop-color="#892e83"/><stop offset=".265" stop-color="#b4246c"/><stop offset=".409" stop-color="#d31d5c"/><stop offset=".531" stop-color="#e61952"/><stop offset=".616" stop-color="#ed174e"/><stop offset="1" stop-color="#f9e57e"/></linearGradient><linearGradient id="U" y2="262.574" x2="216.727" y1="280.138" x1="211.411" xlink:href="#Ab"><stop offset="0" stop-color="#693594"/><stop offset=".106" stop-color="#892e83"/><stop offset=".265" stop-color="#b4246c"/><stop offset=".409" stop-color="#d31d5c"/><stop offset=".531" stop-color="#e61952"/><stop offset=".616" stop-color="#ed174e"/><stop offset="1" stop-color="#f9e57e"/></linearGradient><linearGradient id="V" y2="262.594" x2="225.551" y1="276.57" x1="216.016" xlink:href="#Ab"><stop offset="0" stop-color="#693594"/><stop offset=".106" stop-color="#892e83"/><stop offset=".265" stop-color="#b4246c"/><stop offset=".409" stop-color="#d31d5c"/><stop offset=".531" stop-color="#e61952"/><stop offset=".616" stop-color="#ed174e"/><stop offset="1" stop-color="#f9e57e"/></linearGradient><linearGradient id="W" y2="265.679" x2="226.985" y1="283.243" x1="221.67" xlink:href="#Ab"><stop offset="0" stop-color="#693594"/><stop offset=".106" stop-color="#892e83"/><stop offset=".265" stop-color="#b4246c"/><stop offset=".409" stop-color="#d31d5c"/><stop offset=".531" stop-color="#e61952"/><stop offset=".616" stop-color="#ed174e"/><stop offset="1" stop-color="#f9e57e"/></linearGradient><linearGradient id="X" y2="278.324" x2="233.588" y1="272.572" x1="233.461" xlink:href="#Ab"><stop offset="0" stop-color="#f9e57e"/><stop offset=".106" stop-color="#f7db7d"/><stop offset=".349" stop-color="#f3c87a"/><stop offset=".52" stop-color="#f2c179"/><stop offset=".71" stop-color="#f5d17b"/><stop offset="1" stop-color="#f9e57e"/></linearGradient><linearGradient id="Y" y2="281.185" x2="228.76" y1="268.702" x1="230.627" xlink:href="#Ab"><stop offset="0" stop-color="#f9e57e"/><stop offset=".106" stop-color="#f7db7d"/><stop offset=".349" stop-color="#f3c87a"/><stop offset=".52" stop-color="#f2c179"/><stop offset=".71" stop-color="#f5d17b"/><stop offset="1" stop-color="#f9e57e"/></linearGradient><linearGradient id="Z" y2="282.26" x2="235.947" y1="269.777" x1="237.814" xlink:href="#Ab"><stop offset="0" stop-color="#f9e57e"/><stop offset=".106" stop-color="#f7db7d"/><stop offset=".349" stop-color="#f3c87a"/><stop offset=".52" stop-color="#f2c179"/><stop offset=".71" stop-color="#f5d17b"/><stop offset="1" stop-color="#f9e57e"/></linearGradient><linearGradient id="a" y2="283.309" x2="242.96" y1="270.826" x1="244.827" xlink:href="#Ab"><stop offset="0" stop-color="#f9e57e"/><stop offset=".106" stop-color="#f7db7d"/><stop offset=".349" stop-color="#f3c87a"/><stop offset=".52" stop-color="#f2c179"/><stop offset=".71" stop-color="#f5d17b"/><stop offset="1" stop-color="#f9e57e"/></linearGradient><linearGradient id="b" y2="278.053" x2="245.889" y1="272.301" x1="245.762" xlink:href="#Ab"><stop offset="0" stop-color="#f9e57e"/><stop offset=".106" stop-color="#f7db7d"/><stop offset=".349" stop-color="#f3c87a"/><stop offset=".52" stop-color="#f2c179"/><stop offset=".71" stop-color="#f5d17b"/><stop offset="1" stop-color="#f9e57e"/></linearGradient><linearGradient id="c" y2="278.156" x2="241.213" y1="272.404" x1="241.086" xlink:href="#Ab"><stop offset="0" stop-color="#f9e57e"/><stop offset=".106" stop-color="#f7db7d"/><stop offset=".349" stop-color="#f3c87a"/><stop offset=".52" stop-color="#f2c179"/><stop offset=".71" stop-color="#f5d17b"/><stop offset="1" stop-color="#f9e57e"/></linearGradient><linearGradient id="d" y2="268.914" x2="107.78" y1="256.572" x1="111.961" xlink:href="#Ab"><stop offset="0" stop-color="#7e3895"/><stop offset=".071" stop-color="#9b2f82"/><stop offset=".16" stop-color="#b9266f"/><stop offset=".254" stop-color="#d02061"/><stop offset=".355" stop-color="#e01b56"/><stop offset=".468" stop-color="#ea1850"/><stop offset=".616" stop-color="#ed174e"/><stop offset="1" stop-color="#f9e57e"/></linearGradient><linearGradient id="e" y2="269.998" x2="110.978" y1="257.656" x1="115.159" xlink:href="#Ab"><stop offset="0" stop-color="#7e3895"/><stop offset=".071" stop-color="#9b2f82"/><stop offset=".16" stop-color="#b9266f"/><stop offset=".254" stop-color="#d02061"/><stop offset=".355" stop-color="#e01b56"/><stop offset=".468" stop-color="#ea1850"/><stop offset=".616" stop-color="#ed174e"/><stop offset="1" stop-color="#f9e57e"/></linearGradient><linearGradient id="f" y2="271.274" x2="114.746" y1="258.932" x1="118.927" xlink:href="#Ab"><stop offset="0" stop-color="#7e3895"/><stop offset=".071" stop-color="#9b2f82"/><stop offset=".16" stop-color="#b9266f"/><stop offset=".254" stop-color="#d02061"/><stop offset=".355" stop-color="#e01b56"/><stop offset=".468" stop-color="#ea1850"/><stop offset=".616" stop-color="#ed174e"/><stop offset="1" stop-color="#f9e57e"/></linearGradient><linearGradient id="g" y2="272.671" x2="118.869" y1="260.329" x1="123.051" xlink:href="#Ab"><stop offset="0" stop-color="#7e3895"/><stop offset=".071" stop-color="#9b2f82"/><stop offset=".16" stop-color="#b9266f"/><stop offset=".254" stop-color="#d02061"/><stop offset=".355" stop-color="#e01b56"/><stop offset=".468" stop-color="#ea1850"/><stop offset=".616" stop-color="#ed174e"/><stop offset="1" stop-color="#f9e57e"/></linearGradient><linearGradient id="h" y2="274.284" x2="123.17" y1="258.709" x1="125.904" xlink:href="#Ab"><stop offset="0" stop-color="#7e3895"/><stop offset=".096" stop-color="#863893"/><stop offset=".247" stop-color="#9d398f"/><stop offset=".433" stop-color="#c13a88"/><stop offset=".616" stop-color="#ec3c80"/><stop offset="1" stop-color="#f9e57e"/></linearGradient><linearGradient id="i" y2="275.371" x2="127.281" y1="265.825" x1="128.671" xlink:href="#Ab"><stop offset="0" stop-color="#7e3895"/><stop offset=".071" stop-color="#9b2f82"/><stop offset=".16" stop-color="#b9266f"/><stop offset=".254" stop-color="#d02061"/><stop offset=".355" stop-color="#e01b56"/><stop offset=".468" stop-color="#ea1850"/><stop offset=".616" stop-color="#ed174e"/><stop offset="1" stop-color="#f9e57e"/></linearGradient><linearGradient id="j" y2="275.977" x2="131.446" y1="266.431" x1="132.835" xlink:href="#Ab"><stop offset="0" stop-color="#7e3895"/><stop offset=".071" stop-color="#9b2f82"/><stop offset=".16" stop-color="#b9266f"/><stop offset=".254" stop-color="#d02061"/><stop offset=".355" stop-color="#e01b56"/><stop offset=".468" stop-color="#ea1850"/><stop offset=".616" stop-color="#ed174e"/><stop offset="1" stop-color="#f9e57e"/></linearGradient><linearGradient id="k" y2="287.031" x2="134.454" y1="265.955" x1="136.639" xlink:href="#Ab"><stop offset="0" stop-color="#7e3895"/><stop offset=".071" stop-color="#9b2f82"/><stop offset=".16" stop-color="#b9266f"/><stop offset=".254" stop-color="#d02061"/><stop offset=".355" stop-color="#e01b56"/><stop offset=".468" stop-color="#ea1850"/><stop offset=".616" stop-color="#ed174e"/><stop offset="1" stop-color="#f9e57e"/></linearGradient><linearGradient id="l" y2="277.33" x2="140.741" y1="267.784" x1="142.131" xlink:href="#Ab"><stop offset="0" stop-color="#7e3895"/><stop offset=".071" stop-color="#9b2f82"/><stop offset=".16" stop-color="#b9266f"/><stop offset=".254" stop-color="#d02061"/><stop offset=".355" stop-color="#e01b56"/><stop offset=".468" stop-color="#ea1850"/><stop offset=".616" stop-color="#ed174e"/><stop offset="1" stop-color="#f9e57e"/></linearGradient><linearGradient id="m" y2="288.044" x2="144.225" y1="266.969" x1="146.41" xlink:href="#Ab"><stop offset="0" stop-color="#7e3895"/><stop offset=".071" stop-color="#9b2f82"/><stop offset=".16" stop-color="#b9266f"/><stop offset=".254" stop-color="#d02061"/><stop offset=".355" stop-color="#e01b56"/><stop offset=".468" stop-color="#ea1850"/><stop offset=".616" stop-color="#ed174e"/><stop offset="1" stop-color="#f9e57e"/></linearGradient><linearGradient id="n" y2="278.07" x2="149.528" y1="267.13" x1="150.284" xlink:href="#Ab"><stop offset="0" stop-color="#7e3895"/><stop offset=".071" stop-color="#9b2f82"/><stop offset=".16" stop-color="#b9266f"/><stop offset=".254" stop-color="#d02061"/><stop offset=".355" stop-color="#e01b56"/><stop offset=".468" stop-color="#ea1850"/><stop offset=".616" stop-color="#ed174e"/><stop offset="1" stop-color="#f9e57e"/></linearGradient><linearGradient id="o" y2="283.676" x2="153.503" y1="269.241" x1="154.423" xlink:href="#Ab"><stop offset="0" stop-color="#7e3895"/><stop offset=".071" stop-color="#9b2f82"/><stop offset=".16" stop-color="#b9266f"/><stop offset=".254" stop-color="#d02061"/><stop offset=".355" stop-color="#e01b56"/><stop offset=".468" stop-color="#ea1850"/><stop offset=".616" stop-color="#ed174e"/><stop offset="1" stop-color="#f9e57e"/></linearGradient><linearGradient id="p" y2="283.926" x2="157.421" y1="269.491" x1="158.341" xlink:href="#Ab"><stop offset="0" stop-color="#7e3895"/><stop offset=".071" stop-color="#9b2f82"/><stop offset=".16" stop-color="#b9266f"/><stop offset=".254" stop-color="#d02061"/><stop offset=".355" stop-color="#e01b56"/><stop offset=".468" stop-color="#ea1850"/><stop offset=".616" stop-color="#ed174e"/><stop offset="1" stop-color="#f9e57e"/></linearGradient><linearGradient id="q" y2="289.697" x2="160.166" y1="268.621" x1="162.351" xlink:href="#Ab"><stop offset="0" stop-color="#7e3895"/><stop offset=".071" stop-color="#9b2f82"/><stop offset=".16" stop-color="#b9266f"/><stop offset=".254" stop-color="#d02061"/><stop offset=".355" stop-color="#e01b56"/><stop offset=".468" stop-color="#ea1850"/><stop offset=".616" stop-color="#ed174e"/><stop offset="1" stop-color="#f9e57e"/></linearGradient><linearGradient id="r" y2="290.231" x2="165.321" y1="269.156" x1="167.506" xlink:href="#Ab"><stop offset="0" stop-color="#7e3895"/><stop offset=".071" stop-color="#9b2f82"/><stop offset=".16" stop-color="#b9266f"/><stop offset=".254" stop-color="#d02061"/><stop offset=".355" stop-color="#e01b56"/><stop offset=".468" stop-color="#ea1850"/><stop offset=".616" stop-color="#ed174e"/><stop offset="1" stop-color="#f9e57e"/></linearGradient><linearGradient id="s" y2="281.538" x2="169.647" y1="271.992" x1="171.037" xlink:href="#Ab"><stop offset="0" stop-color="#7e3895"/><stop offset=".071" stop-color="#9b2f82"/><stop offset=".16" stop-color="#b9266f"/><stop offset=".254" stop-color="#d02061"/><stop offset=".355" stop-color="#e01b56"/><stop offset=".468" stop-color="#ea1850"/><stop offset=".616" stop-color="#ed174e"/><stop offset="1" stop-color="#f9e57e"/></linearGradient><linearGradient id="t" y2="291.086" x2="173.566" y1="270.011" x1="175.751" xlink:href="#Ab"><stop offset="0" stop-color="#7e3895"/><stop offset=".071" stop-color="#9b2f82"/><stop offset=".16" stop-color="#b9266f"/><stop offset=".254" stop-color="#d02061"/><stop offset=".355" stop-color="#e01b56"/><stop offset=".468" stop-color="#ea1850"/><stop offset=".616" stop-color="#ed174e"/><stop offset="1" stop-color="#f9e57e"/></linearGradient><linearGradient id="u" y2="282.762" x2="178.052" y1="273.215" x1="179.441" xlink:href="#Ab"><stop offset="0" stop-color="#7e3895"/><stop offset=".071" stop-color="#9b2f82"/><stop offset=".16" stop-color="#b9266f"/><stop offset=".254" stop-color="#d02061"/><stop offset=".355" stop-color="#e01b56"/><stop offset=".468" stop-color="#ea1850"/><stop offset=".616" stop-color="#ed174e"/><stop offset="1" stop-color="#f9e57e"/></linearGradient><linearGradient id="v" y2="291.977" x2="182.153" y1="270.901" x1="184.338" xlink:href="#Ab"><stop offset="0" stop-color="#7e3895"/><stop offset=".071" stop-color="#9b2f82"/><stop offset=".16" stop-color="#b9266f"/><stop offset=".254" stop-color="#d02061"/><stop offset=".355" stop-color="#e01b56"/><stop offset=".468" stop-color="#ea1850"/><stop offset=".616" stop-color="#ed174e"/><stop offset="1" stop-color="#f9e57e"/></linearGradient><linearGradient id="w" y2="284.082" x2="187.121" y1="274.536" x1="188.511" xlink:href="#Ab"><stop offset="0" stop-color="#7e3895"/><stop offset=".071" stop-color="#9b2f82"/><stop offset=".16" stop-color="#b9266f"/><stop offset=".254" stop-color="#d02061"/><stop offset=".355" stop-color="#e01b56"/><stop offset=".468" stop-color="#ea1850"/><stop offset=".616" stop-color="#ed174e"/><stop offset="1" stop-color="#f9e57e"/></linearGradient><linearGradient id="x" y2="232.664" x2="117.894" y1="250.228" x1="112.578" xlink:href="#Ab"><stop offset="0" stop-color="#693594"/><stop offset=".106" stop-color="#892e83"/><stop offset=".265" stop-color="#b4246c"/><stop offset=".409" stop-color="#d31d5c"/><stop offset=".531" stop-color="#e61952"/><stop offset=".616" stop-color="#ed174e"/><stop offset="1" stop-color="#f9e57e"/></linearGradient><linearGradient id="y" y2="234.337" x2="121.53" y1="251.337" x1="115.257" xlink:href="#Ab"><stop offset="0" stop-color="#693594"/><stop offset=".106" stop-color="#892e83"/><stop offset=".265" stop-color="#b4246c"/><stop offset=".409" stop-color="#d31d5c"/><stop offset=".531" stop-color="#e61952"/><stop offset=".616" stop-color="#ed174e"/><stop offset="1" stop-color="#f9e57e"/></linearGradient><linearGradient id="z" y2="234.567" x2="124.182" y1="252.131" x1="118.867" xlink:href="#Ab"><stop offset="0" stop-color="#693594"/><stop offset=".106" stop-color="#892e83"/><stop offset=".265" stop-color="#b4246c"/><stop offset=".409" stop-color="#d31d5c"/><stop offset=".531" stop-color="#e61952"/><stop offset=".616" stop-color="#ed174e"/><stop offset="1" stop-color="#f9e57e"/></linearGradient><linearGradient id="AA" y2="236.953" x2="128.617" y1="253.952" x1="122.344" xlink:href="#Ab"><stop offset="0" stop-color="#693594"/><stop offset=".106" stop-color="#892e83"/><stop offset=".265" stop-color="#b4246c"/><stop offset=".409" stop-color="#d31d5c"/><stop offset=".531" stop-color="#e61952"/><stop offset=".616" stop-color="#ed174e"/><stop offset="1" stop-color="#f9e57e"/></linearGradient><linearGradient id="AB" y2="237.069" x2="132.45" y1="254.634" x1="127.135" xlink:href="#Ab"><stop offset="0" stop-color="#693594"/><stop offset=".106" stop-color="#892e83"/><stop offset=".265" stop-color="#b4246c"/><stop offset=".409" stop-color="#d31d5c"/><stop offset=".531" stop-color="#e61952"/><stop offset=".616" stop-color="#ed174e"/><stop offset="1" stop-color="#f9e57e"/></linearGradient><linearGradient id="AC" y2="239.919" x2="136.656" y1="256.919" x1="130.383" xlink:href="#Ab"><stop offset="0" stop-color="#693594"/><stop offset=".106" stop-color="#892e83"/><stop offset=".265" stop-color="#b4246c"/><stop offset=".409" stop-color="#d31d5c"/><stop offset=".531" stop-color="#e61952"/><stop offset=".616" stop-color="#ed174e"/><stop offset="1" stop-color="#f9e57e"/></linearGradient><linearGradient id="AD" y2="239.581" x2="140.749" y1="257.145" x1="135.434" xlink:href="#Ab"><stop offset="0" stop-color="#693594"/><stop offset=".106" stop-color="#892e83"/><stop offset=".265" stop-color="#b4246c"/><stop offset=".409" stop-color="#d31d5c"/><stop offset=".531" stop-color="#e61952"/><stop offset=".616" stop-color="#ed174e"/><stop offset="1" stop-color="#f9e57e"/></linearGradient><linearGradient id="AE" y2="241.175" x2="146.017" y1="258.739" x1="140.701" xlink:href="#Ab"><stop offset="0" stop-color="#693594"/><stop offset=".106" stop-color="#892e83"/><stop offset=".265" stop-color="#b4246c"/><stop offset=".409" stop-color="#d31d5c"/><stop offset=".531" stop-color="#e61952"/><stop offset=".616" stop-color="#ed174e"/><stop offset="1" stop-color="#f9e57e"/></linearGradient><linearGradient id="AF" y2="244.941" x2="150.266" y1="261.941" x1="143.993" xlink:href="#Ab"><stop offset="0" stop-color="#693594"/><stop offset=".106" stop-color="#892e83"/><stop offset=".265" stop-color="#b4246c"/><stop offset=".409" stop-color="#d31d5c"/><stop offset=".531" stop-color="#e61952"/><stop offset=".616" stop-color="#ed174e"/><stop offset="1" stop-color="#f9e57e"/></linearGradient><linearGradient id="AG" y2="243.608" x2="154.055" y1="261.172" x1="148.739" xlink:href="#Ab"><stop offset="0" stop-color="#693594"/><stop offset=".106" stop-color="#892e83"/><stop offset=".265" stop-color="#b4246c"/><stop offset=".409" stop-color="#d31d5c"/><stop offset=".531" stop-color="#e61952"/><stop offset=".616" stop-color="#ed174e"/><stop offset="1" stop-color="#f9e57e"/></linearGradient><linearGradient id="AH" y2="247.672" x2="157.668" y1="264.672" x1="151.395" xlink:href="#Ab"><stop offset="0" stop-color="#693594"/><stop offset=".106" stop-color="#892e83"/><stop offset=".265" stop-color="#b4246c"/><stop offset=".409" stop-color="#d31d5c"/><stop offset=".531" stop-color="#e61952"/><stop offset=".616" stop-color="#ed174e"/><stop offset="1" stop-color="#f9e57e"/></linearGradient><linearGradient id="AI" y2="245.878" x2="161.557" y1="263.442" x1="156.242" xlink:href="#Ab"><stop offset="0" stop-color="#693594"/><stop offset=".106" stop-color="#892e83"/><stop offset=".265" stop-color="#b4246c"/><stop offset=".409" stop-color="#d31d5c"/><stop offset=".531" stop-color="#e61952"/><stop offset=".616" stop-color="#ed174e"/><stop offset="1" stop-color="#f9e57e"/></linearGradient><linearGradient id="AJ" y2="250.188" x2="164.486" y1="267.188" x1="158.213" xlink:href="#Ab"><stop offset="0" stop-color="#693594"/><stop offset=".106" stop-color="#892e83"/><stop offset=".265" stop-color="#b4246c"/><stop offset=".409" stop-color="#d31d5c"/><stop offset=".531" stop-color="#e61952"/><stop offset=".616" stop-color="#ed174e"/><stop offset="1" stop-color="#f9e57e"/></linearGradient><linearGradient id="AK" y2="248.319" x2="169.624" y1="265.883" x1="164.308" xlink:href="#Ab"><stop offset="0" stop-color="#693594"/><stop offset=".106" stop-color="#892e83"/><stop offset=".265" stop-color="#b4246c"/><stop offset=".409" stop-color="#d31d5c"/><stop offset=".531" stop-color="#e61952"/><stop offset=".616" stop-color="#ed174e"/><stop offset="1" stop-color="#f9e57e"/></linearGradient><linearGradient id="AL" y2="253.048" x2="172.236" y1="270.048" x1="165.963" xlink:href="#Ab"><stop offset="0" stop-color="#693594"/><stop offset=".106" stop-color="#892e83"/><stop offset=".265" stop-color="#b4246c"/><stop offset=".409" stop-color="#d31d5c"/><stop offset=".531" stop-color="#e61952"/><stop offset=".616" stop-color="#ed174e"/><stop offset="1" stop-color="#f9e57e"/></linearGradient><linearGradient id="AM" y2="250.686" x2="177.443" y1="268.25" x1="172.128" xlink:href="#Ab"><stop offset="0" stop-color="#693594"/><stop offset=".106" stop-color="#892e83"/><stop offset=".265" stop-color="#b4246c"/><stop offset=".409" stop-color="#d31d5c"/><stop offset=".531" stop-color="#e61952"/><stop offset=".616" stop-color="#ed174e"/><stop offset="1" stop-color="#f9e57e"/></linearGradient><linearGradient id="AN" y2="251.713" x2="180.838" y1="269.277" x1="175.522" xlink:href="#Ab"><stop offset="0" stop-color="#693594"/><stop offset=".106" stop-color="#892e83"/><stop offset=".265" stop-color="#b4246c"/><stop offset=".409" stop-color="#d31d5c"/><stop offset=".531" stop-color="#e61952"/><stop offset=".616" stop-color="#ed174e"/><stop offset="1" stop-color="#f9e57e"/></linearGradient><linearGradient id="AO" y2="252.985" x2="185.042" y1="270.55" x1="179.727" xlink:href="#Ab"><stop offset="0" stop-color="#693594"/><stop offset=".106" stop-color="#892e83"/><stop offset=".265" stop-color="#b4246c"/><stop offset=".409" stop-color="#d31d5c"/><stop offset=".531" stop-color="#e61952"/><stop offset=".616" stop-color="#ed174e"/><stop offset="1" stop-color="#f9e57e"/></linearGradient><linearGradient id="AP" y2="253.098" x2="195.496" y1="267.98" x1="182.256" xlink:href="#Ab"><stop offset="0" stop-color="#693594"/><stop offset=".106" stop-color="#892e83"/><stop offset=".265" stop-color="#b4246c"/><stop offset=".409" stop-color="#d31d5c"/><stop offset=".531" stop-color="#e61952"/><stop offset=".616" stop-color="#ed174e"/><stop offset="1" stop-color="#f9e57e"/></linearGradient><linearGradient id="AQ" y2="255.729" x2="198.453" y1="270.611" x1="185.213" xlink:href="#Ab"><stop offset="0" stop-color="#693594"/><stop offset=".106" stop-color="#892e83"/><stop offset=".265" stop-color="#b4246c"/><stop offset=".409" stop-color="#d31d5c"/><stop offset=".531" stop-color="#e61952"/><stop offset=".616" stop-color="#ed174e"/><stop offset="1" stop-color="#f9e57e"/></linearGradient><linearGradient id="AR" y2="264.972" x2="100.948" y1="237.546" x1="109.52" xlink:href="#Ab"><stop offset="0" stop-color="#d4e5ee"/><stop offset=".072" stop-color="#ccdee8"/><stop offset=".186" stop-color="#b5cbd7"/><stop offset=".327" stop-color="#90abbc"/><stop offset=".488" stop-color="#5e8096"/><stop offset=".554" stop-color="#476c85"/><stop offset=".594" stop-color="#5c7e95"/><stop offset=".685" stop-color="#87a3b5"/><stop offset=".773" stop-color="#a9c0ce"/><stop offset=".857" stop-color="#c1d4df"/><stop offset=".935" stop-color="#cfe1ea"/><stop offset="1" stop-color="#d4e5ee"/></linearGradient><linearGradient id="AS" y2="264.404" x2="99.131" y1="236.978" x1="107.703" xlink:href="#Ab"><stop offset="0" stop-color="#d4e5ee"/><stop offset=".072" stop-color="#ccdee8"/><stop offset=".186" stop-color="#b5cbd7"/><stop offset=".327" stop-color="#90abbc"/><stop offset=".488" stop-color="#5e8096"/><stop offset=".554" stop-color="#476c85"/><stop offset=".594" stop-color="#5c7e95"/><stop offset=".685" stop-color="#87a3b5"/><stop offset=".773" stop-color="#a9c0ce"/><stop offset=".857" stop-color="#c1d4df"/><stop offset=".935" stop-color="#cfe1ea"/><stop offset="1" stop-color="#d4e5ee"/></linearGradient><linearGradient id="AT" y2="264.676" x2="100.002" y1="237.25" x1="108.574" xlink:href="#Ab"><stop offset="0" stop-color="#d4e5ee"/><stop offset=".072" stop-color="#ccdee8"/><stop offset=".186" stop-color="#b5cbd7"/><stop offset=".327" stop-color="#90abbc"/><stop offset=".488" stop-color="#5e8096"/><stop offset=".554" stop-color="#476c85"/><stop offset=".594" stop-color="#5c7e95"/><stop offset=".685" stop-color="#87a3b5"/><stop offset=".773" stop-color="#a9c0ce"/><stop offset=".857" stop-color="#c1d4df"/><stop offset=".935" stop-color="#cfe1ea"/><stop offset="1" stop-color="#d4e5ee"/></linearGradient><linearGradient id="AU" y2="265.428" x2="102.408" y1="238.002" x1="110.98" xlink:href="#Ab"><stop offset="0" stop-color="#d4e5ee"/><stop offset=".072" stop-color="#ccdee8"/><stop offset=".186" stop-color="#b5cbd7"/><stop offset=".327" stop-color="#90abbc"/><stop offset=".488" stop-color="#5e8096"/><stop offset=".554" stop-color="#476c85"/><stop offset=".594" stop-color="#5c7e95"/><stop offset=".685" stop-color="#87a3b5"/><stop offset=".773" stop-color="#a9c0ce"/><stop offset=".857" stop-color="#c1d4df"/><stop offset=".935" stop-color="#cfe1ea"/><stop offset="1" stop-color="#d4e5ee"/></linearGradient><linearGradient id="AV" y2="264.446" x2="99.265" y1="237.019" x1="107.837" xlink:href="#Ab"><stop offset="0" stop-color="#d4e5ee"/><stop offset=".072" stop-color="#ccdee8"/><stop offset=".186" stop-color="#b5cbd7"/><stop offset=".327" stop-color="#90abbc"/><stop offset=".488" stop-color="#5e8096"/><stop offset=".554" stop-color="#476c85"/><stop offset=".594" stop-color="#5c7e95"/><stop offset=".685" stop-color="#87a3b5"/><stop offset=".773" stop-color="#a9c0ce"/><stop offset=".857" stop-color="#c1d4df"/><stop offset=".935" stop-color="#cfe1ea"/><stop offset="1" stop-color="#d4e5ee"/></linearGradient><linearGradient id="AW" y2="265.362" x2="102.195" y1="237.935" x1="110.767" xlink:href="#Ab"><stop offset="0" stop-color="#d4e5ee"/><stop offset=".072" stop-color="#ccdee8"/><stop offset=".186" stop-color="#b5cbd7"/><stop offset=".327" stop-color="#90abbc"/><stop offset=".488" stop-color="#5e8096"/><stop offset=".554" stop-color="#476c85"/><stop offset=".594" stop-color="#5c7e95"/><stop offset=".685" stop-color="#87a3b5"/><stop offset=".773" stop-color="#a9c0ce"/><stop offset=".857" stop-color="#c1d4df"/><stop offset=".935" stop-color="#cfe1ea"/><stop offset="1" stop-color="#d4e5ee"/></linearGradient><linearGradient id="AX" y2="264.284" x2="98.745" y1="236.857" x1="107.317" xlink:href="#Ab"><stop offset="0" stop-color="#d4e5ee"/><stop offset=".072" stop-color="#ccdee8"/><stop offset=".186" stop-color="#b5cbd7"/><stop offset=".327" stop-color="#90abbc"/><stop offset=".488" stop-color="#5e8096"/><stop offset=".554" stop-color="#476c85"/><stop offset=".594" stop-color="#5c7e95"/><stop offset=".685" stop-color="#87a3b5"/><stop offset=".773" stop-color="#a9c0ce"/><stop offset=".857" stop-color="#c1d4df"/><stop offset=".935" stop-color="#cfe1ea"/><stop offset="1" stop-color="#d4e5ee"/></linearGradient><linearGradient id="AY" y2="264.13" x2="98.253" y1="236.703" x1="106.825" xlink:href="#Ab"><stop offset="0" stop-color="#d4e5ee"/><stop offset=".072" stop-color="#ccdee8"/><stop offset=".186" stop-color="#b5cbd7"/><stop offset=".327" stop-color="#90abbc"/><stop offset=".488" stop-color="#5e8096"/><stop offset=".554" stop-color="#476c85"/><stop offset=".594" stop-color="#5c7e95"/><stop offset=".685" stop-color="#87a3b5"/><stop offset=".773" stop-color="#a9c0ce"/><stop offset=".857" stop-color="#c1d4df"/><stop offset=".935" stop-color="#cfe1ea"/><stop offset="1" stop-color="#d4e5ee"/></linearGradient><linearGradient id="AZ" y2="264.972" x2="100.949" y1="237.546" x1="109.521" xlink:href="#Ab"><stop offset="0" stop-color="#d4e5ee"/><stop offset=".072" stop-color="#ccdee8"/><stop offset=".186" stop-color="#b5cbd7"/><stop offset=".327" stop-color="#90abbc"/><stop offset=".488" stop-color="#5e8096"/><stop offset=".554" stop-color="#476c85"/><stop offset=".594" stop-color="#5c7e95"/><stop offset=".685" stop-color="#87a3b5"/><stop offset=".773" stop-color="#a9c0ce"/><stop offset=".857" stop-color="#c1d4df"/><stop offset=".935" stop-color="#cfe1ea"/><stop offset="1" stop-color="#d4e5ee"/></linearGradient><linearGradient id="Aa" y2="265.715" x2="103.326" y1="238.289" x1="111.898" xlink:href="#Ab"><stop offset="0" stop-color="#d4e5ee"/><stop offset=".072" stop-color="#ccdee8"/><stop offset=".186" stop-color="#b5cbd7"/><stop offset=".327" stop-color="#90abbc"/><stop offset=".488" stop-color="#5e8096"/><stop offset=".554" stop-color="#476c85"/><stop offset=".594" stop-color="#5c7e95"/><stop offset=".685" stop-color="#87a3b5"/><stop offset=".773" stop-color="#a9c0ce"/><stop offset=".857" stop-color="#c1d4df"/><stop offset=".935" stop-color="#cfe1ea"/><stop offset="1" stop-color="#d4e5ee"/></linearGradient><linearGradient id="Ab" gradientUnits="userSpaceOnUse"/></defs><g transform="matrix(.188611 0 0 .188611 .172816 14.90425)"><g fill="#dcddde" stroke="#d9d9d9"><path d="M167.985 25.238c-13.56-1.867-63.613-4.392-85.943-8.05C64.08 14.25 46.54 8.903 29.8 3.288c-4.328-1.453-12-4.434-16.896-7.07C9.8-6.155 2.333-9.67.298-13.004 32.748 2.403 45.8 6.645 83.88 14.35c15.435 3.17 71.617 7.72 84.105 10.888z" stroke-width=".596"/><g stroke-width=".254"><path d="M105.407 23.142l-1.035-1.148-.958-.957-.88-.763-.767-.5-.7-.227 1.188.074.7.077.688.075.7.078.7.076.7.038.612.076.957.88.92.84.805.842.73.844.727.8 1.34 1.568.7.728.688.727.73.65.767.65.88.6.92.576 1.035.535 1.15.497 1.302.42-1.454.498-1.418.12-1.417-.23-1.417-.574-1.38-.766-1.38-.994-1.305-1.144-1.3-1.227-1.227-1.26-1.15-1.265z"/><path d="M111.077 25.013l-.92-1.033-.956-1.033-.96-1.033-.958-.955-.995-.88.38.037h.423l.383.04.42.037.424.038.42.078.42.035.42.04.42.037.46.037.422.078.918.074.46.038h.46l.46.04.346.535.42.652.537.763.575.805.7.88.73.88.766.918.805.88.843.843.84.805.885.727.842.6.844.496.842.346.804.2h.768l-1.688.272-1.57.037-1.455-.15-1.377-.343-1.265-.536-1.15-.652-1.15-.765-1.034-.88-1.035-.918-.957-.994z"/><path d="M118.123 27.2l-.92-.994-.958-1.188-.997-1.3-1.034-1.416-1.075-1.607.652-.002.613.04 1.227.152.6.078.613.072h1.415l.617.613.573.65.576.613.574.687.575.65.536.7.576.65.54.7 1.146 1.3.613.65.577.614 1.953 1.72.73.498-.958.116-.92.076-.88-.037-.88-.153-.882-.2-.843-.344-.84-.422-.883-.574-.88-.65-.882-.764zM122 25.158l-.805-.957-.767-.957-.73-.84-.7-.73-.614-.612 4.098.382.462.6.498.612.458.615.46.6.46.613.5.614.46.6.497.613.537.573.537.6.536.578.614.57.612.575.653.576.7.537.727.53-.727.387-.802.154-.807-.117-.84-.342-.844-.5-.88-.7-.88-.764-.884-.916-.84-.96-.884-.992z"/><path d="M126.857 27l-.884-1.03-.842-1.1-.844-1.146-.805-1.15-.804-1.1.688.115.536.037.384.037.345.04.342.04h.346l.5.037.652.037.728 1.033.727.955.728.922.805.803.766.726.767.7.804.6.767.537.766.457.768.422.726.305.7.27.7.23.614.152.613.076.537.037-1.2.768-1.1.5-1.1.23h-1.074l-1.033-.2-.995-.342-.955-.54-.96-.685-.92-.842-.923-.88zm3.443-.698l-.803-.804-.766-.842-.73-.918-.73-.96-.7-.994.766.04.844.074.802.076.806.04.7.076.574.036.42.04.192.037.076.078.2.2.308.305.382.385.42.46.537.537.577.572.648.615.732.608.763.65.768.615.843.612.88.572.88.535.92.46.92.38-1.227.152-1.186.08-1.15-.078-1.1-.15-1.036-.227-1.033-.345-.958-.422-.92-.535-.92-.573-.844-.65z"/><path d="M135.396 26.068l-.844-.766-.806-.802-.766-.766-.7-.768-.65-.765h.46l.575.04.6.035h.65l.614.074.613.04.496.04.423.074v.08l.154.2.38.346.537.42.652.535.764.613.845.652.882.65.92.685.918.692.88.65.846.574.766.536.7.42.537.305.382.192-1.033.2-.998.076-1.033-.113-1.034-.192-1.035-.34-.994-.422-.996-.498-.998-.612-.92-.648-.918-.7z"/><path d="M139.1 25.185l-1-.844-.88-.687-.65-.574-.423-.38-.192-.155.498.04 1.112.072.572.04.615.072 1.224.08.653.037.688.42.687.422 1.344.88.7.455.653.498.688.46.653.46 1.35.956.688.46.652.46 1.38.842.652.42.7.383-.612.613-.806.265-.996.002-1.1-.265-1.227-.46-1.26-.647-1.34-.767-1.305-.84-1.302-.92-1.226-.916z"/><path d="M147.15 27.2l-1.072-.73-1.187-.803-1.264-.88-1.38-.918-1.534-.957.653.04.727.04h.65l.65.037.575.037.46.04.306.04.116.035.078.115.23.23.346.306.458.42.574.496.653.58.7.57.804.613.805.6.843.614.843.533.882.537.84.457.842.383.805.267.73.155-.652.228-.65.116-.65.037-.653-.1-.65-.195-.7-.264-.727-.383-.767-.46-.843-.536-.88-.6z"/><path d="M147.304 25.523l-.728-.7-.653-.573-.495-.498-.383-.342-.233-.232.614.04.577.04.57.037.575.075.535.04.578.037.6.074.613.04.46.42.5.42.458.422.5.46.498.498.497.46.536.46.54.46 1.07.843.577.38.534.342.614.3.575.265.613.194.613.152-.88.344-.958.152-.998-.072-1.033-.268-1.072-.383-1.033-.498-1.075-.607-.996-.7-.958-.688-.92-.728zm5.783 1.22l-1.455-1.3-.7-.7-.7-.65-.7-.615.422.04.46.076 1.032.076.576.074.612.04.652.075.613.037.192.46.267.46.27.422.346.42.38.383.843.764.496.307.5.306.538.268.573.267.576.192.612.154.6.15.653.076.65.04-.764.535-.763.346-.767.154-.766.04-.768-.152-.765-.233-.766-.342-.765-.46-.73-.498-.766-.6z"/><path d="M156.227 26.816l-.614-.494-.536-.54-.46-.572-.345-.65-.23-.652.46.04.46.037.497.076.5.04.495.037 1.1.077.653.038.268.382.307.385.305.344.306.307.307.304.347.23.343.27.347.23.38.2.422.192.42.2.46.154.46.153.496.152.537.115.54.155-.653.265-.7.194-.726.115-.805.002-.767-.04-.842-.116-1.607-.457-.768-.343-.728-.383z"/><path d="M160.4 26.47l-.537-.384-.537-.42-.458-.46-.345-.46-.306-.498.65.078.383.037.346.037.343.04.307.037h.536v.152l.344.305.576.422.767.498.917.496.92.5.92.38.806.23-.23.23-.347.152-.42.078h-.46l-.536-.037-.573-.113-.614-.193-.612-.2-.613-.27-.614-.307z"/><path d="M162.124 25.6l-.46-.345-.42-.307-.307-.23-.2-.153-.038-.076 2.986.342.23.152.385.192.458.23.5.23.536.27.497.2.46.2.383.115-.078.535-.192.344-.305.156-.42.077-.5-.077-.574-.2-.573-.23-.614-.306-.614-.346-.574-.38z"/><path d="M167.525 26.312h-.537l-.7-.2-.7-.348-.728-.38-.652-.346-.536-.228.652.04.574.04.536.035.498.037.46.04.497.035.498.08.577.113-.117.728z"/><path d="M167.753 23.937l-.537-.193-.727-.033-.766.15-.765.193-.652.23-.5.154.654.113.573.076.497.114.5.076.458.113.46.115.537.118.574.152.04-.844zm-58.407-11.3l-1.075.996-1.07.957-1.07.92-1.074.88-1.1.807.384.073.42.038.42.04.383.077.422.04.42.038.46.036.42.04.422.035.46.04.458.076.883.077.457.075.498.037.46.077.382-.534.495-.654.576-.765.688-.768.727-.843.805-.842.88-.844.88-.806.96-.765.954-.688.957-.615.997-.497.957-.385.958-.23.956-.04.88.152-1.684-.65-1.6-.42-1.492-.114-1.417.076-1.378.3-1.262.46-1.227.652-1.186.73-1.15.845-1.1.92z"/><path d="M116.657 11.72l-1.033.96-1.1 1.1-1.1 1.266-1.185 1.418-1.264 1.57.7.04.612.072.576.04.534.077.537.076.573.076.654.113.764.117.7-.574.65-.613.7-.653.612-.654 1.3-1.3.613-.653.65-.65.652-.613.687-.574.652-.576.688-.574.727-.498.766-.423.766-.42.805-.347-.96-.344-.92-.227-.878-.152-.923-.077-.878.077-.92.192-.88.268-.92.423-.956.537-.96.7z"/><path d="M119.916 14.707l-.92.958-.84.88-1.57 1.505-.7.574 4.176.496.536-.613.536-.615.498-.613.534-.612.537-.613.534-.65 1.108-1.2 1.226-1.147.652-.538.688-.498.727-.497.766-.423.804-.383.842-.346-.726-.6-.808-.307-.88-.074-.88.2-.958.383-.956.538-.995.7-.996.804-.996.88-.993.92z"/><path d="M124.854 13.707l-1.877 2.03-.917 1.112-.918 1.1-.92 1.1.73.04.6.036.498.04.918.152.5.075.572.078.692.113.803-1.035.765-.92.803-.843.766-.728.8-.612.766-.538.728-.46.767-.382.728-.3.688-.23.728-.192.7-.153.65-.08.653-.074h.65l.613-.002-1.15-1.1-1.1-.802-1.073-.534-1.073-.307-1.072-.037-1.034.154-1.033.385-.996.498-.994.7-.956.804z"/><path d="M129 15.3l-.878.7-.882.768-.84.84-.805.922-.803.996.803.116.92.1 1.842.23.84.114.65.078.5.037h.2l.075-.075.193-.154.268-.267.343-.346.423-.42.495-.424.575-.496.65-.538.727-.5.765-.536.844-.5.918-.495.92-.424.994-.383 1.034-.347 1.073-.23-1.267-.46-1.186-.344-1.187-.2-1.1-.077-1.1.001-1.072.155-1.035.232-.996.346-.995.42-.92.537z"/><path d="M134.775 16.724l-.994.65-.882.693-.88.727-.8.728-.726.73.495.037.612.076 1.417.153.73.075.652.076.574.037h.42l.001-.077.192-.2.38-.268.574-.385.7-.42.805-.5.92-.537.956-.533.955-.54.996-.538.998-.496.916-.457.846-.387.762-.307.616-.193.495-.115-1.034-.418-1.035-.307-1.1-.115-1.073.001-1.1.118-1.1.23-1.072.345-1.1.422-1.033.498-1.034.537z"/><path d="M138.797 18.484l-1.15.727-.954.615-.73.46-.496.342-.23.117.537.116.6.078.653.073.7.038.727.078.73.074 1.377.23.73-.345.687-.348.73-.38.687-.384.7-.346.688-.383.728-.384.688-.38.7-.35.687-.382.73-.343.688-.306.7-.348.726-.305.727-.3.728-.266-.537-.842-.804-.498-.997-.187H148.4l-1.264.267-1.38.422-1.455.576-1.415.652-1.455.73-1.34.766zm8.58 1.333l-.804.537-.726.5-.575.46-.42.307-.23.193.612.074.574.076.496.077.5.037.536.037.496.076.576.076.6.074.537-.34.537-.348.574-.42.574-.383.6-.422.614-.42.612-.423 1.226-.767.648-.307.652-.305.614-.232.648-.2.615-.117h.612l.612.037-.844-.6-.956-.346-.996-.15-1.07.001-1.114.2-1.148.348-1.1.42-1.1.5-1.035.574-1.032.575z"/><path d="M147.5 17.863l-1.147.615-1.265.65-1.378.692-1.5.765-1.65.768.614.04.7.074.7.078.7.112.613.078.457.078.346.035.153-.035.076-.078.27-.2.345-.3.46-.343.573-.422.7-.46.73-.5.803-.5 1.76-.995.956-.425.957-.384.96-.304.957-.196.92-.1.918-.001-.653-.423-.687-.305-.653-.154-.688-.074-.7.037-.727.152-.807.27-.838.307-.92.423-.96.46zm5.67 1.717l-.843.54-.843.536-1.607 1.152-.803.496.46.076.498.04.575.116.613.072.65.08.7.072.65.078.653.077.23-.498.268-.422.305-.422.384-.382.383-.344.42-.27.5-.27.497-.23.536-.2.572-.154.576-.115.613-.08.65-.037h.652l1.34.15-.7-.765-.726-.574-.73-.382-.766-.23-.766-.037-.804.076-.844.193-.804.27-.84.422-.805.42zm7.495 2.025l-.6.27-.577.306-.534.383-.422.422-.38.46.343.076.422.076.42.076.423.075.382.037.307.04h.306l.153-.078.38-.23.653-.307.765-.34.88-.3.995-.27.957-.155.96.037-.193-.306L166 21.6l-.422-.226-.46-.155-.536-.114-.612-.037h-.613l-.7.037-.65.115-.7.155z"/><path d="M162.313 23.06l-.535.23-.46.23-.383.154-.2.153-.078.037 3.065.533.27-.113.42-.117.46-.153.537-.154.536-.115.535-.075h.498l.422.075.036-.6-.152-.46-.27-.306-.42-.192-.497-.078-.575.04-.613.076-.7.155-1.3.46zm-5.86-2.8l-.7.382-.65.46-.536.535-.42.613-.344.7.5.04.457.078.5.035.537.076.535.078.574.037.612.116.65.072.23-.34.268-.308.306-.268.343-.27.383-.23.42-.23.423-.192.46-.152.46-.155.497-.114.46-.076.5-.04.497-.038.496-.001.5.04.46.075-.613-.498-.65-.383-.728-.342-.805-.23-.806-.154-.802-.1-.844.001-.84.072-.804.156-.803.27zM25.975 10.566l.193.842.422.768.65.686.92.536 1.2.383-.193-.578-.117-.6-.113-.6-.077-.7-.04-.7v-.726l.038-.7.037-.73.076-.728.074-.725.116-.7.153-.652.113-.65.154-.575.2-.575.155-.498-.192-.075-.154-.04-.2-.076-.156-.036-.154-.077L28.9 3l-.192-.08-.2-.076-.077.117-.193.307-.266.497-.344.613-.386.727-.38.806-.346.92-.303.918-.227.96-.08.92z"/><path d="M31.1 16l.495.267.54.2.46.076.42.037h.384l-.46-1.225-.192-.7-.155-.7-.152-.767-.118-.763-.116-.767-.076-.803-.04-.805V9.2l.04-.804.074-.843.114-.803.155-.843.2-.766.23-.805-.457-.154-.463-.152-.422-.153-.418-.115-.347-.113-.38-.115-.306-.076-.27-.078-.534 2.1-.382 1.914-.2 1.646-.037 1.455.077 1.264.23 1.072.306.92.347.764.46.613.497.496zm2.53.764l.573.765.73.575.84.303.96.04 1.108-.306-.42-.692-.42-.726-.347-.766-.307-.726-.23-.803-.232-.768-.152-.804-.154-.805-.077-.804-.04-.84v-.804l.074-.842.076-.842.152-.806.153-.844.23-.803-.383-.152-.458-.153-1.38-.458-.38-.153-.346-.117-.267-.075-.23.765-.227.96-.155 1.073-.072 1.186-.04 1.303v1.3l.116 1.3.192 1.267.272 1.186.344 1.1zm1.996-4.98l-.078-1.302-.001-1.3.114-1.303.23-1.265.343-1.188.422.152.425.154.456.115L38 6l.458.154.497.154.46.152.497.152v.804l.001.88.04 1 .078 2.066.038 1.073.116 1.1.114 1.032.156 1.035.152.957.234.92.267.806.308.687.384.577.42.42.46.266-1.037.08-.997-.154-.88-.38-.804-.535-.766-.73-.652-.88-.536-.994-.5-1.1-.384-1.187-.3-1.266z"/><path d="M43.055 9.2l.04.92.038.958.002 2 .08 2.03.076.998.115.994.194.92.2.843.305.802.345.727.422.616.536.495-1.108-.267-.92-.382-.767-.534-.65-.614-.537-.728-.423-.84-.306-.92-.232-.96-.156-1.072-.113-1.1-.08-2.375-.076-2.488V7.95l-.078-1.303.384.154.383.114.342.115.386.077.382.115.347.113.383.116.38.154.078.765z"/><path d="M43.134 13.615l-.003-3.8-.076-1.15-.08-1.07.42.114.383.113.343.117.387.114.38.113.343.115.384.077.423.114-.04.114-.075.268-.08.423-.114.537-.074.688-.078.767-.04.88.04.996.114 1.035.195 1.145.347 1.2.42 1.225.614 1.265.766 1.34.92 1.3 1.15 1.338-1.53-.074-1.304-.305-1.07-.496-.882-.653-.7-.84-.502-.958-.42-1.07-.27-1.188-.154-1.225-.114-1.26z"/><path d="M46.084 15.9l-.3-1.5-.192-1.496-.04-1.53.152-1.454.308-1.457L49.64 9.63l-.038.613-.037.73.038.8.08.92.113.958.192 1.035.193 1.072.307 1.1.347 1.1.42 1.073.46 1.07.575 1.035.612.996.73.918.804.842.883.726-1.035.192-1.035-.075-.995-.345-.996-.537-.956-.725-.92-.88-.844-1.07-.77-1.187-.65-1.265-.576-1.378z"/><path d="M55.467 13.068l.075.96.038.996.117.995.077 1.037.116.994.153.996.2.956.233.92.308.915.344.842.422.807.498.687.536.65.65.576-.765.115-.803-.04-.804-.2-.804-.344-.804-.5-.807-.6-.767-.764-.766-.957-.7-1.035-.612-1.226-.578-1.34-.495-1.53-.388-1.65-.306-1.758-.195-1.955-.077-2.066.574.2.728.192.807.267.84.23.805.27.804.227.7.2.537.115.077.88z"/><path d="M55.774 17.092l-.117-1.302-.038-1.303-.078-1.187-.075-1.1-.118-.996.536.115.463.115.418.153.418.113.463.117.422.1.496.154.576.152.117 1.038.112.992.116.996.156.955.117.96.153.918.2.88.195.88.268.844.308.84.382.805.422.804.536.8.576.768.7.726.77.727-1.725.08-1.455-.154-1.264-.418-.998-.653-.84-.803-.692-.957-.497-1.072-.385-1.224-.308-1.225-.2-1.342z"/><path d="M59.9 17.968l-.194-1.3-.2-1.226-.116-1.15-.116-1.073-.08-.92.54.117.46.112.42.116.423.077.38.113.425.074.495.153.577.115.192 1.496.23 1.417.27 1.3.268 1.225.3 1.1.345 1.07.383.918.383.883.383.803.425.726.46.614.422.574.46.535.46.42.498.383.46.346-1.532.078L66 26.87l-1.188-.418-1.036-.65-.88-.805-.765-.957-.616-1.107-.537-1.188-.458-1.226-.346-1.3z"/><path d="M63.97 18.77l-.308-1.262-.27-1.2-.192-1.15-.152-1.03-.156-.922.46.076.46.116.462.114.46.116.462.115.458.112.46.115.497.117.038.724.117.805.153.843.268.918.27.995.382.957.385 1.033.42.998.5.996.538.957.534.88.577.84.574.806.614.7.65.572.617.46-1.457.078-1.302-.2-1.15-.424-1.07-.612-.88-.8-.805-.92-.7-1.073-.615-1.144-.535-1.2-.422-1.263z"/><path d="M67.53 18.345l-.384-1.262-.23-1.074-.193-.88-.114-.65-.001-.38.573.1.538.115.535.153.536.115.536.152.5.113.497.116.5.078.192.65.43 1.645.272.996.308 1.035.342 1.07.384 1.07.424 1.115.46 1.07.497.994.537.96.574.842.654.724.65.574.728.422.764.23-1.5.193-1.38-.2-1.264-.496-1.15-.766-1.073-.955-.92-1.148-.84-1.3-.77-1.34L68.53 21l-.537-1.38z"/><path d="M72.28 20.18l-.385-1.227-.306-1.147-.232-1.035-.23-.918-.2-.727.42.076.423.038.38.075.347.077.383.076.346.078.305.074.345.04.118.88.2.92.233.917.227.883.3.918.346.88.382.843.92 1.684.537.804.616.764.6.7.73.7.727.6.806.574.88.535-1.377.307h-1.223l-1.113-.268-1.035-.535-.88-.728-.805-.88-.727-1.068-.652-1.15-.54-1.224-.498-1.262z"/><path d="M75.882 22.244l-.574-1.185-.46-1.264-.385-1.34-.347-1.38-.23-1.414.498.113.5.077.536.115.496.074.497.078.46.113.5.077.46.115.23.805.192.84.23.805.195.803.23.804.228.803.306.765.346.805.42.766.463.802.576.766.687.766.768.728.918.766 1.073.765 1.188.725h-1.148l-1.112-.115-1.07-.268-1.037-.383-.957-.533-.96-.65-.84-.764-.84-.842-.73-.96-.7-1.033z"/><path d="M79.978 23.084l-.573-1.22-.496-1.304-.425-1.34-.306-1.377-.234-1.38.423.076.46.117.456.075.46.075.46.078.5.114.497.076.5.116.152.955.23.957.3.96.383.917.457.917.502.918.574.883.65.842.7.843.767.762.808.727.878.7.92.6.995.577.998.496 1.072.42-1.495.117-1.454-.076-1.34-.23-1.266-.383-1.186-.496-1.113-.65-1.033-.768-.918-.916-.844-.955-.766-1.074z"/><path d="M83.924 23.27l-.65-1.1-.536-1.183-.46-1.226-.347-1.267-.23-1.298.42.074.385.037.688.078.346.037.382.077.458.075.54.076.537 1.112.46 1.03.882 1.916.46.88.424.804.46.764.498.727.537.728.613.65.688.7.765.6.884.65.996.6 1.108.613 1.265.6-1.264-.075-1.225-.2-1.228-.307-1.185-.457-1.113-.537-1.1-.648-1.034-.73-.958-.842-.88-.916-.843-.994z"/><path d="M87.83 23.578l-.688-1.2-.652-1.184-.577-1.186-.538-1.227-.496-1.186.343.036.46.078 1.15.152.613.115.537.077.456.076.347.035.46 1.074.5 1.074.577.994.573.955.653.88.688.88.73.805.803.806.804.727.885.687.917.688.96.613.995.572 1.072.535 1.073.497 1.15.46-1.877.077-1.763-.073-1.57-.267-1.455-.422-1.34-.572-1.186-.692-1.114-.8-.993-.92-.92-.993-.844-1.072z"/><path d="M92.77 24.494l-1-1.15-.88-1.187-.803-1.26-.692-1.34-.576-1.38.575.08.576.074.6.037.612.077.536.038.46.077.382.076.192.115.7.535.7.575 1.457 1.376.727.766.767.802.766.844.768.844.765.88 1.6 1.683.844.84.842.844.845.762.842.767.882.688-1.035-.037-1.07-.153-1.15-.267-1.186-.42-1.188-.494-1.2-.614-1.187-.726-1.187-.803-1.15-.918-1.112-.957zm6.128.183l-1.188-1.3-1.188-1.263-1.225-1.263-1.228-1.15-1.225-1.03h.424l.495.074.576.038.573.116.614.077.613.113.572.115.5.075 1.913 1.76.923.92.92.92.88.916.882.92.88.92.845.84.844.84.842.768.804.687.804.613.805.536.766.46.766.343.766.23-.997.654-1.032.268-1.034.002-1.073-.268-1.072-.537-1.073-.73-1.1-.916-1.1-1.033-2.26-2.412z"/><path d="M102.23 24.214l-1.918-2.14-.994-1.034-1.035-.957-1.072-.918.382.04.458.037.577.074.572.04.577.074.46.038.382.04.23-.001.65.15.65.306.65.423.692.573.7.686.728.805.766.843.768.916.88.957.883.956.997.996 1.032.96 1.112.955 1.188.88 1.264.8 1.38.73-1.573.002-1.492-.153-1.342-.384-1.303-.494-1.187-.614-1.1-.765-1.076-.84-.995-.92-.997-.994-.956-1.033zM30.9-9.198l.573-.728.654-.537.843-.306 1.034-.04 1.185.306-.384.384-.343.46-.345.574-.306.613-.304.7-.27.7-.263.767-.27.804-.228.766-.2.806-.194.803-.2.765-.155.768-.152.726-.115.65-.113.613-.2-.037L31.02.3l-.2-.078-.155-.037-.152-.08L30.37.03l-.192-.037-.226-.078v-.153l-.04-.42-.038-.65-.04-.806-.04-.957.075-2.106.1-1.1.23-1.033.308-.996zm6.167-2.072l.42.078.42.152.382.2.348.23.305.23-.536.497-.533.574-.462.538-.494.6-.424.615-.422.65-.382.652-.343.692-.344.726-.612 1.533-.268.805-.227.842-.23.842-.227.88-.194.92-.457-.077-.345-.036L32.2.796 32.057.72l-.152-.037-.156-.076-.153-.04-.23-.075.497-2.5.535-2.108.535-1.8.533-1.492.54-1.2.534-.958.533-.7.5-.497.536-.347.458-.153z"/><path d="M38.94-10.4l.842-.424.88-.153.882.153.842.5.88.878-.688.498-.65.576-.614.574-.574.576-.574.6-.496.7-.46.7-.42.688-.423.768-.343.767-.345.805-.266.84-.267.88-.193.92-.2.96-.155.994-.416-.114-.46-.152-.5-.153-.498-.192-.46-.2-.42-.155-.343-.15-.23-.077.113-.918.195-1.035.304-1.15.38-1.225.5-1.264.572-1.226.6-1.187.688-1.1.73-.996.765-.843z"/><path d="M38.716-4.303l-.573 1.226-.496 1.305-.383 1.376-.306 1.38-.152 1.416.92.232.46.15.46.155.497.2.5.113.457.155.5.075.345-.88.305-.96.383-.957.347-.957.38-.996.42-.998.423-.956.42-.918.456-.884.5-.805.533-.765.54-.652.6-.575.615-.46.648-.346.7-.2-.92-.612-.92-.344-.957-.115-.92.115-.958.306-.92.5-.882.7-.843.805-.76.92-.766 1.073z"/><path d="M42.813-2.197l-.457 1.224L41.9.3l-.42 1.264-.46 1.187-.497 1.112.42.037.384.115.383.113.385.153.38.118.384.15.42.114.422.075.038-.152.038-.383.114-.498.115-.7.2-.803.27-.92.305-.996.42-1.034.494-1.034.575-1.035.727-1.036.803-.958.96-.918 1.07-.766 1.228-.692 1.375-.5-1.455-.648-1.302-.344-1.15-.038-1.034.194-.92.42-.805.65-.724.806-.65.958-.576 1.072-.495 1.187z"/><path d="M46.377-2.738l-.805 1.342L44.886.02l-.538 1.533-.34 1.57-.2 1.687 3.946 1.03.227-.65.307-.77.305-.803.382-.88.46-.92L49.9.86l.537-.96.574-.956.652-.957.725-.92.765-.84.803-.808.878-.727.96-.614.996-.537 1.07-.42-.882-.65-.997-.42-1.07-.153-1.072.04-1.15.228-1.148.46-1.1.615-1.1.768-1.07.956-.997 1.075z"/><path d="M54.04 5.528l.422-.996.42-1.036.42-1.032.458-.997.498-.995.497-.997.533-.918.573-.845.614-.804.652-.726.65-.653.728-.537.803-.423.804-.305-.692-.46-.764-.344-.806-.23-.88-.076-.918.077-.96.23-.957.383-.993.576-1 .727-.993.92-.995 1.15L51.2-1.48 50.28.053l-.917 1.722-.843 1.993-.802 2.183.573.115.726.153.73.23.807.23.764.266.73.192.65.2.536.153.382-.958z"/><path d="M55.877 1.545l-.534 1.34-.537 1.302-.498 1.264-.458 1.15-.456 1.035.535.076.46.112.42.08.842.23.46.115.498.076.573.113.5-1.034.458-1.036.46-.994.458-.958.46-.958.496-.88.5-.88.495-.805.575-.807.6-.726.613-.688.688-.652.77-.616.8-.536.92-.498.956-.46-1.57-.84-1.415-.498-1.304-.114-1.186.194-1.032.458-.997.7-.84.883-.805 1.073-.7 1.188-.65 1.264z"/><path d="M59.976 2.805l-.652 1.263-.6 1.266-.537 1.148-.455 1.112-.423.957.574.113.5.115.46.114.42.076.458.115.46.115.536.076.613.116.7-1.534.688-1.417.647-1.3.65-1.2.614-1.07.573-.96L66.376.264l.612-.652.614-.575.6-.498.65-.42.654-.308.684-.268.732-.155.764-.114-1.42-.764-1.338-.383-1.265-.075-1.225.2-1.1.46-1.07.7-.997.844-.92.998-.84 1.15-.81 1.176z"/><path d="M63.92 3.9l-.614 1.188-.6 1.2-.5 1.15-.456 1.033-.42.96.46.113.42.113.424.076.383.117.42.077.42.075.46.113.497.077.23-.764.342-.845.42-.842.497-.92.535-.92 1.3-1.84.727-.92.765-.84.805-.846L71.23.7l.804-.653.843-.613.804-.498.802-.383.806-.23-1.378-.65-1.307-.307-1.22.001-1.2.233-1.07.458L68.1-1.3l-.956.844-.92.957-.802 1.072-.766 1.15z"/><path d="M66.758 6.13l-.65 1.186-.536 1.037-.422.878-.23.653-.113.383.574.115.498.113 1.494.345.46.074.5.077.497.076.344-.65.384-.804.458-.882.537-.92.57-1.034.614-1.034.647-.997.7-1.034.727-.96.766-.88.802-.804.803-.652.844-.537.843-.345.878-.152.882.035-1.417-.762-1.38-.344-1.38.04-1.3.384-1.263.613-1.226.88-1.15 1.038-1.07 1.147-.995 1.23-.88 1.263z"/><path d="M71.618 5.975L70.932 7.2l-1.1 2.224-.42.918-.383.766.46.077.382.114.344.115.308.113.346.115.305.115.308.078.342.073.344-.955.42-.958.422-.92.46-.918.537-.92.53-.843.613-.844.65-.805.7-.766.764-.7.765-.614.843-.574.92-.5.92-.42.996-.308 1.072-.23L81.493-.2 80.27-.66l-1.15-.113-1.15.2-1.072.46-1.033.692-.958.842-.915 1.035-.844 1.114-.804 1.183z"/><path d="M75.333 5.32l-.842 1.113-.802 1.225-.7 1.34-.7 1.418-.57 1.5.498.077.495.077.5.115.497.153.496.115.498.154.498.115.5.074.342-.842.343-.88.347-.843.342-.883.42-.842.42-.805.5-.84.535-.767.65-.728.688-.728.805-.652.88-.614.996-.537 1.1-.498 1.26-.424 1.38-.343-1.113-.422-1.1-.266-1.148-.077-1.074.078-1.1.232-1.032.344-1.034.536-1.034.653-.956.767-.918.92z"/><path d="M79.2 6.12l-.84 1.15-.763 1.263-.653 1.34-.6 1.38-.535 1.5.46.077.46.076 1.57.23.538.074 1.07.152.27-1.072.383-.994.42-.996.533-.96.575-.88.65-.843.7-.804.766-.73.84-.7.916-.574.96-.54.995-.46 1.072-.345 1.112-.307 1.147-.2 1.188-.078-1.455-.6-1.46-.4-1.34-.2-1.34-.037-1.264.2-1.226.346-1.147.498-1.112.652-.992.805-.994.92z"/><path d="M82.802 7.382L82 8.416l-.7 1.15-.6 1.226-.5 1.34-.38 1.42.46.035.383.038.382.077.384.077.383.075.382.078.46.114.496.076.652-1.1.613-1.073.532-.958.5-.957.535-.843.498-.804.497-.767.573-.7.612-.65.688-.576.768-.535.842-.498.995-.425 1.07-.382 1.264-.346 1.415-.308-1.302-.2-1.262-.113-1.262.04-1.228.154-1.223.307-1.15.384-1.1.498-1.073.614-.996.728-.954.844z"/><path d="M86.632 8.3l-.802 1.1-.728 1.148-.688 1.226L83.802 13l-.612 1.264.307.038.42.037.46.115.5.076.496.115.462.115.42.036.345.04.572-1.15.613-1.035.7-.996.726-.918.766-.883.804-.805.88-.726.92-.7.956-.617.996-.573 1.035-.498 1.07-.498 1.1-.423 1.148-.383 1.2-.345 1.222-.3-1.914-.457-1.8-.268-1.647-.075-1.53.155L93 3.647l-1.302.46-1.186.573-1.074.77-1.03.842-.917.96z"/><path d="M91.383 8.64l-1.148 1.035-1.035 1.15-.956 1.225-.84 1.342-.727 1.455.537.04.533.076.538.115.536.114.46.113.385.117.306.036.2-.037.77-.46.762-.537.804-.613.843-.7.843-.728.877-.768.92-.767.916-.802.96-.806.956-.807.996-.802.996-.73 1.033-.73.995-.653 1.07-.613 1.032-.537-1.07-.2-1.113-.038-1.225.04-1.262.192-1.267.27-1.3.384-1.303.497-1.3.615-1.3.728-1.224.845z"/><path d="M96.973 10.053l-1.34 1.187-1.377 1.2-1.377 1.112-1.376 1.035-1.38.92.42.074.5.037.612.04.613.038.65.037h1.227l.497-.002 1.035-.766 2-1.6.918-.842.92-.805.883-.806.878-.805.88-.767.92-.688.88-.65.92-.576.956-.5.996-.422 1.035-.344 1.073-.193 1.1-.117-.958-.955-1.034-.572-1.074-.23-1.1.078-1.148.307-1.225.575-1.226.77-1.3.88-2.642 2.184z"/><path d="M99.885 11.505l-1.112.996-2.217 1.917-1.188.843-1.185.806.38.038.498.075.577.078.576.036.572.08.5.072.38.04.23.037.688-.001.7-.2.727-.348.765-.496.766-.614.843-.727 2.757-2.532 1.03-.918 1.1-.882 1.15-.843 1.26-.808 1.302-.727 1.38-.652 1.494-.5-1.6-.38-1.493-.152-1.415.076-1.343.272-1.262.46-1.225.575-1.186.728-1.148.805-2.2 1.842z"/><path d="M103.064 13.534l-1.148.993-1.033.844-.956.65-.843.384-.726.117.6.077.653.113.726.113.765.117.767.075.766.115.728.038.652.037 1.07-.806.958-.765.878-.767.84-.727.767-.73.726-.726.767-.692.726-.65.728-.612.804-.577.84-.537.92-.496.996-.46 1.07-.383 1.226-.347 1.34-.307-1.417-.805-1.495-.34h-1.455l-1.5.308-1.495.576-1.494.804-1.454.96-1.415 1.034-1.34 1.15-1.302 1.15zM24.888-13.1l.035-.46.036-.46.08-.458.112-.46.114-.42-.6.803-.46.882-.345.842-.2.88-.076.92v.92l.116.918.194.92.228.918.3.882.686 1.76.385.843.346.842.346.764.343.767-.074-.152-.037-.27-.042-.266v-.344l-.037-.424v-.88l-.001-.496-.04-.5v-.498l-.04-.534-.04-.498-.038-.46-.078-.46-.075-.42-.116-.383-.192-.383-.153-.42-.152-.423-.114-.42-.117-.46-.115-.496-.077-.46-.042-.5-.036-.46-.035-.5z"/><path d="M21.488 3.293l.652-.382.612-.386.654-.34.686-.386.7-.382-.6.6-.614.617-.613.6-.612.576-.65.6-.652.537-.65.54-.688.497-.65.46-.7.382-.65.346-.687.27-.7.23-.688.115-.692.038-.7-.036.728-.42.73-.462 1.375-.843.65-.383.652-.422.616-.385.6-.42.653-.383.608-.384zm3.328-6.663l.345.457.383.422.346.46.343.46.346.46-.153-.496-.193-.5-.2-.537-.46-1.07-.265-.5-.3-.498-.346-.495-.382-.46-.46-.38-.498-.384-.537-.344-.612-.27-.653-.23-.764-.153-.805-.076.536.308.5.345.495.344.92.687.42.383.424.42.423.382.767.844z"/><path d="M26.842-4.293l.234 1.4.115.7.15.7.157.726.076-.84.113-.805.154-1.684.037-.806.038-.805-.04-.805-.04-.763-.076-.767-.117-.688-.194-.7-.23-.65-.268-.573-.384-.538-.422-.46-.497-.42.154.766.114.767.154.765.116.7.076.726.115.7.08.7.115.7.075.688.117.7zm-3.406-.42l.65.7.614.7.534.572.463.54.383.418-.077-1.147-.155-.995-.2-.844-.307-.764-.305-.65-.386-.574-.382-.535-.424-.5-.382-.496-.424-.496-.382-.538-.307-.613-.306-.688-.23-.766-.194-.92-.075-1.032-.693.648-.416.73-.2.765-.04.805.153.804.307.843.423.843.5.84.575.804.6.804z"/><path d="M27.26-9.195l.152-.7.193-.7.268-.7.228-.7.306-.7-1.1 1.074-.918 1.034-.65.96-.457.92-.308.88-.152.804-.037.806.077.727.196.7.186.65.27.614.27.533.23.537.228.46.153.46.078.383v-.805l.04-.765.034-.764.04-.768.036-.728.077-.727.076-.726.074-.692.117-.688.114-.728zM21.9 1.876l1.187-.078 1.76-.23-.498.23-.5.202-.535.232-.537.2-.574.194-1.176.306-.6.076-.613.04h-.65l-.65-.04-.655-.15-.65-.2-.65-.27-.65-.38-.654-.46.613.114.615.117 1.224.15.6.038.616.037H20.1l.613-.04h.574z"/><path d="M13.987 6.555l-.386.267-.342.307-.308.307-.304.306-.27.344.268-.917.422-.808.494-.687.616-.65.687-.537.768-.5.84-.42.88-.346L19.2 2.6l.955-.232.958-.23.957-.194.92-.2.843-.155.842-.192-.42.153-.574.306-.7.463-.84.497-.842.535-.88.5-.842.46-.768.308-.46.078-.418.075-.46.115-.457.116-.463.194-.456.15-.42.192-.46.23-.42.23-.42.266zm8.268-2.842l.884-.46.8-.42.767-.387.65-.343.496-.3-.532 1.113-.538.92-.573.728-.536.652-.575.498-.574.46-1.72 1.037-.578.382-.572.384-.536.46L18.58 9l-.535.7-.497.806-.498.995-.345-.88-.117-.843.116-.842.307-.766.457-.728.612-.727.727-.7.804-.615.843-.613.88-.536z"/><path d="M22.87 9.037l-.23.65-.2.7-.192.65-.153.7-.152.73-.384-1.455-.2-1.264-.04-1.15.115-.994.228-.844.346-.765.42-.653.458-.537.538-.5.535-.42.574-.345.537-.306.496-.306.46-.267.642-.577-.422.652-.42.652-.42.65-.38.613-.346.613-.345.65-.346.614-.304.613-.304.652-.268.65z"/></g></g><g transform="translate(-81.756 -256.435)" stroke="#231f20"><path d="M249.78 278.04c-13.56-1.867-63.613-4.393-85.943-8.05-17.96-2.937-35.502-8.285-52.242-13.9-4.328-1.453-12-4.434-16.896-7.07-3.104-2.373-10.57-5.9-12.606-9.222 32.45 15.407 45.513 19.65 83.582 27.354 15.435 3.17 71.617 7.72 84.105 10.9z" fill="#231f20" stroke-width=".596"/><g stroke-width=".254"><path d="M187.203 275.945l-1.035-1.148-.958-.957-.88-.763-.767-.5-.7-.227 1.188.074.7.077.688.074 1.38.155.7.038.612.076.957.88.92.84.805.842.73.844.727.8 1.34 1.568 1.38 1.455.73.65.767.65.88.6.92.577 1.035.535 1.15.496 1.302.42-1.454.498-1.418.118-1.417-.23-1.417-.574-1.38-.765-1.38-.995-1.305-1.145-1.3-1.226-1.227-1.26-1.15-1.267z" fill="url(#A)"/><path d="M192.873 277.815l-.92-1.032-.956-1.033-.96-1.033-.958-.955-.995-.88.38.037h.423l.384.04.842.074.42.078.42.036.42.04.42.037.46.037.422.078 1.378.1h.46l.46.04.346.535.42.652.537.764.576.805.7.88.73.88.766.918.805.88.844.844.84.804.885.726.842.612.844.496.842.346.804.2h.768l-1.688.27-1.57.038-1.455-.15-1.377-.345-1.265-.534-1.15-.653-1.15-.765-1.034-.88-1.035-.918-.957-.995z" fill="url(#B)"/><path d="M199.92 279.993L199 279l-.958-1.188-.997-1.3-1.034-1.416-1.074-1.608.65-.002.613.04.614.077.613.076.6.078.613.072h1.415l.617.612.573.65.576.614.574.688.575.65.536.7.576.65.54.7.572.65.574.65.613.65.577.614 1.953 1.72.73.5-.958.116-.92.076-.88-.037-.88-.153-.882-.2-.843-.344-.84-.42-.883-.574-.88-.65-.882-.764z" fill="url(#C)"/><path d="M203.787 277.96l-.805-.957-.767-.957-.73-.84-.7-.728-.614-.614 4.098.382.462.612.498.6.458.616.46.608.46.615.5.612.46.612.497.613.537.573.537.6.537.578.613.57.612.574.653.576.7.536.727.532-.727.387-.802.153-.806-.116-.842-.342-.844-.5-.88-.7-.88-.764-.884-.917-.84-.958-.884-.993z" fill="url(#D)"/><path d="M208.653 279.793l-.883-1.03-.843-1.1-.844-1.146-.805-1.15-.804-1.1.688.115.536.037.384.038.688.078.345-.001.5.037.652.037.728 1.034.727.955.728.92.805.804.767.726.766.7.804.6.767.536.766.458.768.42.726.306.7.268.7.23.614.152.613.075.537.038-1.2.767-1.1.5-1.1.232h-1.075l-1.033-.192-.995-.343-.955-.538-.96-.686-.92-.84-.923-.88z" fill="url(#E)"/><path d="M212.097 279.104l-.803-.803-.766-.842-.73-.918-.73-.96-.7-.994.767.04.843.074.802.076.806.038.7.078.574.035.42.04.192.037.076.078.2.2.308.306.382.385.422.46.536.536.577.573.648.615.732.608.763.65.768.616.843.6.88.572.88.535.92.46.92.38-1.227.153-1.186.08-1.15-.078-1.1-.15-1.036-.227-1.033-.344-.958-.422-.92-.535-.92-.573-.844-.65z" fill="url(#F)"/><path d="M217.192 278.87l-.844-.766-.806-.803-.766-.765-.7-.767-.65-.766h.46l.574.04.6.036h.65l.614.073.613.04.496.04.423.076v.077l.154.2.38.347.537.42.653.535.763.613.845.653.882.647.92.687.918.7.88.65.845.575.766.535.7.42.537.304.382.192-1.033.192-.998.076-1.033-.113-1.034-.2-1.035-.342-.994-.423-.996-.497-.998-.6-.92-.65-.918-.7z" fill="url(#G)"/><path d="M220.906 277.988l-1-.843-.88-.688-.65-.574-.423-.38-.192-.154.498.038.538.036.574.037.572.04.615.072 1.224.08.653.038.688.42.688.422.693.456.65.425.7.456.653.498.688.46.653.46 1.35.956.688.46.652.458 1.38.843.652.42.7.384-.612.612-.806.267-.996.001-1.1-.266-1.227-.46-1.26-.646-1.34-.768-1.305-.84-1.302-.92-1.226-.916z" fill="url(#H)"/><path d="M228.947 280l-1.072-.728-1.187-.803-1.264-.88-1.38-.918-1.534-.957.653.04.727.04.65-.001.65.038.575.037.46.038.306.04.116.036.078.115.23.23.346.307.458.42.574.497.653.577.7.57 1.6 1.225.843.612.843.534.882.537.84.457.842.383.805.267.73.154-.652.23-.65.116-.65.037-.653-.1-.65-.194-.7-.265-.727-.382-.767-.46-.843-.535-.88-.613z" fill="url(#I)"/><path d="M229.1 278.326l-.728-.7-.653-.573-.495-.5-.383-.34-.233-.233.614.038.577.04.57.037.575.075.535.04.578.037.6.074.613.038.46.42.5.42.458.42.5.46.498.498.497.46.536.46.54.458 1.07.844.577.38.534.343.614.3.575.265.613.194.613.152-.88.344-.958.152-.998-.072-1.033-.268-1.072-.382-1.033-.498-1.075-.6-.996-.7-.958-.7-.92-.727z" fill="url(#J)"/><path d="M234.883 279.545l-1.455-1.3-.7-.7-.7-.65-.7-.615.422.04.46.076 1.032.076.576.075.612.04.652.074.613.037.192.46.267.46.27.422.346.422.38.382.844.763.497.306.5.307.537.268.573.268.576.2.612.154.6.15.653.076.65.04-.764.535-.763.345-.766.154-.767.04-.768-.15-.765-.233-.766-.342-.765-.458-.73-.498-.766-.612z" fill="url(#K)"/><path d="M238.023 279.62l-.614-.495-.536-.538-.46-.572-.345-.652-.23-.652.46.04.46.037.497.076.995.076.537.038.574.04.653.036.268.384.307.383.306.345.305.306.307.305.347.23.343.27.347.23.38.2.842.4.46.155.46.152.496.152.537.115.54.155-.653.265-.7.194-.726.115-.805.001-.767-.038-.842-.115-.804-.23-.803-.228-.768-.344-.728-.384z" fill="url(#L)"/><path d="M242.197 279.273l-.537-.384-.537-.42-.458-.46-.345-.46-.306-.498.65.078.383.038.346.037.65.076h.536v.154l.344.304.576.422.767.498 1.838.995.92.38.806.23-.23.23-.347.152-.42.08h-.46l-.536-.038-.573-.113-.614-.193-.612-.2-.613-.27-.614-.307z" fill="url(#M)"/><path d="M243.92 278.393l-.46-.347-.42-.307-.307-.23-.2-.153-.038-.076 2.986.34.23.152.386.193.458.23.5.23.535.268.497.2.46.192.383.114-.078.537-.192.343-.305.156-.42.076-.5-.075-.574-.193-.573-.228-.614-.306-.614-.346-.574-.38z" fill="url(#N)"/><path d="M249.32 279.114l-.537.001-.7-.2-.7-.347-.728-.382-.652-.344-.536-.23.652.04.574.04.536.036.498.037.46.04.497.037.498.077.577.114-.117.73z" fill="url(#O)"/><path d="M249.55 276.74l-.537-.192-.727-.034-.765.15-.766.193-.65.23-.5.154.653.112.573.077.497.114.5.075.458.114.46.116.537.116.574.153.04-.844z" fill="url(#P)"/><path d="M191.142 265.45l-1.075.996-1.07.957-1.07.92-1.073.882-1.1.807.384.073.42.038.42.04.383.076.422.04.42.038.46.037.42.04.422.035.46.04.458.076.883.077.457.074.498.037.46.078.382-.535.495-.653.576-.766.688-.767.727-.843.805-.843.88-.843.88-.806.96-.766.954-.687.957-.615.997-.497.957-.385.958-.23.956-.04.88.153-1.684-.652-1.6-.42-1.5-.113-1.417.076-1.38.3-1.262.46-1.227.652-1.186.73-1.15.844-1.1.92z" fill="url(#Q)"/><path d="M198.453 264.523l-1.033.96-1.108 1.1-1.1 1.265-1.185 1.418-1.264 1.57.7.04.612.072.576.04 1.07.152.573.077.654.113.764.117.7-.574.65-.613.7-.654.612-.653 1.3-1.3.613-.653.65-.652.652-.612.687-.574.652-.576.688-.575.727-.498.766-.422.766-.42.805-.347-.96-.345-.92-.226-.878-.153-.923-.077-.878.077-.92.193-.88.267-.92.423-.956.537-.96.692z" fill="url(#R)"/><path d="M201.712 267.5l-.92.958-.84.88-.84.804-.73.692-.7.574 4.176.496.536-.613.536-.615.5-.614.533-.6.537-.613.534-.652.573-.614.535-.576.614-.574.612-.574.652-.538.688-.498.727-.497.766-.423.804-.382.842-.346-.726-.612-.808-.306-.88-.074-.88.2-.958.383-.956.538-.995.688-.996.805-.996.88-.993.92z" fill="url(#S)"/><path d="M206.65 266.5l-1.877 2.03-2.753 3.333.73.04.6.035.498.04.46.076.458.077.5.075.572.078.692.112.803-1.034.765-.92.803-.844.766-.727.8-.612.766-.54.728-.46.767-.382.728-.3.688-.23.728-.193.7-.152.65-.08.653-.074h.65l.613-.002-1.15-1.112-1.1-.8-1.073-.535-1.073-.306-1.072-.037-1.034.154-1.033.385-.996.498-.994.7-.956.804z" fill="url(#T)"/><path d="M210.786 268.113l-.878.7-.882.767-.84.842-.806.922-.803.996.803.115.92.112 1.842.23.84.113.65.08.5.037.2-.002.075-.076.193-.153.268-.267.343-.346.423-.42.495-.424.575-.496.65-.538.727-.5.765-.536.844-.5.918-.495.92-.424.993-.383 1.034-.348 1.073-.228-1.266-.46-1.187-.344-1.187-.2-1.1-.077h-1.1l-1.072.155-1.035.23-.996.347-.995.42-.92.537z" fill="url(#U)"/><path d="M216.57 269.526l-.994.652-.882.693-.88.727-.8.727-.726.73.495.037.613.076.7.075 1.456.153.652.076.574.037h.422v-.077l.192-.192.38-.267.574-.385.7-.42.805-.5.92-.537.956-.533.955-.54.996-.538 1.914-.954.846-.386.762-.307.616-.193.495-.116-1.034-.418-1.035-.306-1.1-.115-1.073.001-1.1.118-1.1.228-1.072.346-1.1.422-1.033.498-1.034.537z" fill="url(#V)"/><path d="M220.593 271.287l-1.15.727-.954.615-.73.46-.496.342-.23.117.537.116.6.077.653.073.7.04.727.078.73.074 1.377.23.73-.345.687-.348.73-.38.687-.385.7-.345.688-.383.728-.384.688-.382.7-.35.687-.382.73-.343.688-.307.7-.347.726-.305.727-.3.728-.266-.537-.842-.804-.498-.996-.187h-1.148l-1.264.267-1.38.422-1.455.576-1.415.652-1.455.73-1.34.766z" fill="url(#W)"/><path d="M229.172 272.62l-.804.536-.726.5-.575.46-.42.306-.23.193.612.074.574.078.496.076.5.037.536.037.496.076.576.076.6.075.537-.342.537-.348.574-.42.574-.383.6-.42.614-.42.612-.423 1.226-.767.648-.307.652-.305.614-.233.648-.2.615-.117h.612l.612.037-.844-.6-.956-.346-.996-.15h-1.07l-1.114.2-1.148.348-1.1.42-1.1.5-2.067 1.15z" fill="url(#X)"/><path d="M229.285 270.666l-1.147.614-1.265.65-1.378.692-1.5.765-1.65.767.614.04.7.074.7.078.7.112.613.078.457.078.346.035.153-.035.076-.08.27-.2.345-.3.46-.344.573-.422.7-.46.728-.5.803-.5.88-.498.882-.497.955-.424.957-.384.96-.304.957-.196.92-.112.92-.001-.654-.422-.687-.305-.653-.154-.688-.075-.7.038-.727.152-.807.27-.838.308-.92.423-.96.46z" fill="url(#Y)"/><path d="M234.955 272.384l-.843.54-.842.536-.803.574-.805.578-.803.496.46.077.498.038.575.116.613.072.65.08.7.073.65.08.653.075.23-.497.27-.422.304-.422.384-.383.383-.344.42-.27.5-.27.497-.23.536-.2.572-.155.576-.114.613-.08.65-.037.652.001 1.34.15-.7-.766-.726-.574-.73-.382-.766-.23-.766-.037-.804.076-.844.192-.804.27-.84.422-.805.42z" fill="url(#Z)"/><path d="M242.46 274.408l-.6.27-.577.307-.534.383-.422.422-.38.46.342.076.422.076.42.077.423.074.382.037.307.04h.306l.153-.078.38-.23.653-.306.765-.343.88-.3.995-.268.957-.155.96.037-.193-.306-.306-.268-.422-.227-.46-.155-.536-.114-.612-.036-.613.001-.7.037-.65.114-.7.156z" fill="url(#a)"/><path d="M244.1 275.863l-.535.23-.46.23-.383.155-.2.152-.078.036 3.065.533.27-.112.42-.117.46-.154.537-.154.536-.115.535-.074.498-.001.422.074.036-.6-.152-.46-.27-.307-.42-.2-.497-.08-.575.04-.613.077-.7.154-.65.23-.65.232z" fill="url(#b)"/><path d="M238.248 273.072l-.7.383-.65.46-.536.535-.42.613-.344.7.5.04.457.077.5.036.537.076.535.08.574.037.612.115.65.072.23-.34.268-.307.306-.268.343-.27.383-.23.42-.23.423-.193.46-.15.46-.154.497-.116.46-.076.5-.04.497-.037.496-.001.5.038.46.075-.612-.498-.652-.382-.728-.342-.805-.232-.806-.153-.802-.1-.844.001-.84.072-.804.156-.803.27z" fill="url(#c)"/><path d="M107.77 263.37l.193.842.422.768.65.686.92.535 1.2.384-.194-.578-.117-.6-.113-.612-.076-.7-.04-.7v-.725l.038-.7.037-.728.076-.73.074-.724.116-.7.153-.65.113-.652.154-.575.2-.574.155-.498-.2-.075-.155-.04-.2-.076-.156-.037-.154-.077-.15-.04-.192-.078-.2-.076-.077.117-.193.307-.266.497-.344.613-.386.727-.38.805-.346.92-.303.918-.227.96-.08.92z" fill="url(#d)"/><path d="M112.907 268.804l.495.266.54.192.46.076.42.037h.384l-.46-1.226-.192-.688-.155-.7-.152-.766-.118-.764-.116-.766-.075-.803-.042-.806v-.843l.04-.803.073-.843.114-.804.155-.843.2-.765.23-.805-.457-.154-.463-.152-.422-.153-.417-.115-.348-.113-.38-.116-.306-.076-.27-.077-.534 2.108-.382 1.915-.2 1.646-.037 1.455.077 1.264.23 1.072.306.92.347.764.46.613.497.496z" fill="url(#e)"/><path d="M115.437 269.566l.572.766.73.574.84.304.96.04 1.108-.307-.42-.7-.42-.727-.347-.765-.307-.727-.23-.803-.232-.767-.152-.805-.154-.804-.077-.804-.038-.84v-.805l.073-.842.076-.84.152-.806.153-.845.23-.802-.383-.153-.92-.305-.46-.154-.46-.15-.38-.153-.346-.118-.267-.074-.23.765-.227.96-.155 1.073-.072 1.186-.04 1.302.002 1.3.116 1.3.192 1.266.272 1.187.345 1.1z" fill="url(#f)"/><path d="M117.422 264.587l-.078-1.302-.001-1.3.114-1.302.23-1.265.342-1.188.422.152.425.154.456.114.463.153.458.154.497.153.46.153.497.152v.804l.001.88.04 1 .078 2.066.038 1.072.116 1.1.114 1.032.156 1.035.152.957.234.92.267.806.308.686.384.577.42.42.46.267-1.037.08-.997-.154-.88-.38-.804-.535-.766-.73-.652-.88-.536-.994-.5-1.1-.384-1.188-.3-1.265z" fill="url(#g)"/><path d="M124.85 262.014l.04.92.038.958.002 2 .08 2.03.076.997.115.994.194.92.2.844.305.802.345.726.422.617.536.496-1.108-.268-.92-.383-.767-.533-.65-.614-.537-.73-.423-.84-.306-.92-.232-.96-.156-1.072-.113-1.1-.08-2.375-.076-2.488-.001-1.264-.078-1.303.384.153.383.115.342.115.386.077.382.114.347.114.384.116.38.153.078.766z" fill="url(#h)"/><path d="M124.93 266.418l-.003-3.8-.076-1.15-.08-1.072.42.114.383.114.343.117.387.113.382.114.342.115.384.077.423.114-.04.113-.075.27-.078.423-.115.537-.074.687-.078.768-.04.88.04.996.114 1.035.195 1.145.347 1.2.42 1.225.614 1.264.766 1.34.92 1.3 1.15 1.34-1.53-.074-1.304-.305-1.07-.497-.882-.65-.7-.842-.502-.958-.42-1.072-.27-1.187-.154-1.226-.114-1.26z" fill="url(#i)"/><path d="M127.88 268.712l-.3-1.5-.192-1.496-.04-1.532.152-1.454.308-1.456 3.638 1.147-.038.613-.037.728.038.8.08.92.113.958.192 1.034.193 1.073.307 1.1.347 1.1.42 1.074.46 1.07.575 1.035.612.995.73.92.804.84.883.726-1.035.192-1.035-.073-.995-.346-.996-.537-.956-.725-.92-.88-.844-1.07-.77-1.187-.65-1.265-.576-1.378z" fill="url(#j)"/><path d="M137.263 265.87l.075.96.038.995.117.995.077 1.037.116.995.153.996.2.956.233.92.308.916.344.84.422.807.498.688.536.65.65.576-.766.114-.803-.038-.804-.2-.804-.343-.804-.5-.807-.612-.767-.763-.766-.958-.7-1.034-.612-1.227-.578-1.34-.495-1.528-.388-1.65-.306-1.758-.194-1.955-.078-2.067.574.2.728.2.807.268.84.228.805.27.804.227.7.2.538.115.076.88z" fill="url(#k)"/><path d="M137.57 269.895l-.117-1.302-.038-1.303-.078-1.187-.075-1.1-.117-.995.535.114.463.116.42.153.417.112.463.117.422.112.496.154.577.15.116 1.038.112.993.116.996.157.955.116.96.153.918.2.88.195.88.268.844.308.84.382.805.422.805.536.8.576.767.7.727.77.726-1.725.08-1.455-.154-1.264-.418-.998-.654-.84-.8-.692-.958-.497-1.073-.385-1.223-.308-1.225-.2-1.343z" fill="url(#l)"/><path d="M141.707 270.77l-.194-1.3-.2-1.226-.116-1.15-.116-1.074-.08-.918.54.117.46.112.42.115.423.077.38.114.425.074.495.152.577.115.192 1.497.23 1.417.27 1.3.27 1.226.3 1.1.345 1.072.383.92.383.882.383.803.425.727.46.613.422.573.46.536.46.42.498.383.46.345-1.532.078-1.34-.192-1.188-.418-1.036-.65-.88-.805-.765-.957-.616-1.107-.537-1.188-.458-1.226-.346-1.3z" fill="url(#m)"/><path d="M145.767 271.572l-.308-1.26-.27-1.2-.192-1.15-.152-1.032-.156-.92.46.076.46.116.462.114.922.23.458.112.46.114.497.117.038.725.117.805.153.842.268.918.27.996.382.957.385 1.033.42.998.5.996.538.957.534.88.577.84.574.805.614.7.65.572.617.46-1.457.078-1.302-.2-1.15-.424-1.07-.6-.88-.802-.805-.92-.7-1.072-.615-1.146-.535-1.2-.422-1.263z" fill="url(#n)"/><path d="M149.327 271.147l-.384-1.26-.23-1.074-.192-.88-.115-.65-.001-.38.574.112.537.115.535.152.536.116.536.152.5.113.497.115.5.08.192.65.43 1.643.272.997.308 1.035.342 1.07.384 1.07.424 1.115.46 1.07.497.995.537.96.574.842.654.724.65.575.728.42.764.23-1.5.193-1.38-.2-1.264-.496-1.15-.766-1.073-.955-.92-1.148-.84-1.3-.77-1.34-.614-1.415-.537-1.38z" fill="url(#o)"/><path d="M154.077 272.983l-.385-1.226-.306-1.148-.232-1.035-.23-.918-.2-.726.42.076.423.038.38.075.347.076.384.076.345.08.305.074.345.04.118.88.2.92.233.917.227.882.3.918.346.88.382.844.92 1.684.537.803.616.765.6.7.73.7.727.6.806.574.88.536-1.377.306-1.223.001-1.113-.266-1.035-.536-.88-.728-.805-.88-.727-1.068-.652-1.15-.54-1.225-.498-1.26z" fill="url(#p)"/><path d="M157.678 275.047l-.574-1.186-.46-1.263-.385-1.34-.347-1.38-.23-1.414.498.113.5.076.536.116.496.074.497.078.46.112.5.077.46.116.23.804.192.842.23.805.195.802.23.804.228.804.306.766.346.803.42.767.463.803.576.765.687.766.768.728.918.765 1.073.766 1.188.725-1.148.002-1.112-.115-1.07-.268-1.037-.383-.957-.534-.958-.65-.842-.763-.84-.842-.73-.96-.7-1.032z" fill="url(#q)"/><path d="M161.774 275.887l-.573-1.222-.496-1.304-.425-1.34-.306-1.376-.234-1.38.423.076.46.117.917.15.46.08.5.114.497.076.5.115.152.955.23.957.3.96.383.917.457.918.502.918.574.882.65.843.7.844.767.76.808.727.878.7.92.612.995.575.998.497 1.072.42-1.495.118-1.454-.076-1.34-.23-1.266-.38-1.186-.498-1.113-.65-1.033-.768-.918-.917-.844-.955-.766-1.073z" fill="url(#r)"/><path d="M165.72 276.074l-.65-1.1-.536-1.184-.46-1.225-.347-1.267-.23-1.3.42.074.385.038.346.04.342.04.346.037.382.077.458.075.54.075.537 1.113.46 1.03.882 1.916.46.88.424.804.46.764.498.727.537.728.613.65.688.7.765.6.884.65.996.6 1.108.612 1.265.6-1.264-.075-1.225-.2-1.228-.306-1.185-.458-1.113-.536-1.1-.648-1.034-.73-.958-.84-.88-.917-.843-.994z" fill="url(#s)"/><path d="M169.626 276.38l-.688-1.2-.652-1.183-.577-1.187-.538-1.226-.496-1.187.343.036.46.078.573.077.575.076.613.115.537.076.456.076.347.036.46 1.074.5 1.074.577.994.573.955.653.88.688.88.73.804.803.806.804.727.885.687.917.7.96.613.995.572 1.072.536 1.073.496 1.15.46-1.877.077-1.763-.073-1.57-.267-1.455-.422-1.34-.572-1.186-.692-1.114-.8-.993-.92-.92-.993-.844-1.073z" fill="url(#t)"/><path d="M174.567 277.297l-1-1.15-.88-1.187-.803-1.262-.692-1.34-.576-1.38.575.08.576.074.6.037.612.077.536.037.46.077.382.077.192.115.7.535.7.575 1.457 1.376.727.766.767.8.766.844.768.845.765.88 1.6 1.683.844.84.842.843.845.763.842.767.882.688-1.035-.037-1.07-.153-1.15-.268-1.186-.42-1.188-.495-1.2-.613-1.187-.726-1.187-.803-1.15-.918-1.1-.957z" fill="url(#u)"/><path d="M180.694 277.48l-1.188-1.298-1.188-1.264-1.225-1.264-1.228-1.148-1.225-1.03h.424l.495.074.576.038.573.116.614.076.613.114.572.115.5.075 1.913 1.76.923.92.92.92.88.916 1.762 1.84 1.7 1.68.842.768.804.687.804.614.805.535.766.46.766.342.766.23-.997.654-1.032.268-1.034.001-1.073-.268-1.072-.536-1.073-.728-1.1-.916-1.1-1.034-2.26-2.412z" fill="url(#v)"/><path d="M184.026 277.018l-1.918-2.14-.994-1.034-1.035-.957-1.072-.918.382.04.458.037.577.074.572.04.577.073.46.038.382.04h.23l.65.15.65.306.65.422.692.574.7.686.728.805.766.844.768.915.88.958.883.955.997.996 1.032.96 1.112.955 1.188.88 1.264.802 1.38.728-1.573.001-1.492-.15-1.342-.385-1.303-.494-1.187-.615-1.1-.764-1.075-.84-.996-.92-.997-.994-.956-1.033z" fill="url(#w)"/><path d="M112.695 243.604l.573-.727.654-.537.843-.307 1.034-.04 1.185.306-.384.384-.343.46-.345.574-.306.613-.304.7-.27.7-.263.767-.27.803-.227.767-.2.806-.194.802-.2.766-.155.768-.152.726-.115.65-.113.614-.2-.037-.155-.037-.2-.08-.155-.037-.152-.08-.155-.075-.192-.037-.226-.078v-.154l-.04-.42-.038-.65-.04-.807-.04-.957.075-2.105.1-1.1.23-1.034.308-.996z" fill="url(#x)"/><path d="M118.863 241.53l.42.078.42.153.382.2.348.23.305.23-.536.497-.533.573-.462.538-.494.612-.424.615-.422.648-.382.653-.343.7-.344.727-.612 1.533-.268.805-.227.84-.23.842-.227.882-.194.92-.457-.077-.345-.036-.232-.077-.153-.078-.152-.037-.156-.076-.153-.04-.23-.075.497-2.5.535-2.1.535-1.8.533-1.493.54-1.188.534-.958.533-.7.5-.497.536-.346.458-.154z" fill="url(#y)"/><path d="M120.737 242.413l.842-.425.88-.152.882.152.842.5.88.878-.688.498-.65.576-.614.575-.574.576-.574.6-.496.7-.46.7-.42.688-.423.768-.343.767-.345.804-.266.842-.267.88-.193.92-.2.96-.155.994-.416-.114-.46-.152-.5-.154-.498-.2-.46-.2-.42-.154-.343-.15-.23-.077.113-.918.195-1.036.304-1.15.38-1.226.5-1.263.572-1.227.6-1.186.688-1.112.73-.996.765-.843z" fill="url(#z)"/><path d="M120.512 248.5l-.573 1.226-.496 1.304-.383 1.376-.306 1.38-.15 1.416.46.115.46.117.46.15.46.154.497.192.5.113.457.154.498.075.345-.88.305-.96.383-.957.347-.957.38-.997.42-.998.423-.956.42-.918.456-.883.5-.805.533-.766.54-.65.6-.575.615-.46.648-.346.7-.2-.92-.613-.92-.343-.957-.116-.92.116-.958.306-.92.5-.882.7-.843.804-.76.92-.766 1.073z" fill="url(#AA)"/><path d="M124.6 250.605l-.457 1.225-.457 1.264-.42 1.263-.46 1.188-.497 1.1.42.037.384.116.383.113.385.152.38.118.384.152.42.114.422.074.038-.15.038-.383.114-.498.115-.7.2-.803.27-.92.305-.996.42-1.034.494-1.035.575-1.035.727-1.035.803-.958.96-.918 1.07-.766 1.228-.692 1.375-.5-1.455-.648-1.302-.344-1.15-.038-1.034.193-.92.42-.805.65-.724.806-.65.957-.576 1.072-.495 1.188z" fill="url(#AB)"/><path d="M128.173 250.064l-.805 1.342-.686 1.416-.537 1.533-.342 1.57-.2 1.686 3.946 1.03.227-.65.307-.77.305-.803.382-.88.46-.92.457-.956.537-.96.574-.956.652-.957.725-.92.765-.842.803-.807.878-.728.96-.613.996-.537 1.07-.42-.882-.65-.997-.42-1.07-.154-1.072.04-1.15.23-1.148.46-1.1.615-1.1.768-1.07.956-.997 1.075z" fill="url(#AC)"/><path d="M135.837 258.33l.422-.996.42-1.036.42-1.032.458-.997.498-.996.497-.997.533-.918.573-.844.614-.804.652-.727.65-.652.728-.537.803-.423.804-.306-.692-.46-.764-.343-.806-.23-.88-.075-.918.076-.96.232-.957.382-.993.577-1 .727-.993.92-.995 1.15-.954 1.304-.92 1.532-.917 1.723-.843 1.992-.8 2.184.572.115.726.152.73.23.807.23.764.267.73.2.65.2.536.152.382-.957z" fill="url(#AD)"/><path d="M137.673 254.348l-.534 1.34-.536 1.3-.5 1.265-.458 1.148-.456 1.036.535.076.46.112.42.08.422.114.42.115.46.115.498.076.573.112.5-1.033.458-1.036.46-.994.916-1.916.496-.88.5-.88.495-.806.575-.806.6-.727.613-.687.688-.653.77-.615.8-.536.92-.498.956-.46-1.57-.84-1.415-.498-1.304-.114-1.186.193-1.032.458-.997.692-.84.882-.805 1.074-.688 1.187-.65 1.265z" fill="url(#AE)"/><path d="M141.772 255.607l-.652 1.264-.6 1.266-.537 1.148-.455 1.1-.423.958.574.113.5.115.46.113.42.076.458.116.46.115.536.076.613.115.7-1.533.688-1.417.647-1.302.65-1.188.614-1.07.573-.96.6-.84.574-.807.612-.65.614-.575.6-.498.65-.42.654-.308.684-.268.732-.156.764-.113-1.42-.765-1.338-.382-1.265-.076-1.225.192-1.1.46-1.07.7-.996.844-.92.998-.84 1.15-.802 1.187z" fill="url(#AF)"/><path d="M145.717 256.713l-.613 1.187-.6 1.2-.5 1.15-.456 1.033-.42.96.46.114.42.113.424.076.383.116.42.078.42.075.46.113.497.077.23-.765.342-.844.42-.842.497-.92.535-.92 1.3-1.84.727-.92.765-.84.805-.846.802-.766.804-.652.843-.613.805-.498.8-.383.806-.23-1.378-.65-1.307-.308-1.22.001-1.2.234-1.07.458-1.033.654-.956.844-.92.957-.802 1.072-.766 1.148z" fill="url(#AG)"/><path d="M148.554 258.934l-.65 1.186-.536 1.036-.422.88-.23.653-.113.382.574.116.498.113.998.23.496.116.46.074.5.077.497.076.344-.65.384-.804.458-.882.537-.92.57-1.033.614-1.034.647-.997.7-1.034.727-.96.766-.88.802-.804.803-.652.844-.537.843-.345.878-.152.882.035-1.417-.762-1.38-.345-1.38.04-1.3.385-1.264.612-1.226.88-1.15 1.038-1.07 1.148-.995 1.228-.88 1.264z" fill="url(#AH)"/><path d="M153.414 258.777l-.686 1.225-1.1 2.224-.42.918-.383.765.46.077.382.115.344.115.308.113.346.114.305.116.308.078.342.073.344-.955.42-.958.422-.92.46-.918.537-.92.53-.844.614-.843.65-.805.7-.767.764-.688.765-.614.843-.575.92-.5.92-.42.996-.307 1.072-.23-1.266-.84-1.224-.46-1.15-.114-1.15.2-1.072.46-1.033.692-.958.842-.915 1.035-.844 1.113-.804 1.184z" fill="url(#AI)"/><path d="M157.13 258.123l-.842 1.112-.802 1.226-.7 1.34-.7 1.418-.57 1.5.993.153.5.116.497.153.496.115.498.153.498.116.5.074.342-.842.343-.882.347-.843.342-.882.42-.842.42-.805.5-.842.535-.766.65-.73.688-.727.805-.653.88-.613.996-.537 1.1-.498 1.26-.424 1.38-.344-1.113-.422-1.1-.265-1.148-.077-1.074.078-1.1.23-1.032.345-1.034.536-1.034.652-.956.768-.918.92z" fill="url(#AJ)"/><path d="M160.996 258.924l-.84 1.15-.763 1.264-.653 1.34-.6 1.38-.535 1.5.46.077.46.076.536.078 1.034.153.538.074 1.07.152.27-1.072.383-.994.42-.996.533-.96.575-.88.65-.843.7-.805.766-.73.84-.7.916-.574.96-.54.995-.46 1.072-.346 1.112-.306 1.147-.192 1.188-.078-1.455-.6-1.457-.385-1.34-.2-1.34-.037-1.264.2-1.226.346-1.147.498-1.112.652-.992.805-.994.92z" fill="url(#AK)"/><path d="M164.598 260.185l-.803 1.034-.7 1.15-.6 1.226-.5 1.34-.38 1.418.46.036.383.038.382.077.384.077.383.074.382.078.46.115.496.076.652-1.112.613-1.073.532-.958.5-.956.535-.844.498-.803.497-.767.573-.7.612-.652.688-.575.768-.535.842-.498.995-.425 1.07-.383 1.264-.345L177 256l-1.302-.2-1.26-.114-1.263.04-1.228.155-1.223.306-1.15.385-1.1.498-1.073.613-.995.73-.955.844z" fill="url(#AL)"/><path d="M168.428 261.102l-.802 1.112-.728 1.147-.688 1.227-.612 1.225-.612 1.265.307.037.42.037.46.116.5.076.496.115.462.114.42.036.346.04.57-1.148.613-1.035.7-.996.725-.918.766-.883.804-.806.88-.725.92-.7.956-.616.996-.573 1.035-.498 1.07-.498 1.1-.423 1.148-.383 1.2-.346 1.222-.308-1.914-.457-1.8-.268-1.647-.075-1.53.154-1.417.307-1.302.46-1.186.573-1.074.77-1.03.84-.917.96z" fill="url(#AM)"/><path d="M173.18 261.442l-1.148 1.036-1.035 1.15-.956 1.225-.84 1.34-.727 1.455.537.04.533.076.538.115.536.113.46.113.385.118.306.036.2-.037.77-.46.762-.537.804-.614.843-.7.843-.73.877-.767.92-.768.916-.802.96-.805.956-.807.996-.803.996-.73 1.033-.73.995-.652 1.07-.613 1.032-.537-1.07-.2-1.113-.037-1.225.038-1.262.193-1.267.27-1.3.384-1.303.497-1.3.614-1.3.73-1.224.844z" fill="url(#AN)"/><path d="M178.77 262.855l-1.34 1.188-1.377 1.188-1.377 1.113-1.376 1.035-1.38.92.42.074.5.037.612.04.613.037.65.037h1.227l.498-.002 1.034-.765 2-1.612.918-.84.92-.805.883-.807.878-.804.88-.767.918-.688.88-.652.92-.575.956-.5.996-.422 1.035-.345 1.073-.192 1.1-.117-.958-.955-1.034-.572-1.074-.23-1.1.077-1.148.308-1.225.575-1.226.77-1.3.878-2.642 2.185z" fill="url(#AO)"/><path d="M181.68 264.308l-1.112.996-1.1.958-1.107.96-1.2.842-1.185.807.38.037.498.075.577.08.576.036.572.08.5.072.38.04.23.037.688-.002.7-.2.727-.348.765-.496.766-.614.843-.728.88-.806 1.878-1.725 1.03-.918 1.1-.882 1.15-.844 1.26-.807 1.302-.728 1.38-.65 1.494-.5-1.6-.38-1.493-.152-1.415.076-1.343.27-1.262.46-1.225.575-1.186.73-1.148.805-2.22 1.84z" fill="url(#AP)"/><path d="M184.86 266.337l-1.148.993-1.033.844-.956.65-.843.385-.726.116.6.077.653.114.727.113.764.117.767.074.766.116.728.038.652.037 1.07-.806.958-.766.878-.766.84-.728.767-.73.726-.727.767-.7.726-.65.728-.613.804-.576.84-.537.92-.496.996-.46 1.07-.383 1.226-.348 1.34-.306-1.417-.805-1.495-.342H196.1l-1.5.3-1.495.576-1.494.804-1.454.96-1.415 1.034-1.34 1.15-1.302 1.15z" fill="url(#AQ)"/><path d="M106.684 239.702l.035-.46.036-.46.08-.457.112-.46.115-.42-.612.804-.46.882-.345.842-.2.88-.076.918v.92l.116.918.194.92.228.918.3.883.685 1.76.385.843.347.84.345.765.343.767-.074-.153-.037-.268-.042-.266v-.345l-.037-.423v-.88l-.001-.496-.04-.5v-.498l-.04-.535-.04-.498-.038-.46-.078-.46-.075-.42-.116-.383-.192-.383-.153-.42-.152-.423-.114-.42-.117-.46-.115-.496-.077-.46-.042-.5-.036-.46-.035-.498z" fill="url(#AR)"/><path d="M103.284 256.096l.653-.382.6-.386.654-.342.686-.385.7-.382-.6.6-.613.616-.614.612-.612.576-.65.6-.652.536-.65.54-.688.497-.65.46-.7.383-.65.346-.687.268-.7.23-.688.115-.692.037-.7-.035.728-.422.73-.462.686-.42.7-.42.65-.383.652-.422.616-.385.6-.42.653-.384.608-.383z" fill="url(#AS)"/><path d="M106.612 249.432l.345.457.383.422.346.46.343.46.346.46-.153-.497-.193-.5-.2-.537-.46-1.07-.265-.5-.3-.498-.346-.495-.382-.46-.46-.38-.498-.385-.537-.344-.612-.268-.653-.23-.764-.152-.805-.076.536.307.5.345.495.345.46.344.46.342.42.383.424.42.423.383.767.844z" fill="url(#AT)"/><path d="M108.638 248.5l.118.7.23 1.4.15.7.157.726.076-.842.113-.804.078-.843.076-.84.037-.807.038-.804-.04-.805-.04-.764-.076-.766-.117-.7-.194-.7-.228-.652-.27-.573-.384-.537-.422-.46-.497-.42.154.767.114.766.154.766.116.7.076.726.115.7.08.7.115.7.075.7.117.7z" fill="url(#AU)"/><path d="M105.232 248.1l.65.7.614.7.534.572.463.54.383.418-.077-1.147-.154-.996-.192-.843-.307-.764-.305-.65-.386-.575-.382-.535-.424-.5-.382-.496-.424-.495-.382-.538-.307-.613-.306-.7-.23-.765-.194-.92-.075-1.033-.693.65-.416.728-.2.766-.04.805.153.803.307.843.424.844.498.84.575.803.6.805z" fill="url(#AV)"/><path d="M109.057 243.607l.152-.7.193-.7.268-.7.228-.7.306-.7-1.1 1.073-.918 1.035-.65.96-.457.92-.308.88-.152.805-.037.806.077.726.196.7.186.65.27.613.27.534.23.537.228.46.153.46.078.383v-.805l.04-.765.034-.764.04-.768.036-.73.077-.726.076-.727.074-.7.117-.7.114-.727z" fill="url(#AW)"/><path d="M103.706 254.68l1.187-.078 1.187-.156.574-.075-.498.23-.498.192-.535.23-.537.2-.574.193-.576.152-.6.156-.6.076-.612.04h-.652l-.65-.04-.654-.15-.652-.192-.65-.27-.65-.38-.654-.46.613.114.615.116.6.076.613.075.6.038.616.037h1.188l.613-.04h.574z" fill="url(#AX)"/><path d="M95.783 259.357l-.386.268-.342.307-.308.306-.304.307-.27.344.268-.917.422-.808.494-.687.616-.652.687-.536.768-.5.84-.42.88-.347.92-.305.92-.307 1.913-.462.957-.193.92-.2.843-.154.842-.192-.42.153-.574.306-.7.463-.84.497-.843.535-.88.5-.842.46-.768.307-.46.08-.42.075-.46.115-.457.115-.463.195-.456.15-.42.2-.46.23-.42.23-.42.267z" fill="url(#AY)"/><path d="M104.05 256.516l.884-.46.8-.42.767-.387.65-.344.496-.308-.532 1.113-.538.92-.573.727-.536.653-.574.498-.575.46-1.148.7-.57.346-.578.382-.572.384-.536.46-.537.574-.535.7-.497.806-.498.995-.345-.88-.117-.844.116-.84.307-.766.457-.73.612-.726.727-.7.804-.614.843-.613.88-.536z" fill="url(#AZ)"/><path d="M104.667 261.84l-.23.65-.2.7-.192.65-.153.7-.152.73-.384-1.455-.2-1.265-.04-1.15.115-.994.23-.844.345-.766.42-.652.458-.537.538-.5.535-.42.574-.346.537-.305.496-.306.46-.268.342-.306.3-.272-.422.653-.42.652-.42.65-.38.614-.346.613-.345.65-.346.615-.304.613-.304.652-.268.65z" fill="url(#Aa)"/></g></g></g></svg>