<svg xmlns="http://www.w3.org/2000/svg" viewBox="9.28 -8.28 64 64" width="64" height="64"><g fill="#fefefe"><path d="M37.745 43.623c.005 0 .01.017.01.05l.017.7.105-.534c-.028-.336-.292-.165-.132-.204zM52.2 24.782c-.005.005-.017.005-.022.01.005.005.017.01.022.017-.005-.005 0-.017 0-.028z"/><path d="M43.094 1.654z"/></g><path d="M50.835 48.102l.132-2.402c.22-1.746.01-3.53.468-5.256.226-.892-.496-1.94.43-2.722l-.23-.76c-.26-.43-.127-.848.028-1.267-.017-1.532 0-3.063.275-4.578l.253-6.32c-.005-.005-.017-.01-.022-.017-4.5 2.066-8.743-.826-9.465-4.297-.474-2.28-.22-4.435 1.56-6.176.297-.292.55-.628.826-.948.727-4.36.2-8.36-3.504-11.476.556-.32 1.058-.138 1.5-.22-4.56-1.15-10.1 1.975-11.936 6.747-.55 1.432-.848 2.9-.755 4.446 4.53-2.1 8.6.408 9.707 4.226 1.162 3.972-1.934 8.176-6.05 8.236-1.2.017-2.34-.182-3.476-.518l.253 6.578c.16 1.438.33 2.87.26 4.32l.033 1.025-.033.683c.336 1.377.408 2.793.512 4.204a.78.78 0 0 1-.022-.11c.005.04.017.072.022.1l.347 7.195c.072.992-.286 1.487-1.2 1.74-1.08.303-2.143.667-3.212 1.008 1.432.198 2.843.22 4.253.187 1.526-.033 2.22-.7 2.37-2.226l.264-2.892.297-5.245h.215v4.986l.088 2.27c.22 3.52.325 3.498-3.184 4.2-.083.017-.154.066-.23.1l.628.42c.066.017.12.044.154.105.837.005 1.68.077 2.507 0 1.504-.143 2.215-.948 2.325-2.44.066-.96.165-1.917.248-2.876-.132-1.273.06-2.523.297-3.774l-.017-.7c0-.033-.01-.055-.01-.05-.16.04.105-.132.132.204l.088-.446v5.774l.05 2.027c.028 2.452-.127 2.672-2.463 3.372-.645.193-1.317.3-1.956.523-.463.16-1.052.072-1.487.617 1.9-.072 3.68.143 5.45-.143 1.83-.297 2.556-1.036 2.93-2.82.275-1.3.4-2.66.892-4 .072.143.127.2.143.286l.75 3.724c.342 1.735 1.047 2.474 2.8 2.782 1.824.314 3.67.1 5.56.143-.27-.463-.694-.386-1.036-.485-1.173-.342-2.37-.634-3.52-1.03-.837-.292-1.438-.826-1.427-1.857l.01-8.462H45l.358 5.3c.215 4.088.7 4.534 4.804 4.308.23-.386.8-.083 1.014-.496-.986-.005-1.846-.48-2.75-.782-.507-.17-.793-.628-.782-1.2.044-2.898-.066-5.807.325-8.694l.612 7.278c.088 1.135.6 2.022 1.8 2.1 1.6.1 3.223.028 4.837.028-.854-.43-1.73-.683-2.6-.96-1.972-.634-1.96-.64-1.78-2.644zM38.428 6.767a1.48 1.48 0 0 1-1.465 1.465c-.865.017-1.515-.48-1.532-1.603.094-.815.55-1.372 1.52-1.394 1.03-.017 1.493.678 1.476 1.532zm6.622 24.097c.005 2.23-1.702 4.176-3.653 4.17-1.84-.005-3.72-2.176-3.653-4.226l-.342-2.066c1.317.898 2.424 1.818 3.906 1.85 1.515.028 2.705-.75 3.945-1.658.264.727-.402 1.295-.204 1.928z" fill="#fe733e"/><path d="M31.095 35.7l-.32-.127c-1.5-.617-2.815-1.565-4.027-2.617-4.374-3.78-7.26-8.512-7.96-14.252-.793-6.523.667-12.545 5.02-17.718 3.972-4.716 9.035-7.465 15.08-8.1 6.716-.7 12.748 1.18 17.828 5.818 4.237 3.867 6.7 8.66 7.344 14.296.54 4.8-.325 9.437-2.793 13.652-2.242 3.83-5.228 6.936-9.267 8.903l-.33.16c-.154.42-.292.837-.028 1.267.094-.083.176-.187.286-.248 6.1-3.228 10.33-8.027 12.308-14.704.17-.567.435-.848 1.07-.782.86.088 1.1-.485 1.1-1.2l.005-8.242c0-.6-.143-1.24-.755-1.306-1.124-.132-1.262-.953-1.487-1.752C62.834 4.1 60.3.222 56.5-2.748c-7.768-6.1-16.296-7.2-25.243-3.08C24.616-2.77 20.38 2.536 18.463 9.637c-.12.44-.066.964-.815.8-1.07-.22-1.47.408-1.476 1.355l-.005 8.242c0 .915.463 1.4 1.344 1.184.8-.198 1.003.204 1.168.82.716 2.633 1.912 5.04 3.53 7.24 2.37 3.212 5.256 5.8 8.925 7.432l-.04-1.03z" fill="#b5d2f3"/><path d="M31.1 37.398c-.815 2.286-2.986 2.23-4.832 2.804 1.388.358 2.8.77 4.187.534.826-.143.986.154 1.107.645l.028.116.022.1c-.105-1.416-.176-2.826-.512-4.2z" fill="#fe684b"/><path d="M51.435 40.45c1.763.8 3.427-.005 5.13-.237-1.664-.705-3.818-.342-4.694-2.485-.93.782-.2 1.83-.435 2.722z" fill="#fe6446"/><path d="M37.965 43.38l-.088.446-.105.534c-.237 1.25-.43 2.5-.297 3.774.413.215.1.782.5 1.014V43.38z" fill="#fed6c8"/><path d="M34.73 41.365l-.297 5.245.512-.26v-4.986h-.215z" fill="#feebe3"/><path d="M29.553 53.452h2.843l-.154-.105-.628-.42c-.623-.033-1.207.105-2.06.523z" fill="#fe9166"/><path d="M50.168 53.452h2.766c-.562-.325-1.113-.6-1.752-.496-.215.42-.788.1-1.014.496z" fill="#fe8f64"/><path d="M52.003 35.54c4.038-1.96 7.02-5.068 9.267-8.903 2.468-4.215 3.333-8.853 2.793-13.652C63.43 7.345 60.96 2.552 56.72-1.3 51.64-5.943 45.607-7.827 38.9-7.122c-6.038.628-11.107 3.383-15.08 8.1C19.454 6.15 18 12.17 18.793 18.694c.7 5.746 3.587 10.473 7.96 14.252 1.218 1.052 2.523 2.005 4.027 2.617.105.044.2.088.32.127.072-1.45-.1-2.88-.26-4.32l-.33-.237c-1.118-.8-2.077-1.807-3.04-2.788-.292-.297-.656-.55-.656-1.036-.65.468-1.118.143-1.5-.375-2.116-2.887-3.394-6.088-3.564-9.7-.154-3.184.132-6.28 1.47-9.26 1.702-3.785 4.32-6.677 7.834-8.826.595-.364.937-.04 1.35.23.402-.04.76-.176 1.02-.507l-.05-.116c-.353-.744-.37-1.587.48-1.785.854-.204 1.34.5 1.344 1.388C41.572-3.726 47.5-2.877 52.85 1.205c4 3.052 6.292 7.145 7 12.137.904 6.418-1.267 11.74-5.74 16.24-.53.53-1.124 1.008-1.796 1.366a10.09 10.09 0 0 1-.347.171c-.275 1.515-.292 3.047-.275 4.578l.32-.16z" fill="#e2f5fc"/><path d="M54.1 29.6c4.468-4.5 6.64-9.823 5.74-16.24-.7-4.997-2.992-9.1-7-12.137C47.5-2.87 41.557-3.712 35.2-1.624c-.01.005-.022.017-.033.022-.5.32-.892 1.008-1.614.578-.044-.028-.083-.05-.127-.083-.26.33-.612.468-1.02.507-.017.066-.04.127-.06.193-.457 1.284-1.83 1.62-2.75 2.4-2.496 2.088-4.347 4.6-5.438 7.62-1.752 4.88-1.394 9.663.953 14.28.38.75.848 1.46 1.35 2.138a1.8 1.8 0 0 1 .353 1.284c0 .496.364.755.656 1.052.97.98 1.923 1.978 3.04 2.788l.33.237-.253-6.578c-1.917-1.256-3.317-2.854-3.56-5.234-.303-2.936.93-5.107 3.333-6.688.01-.005.022-.017.033-.022-.094-1.543.204-3.02.755-4.446C32.974 3.65 38.516.52 43.083 1.665c3.047.496 5.537 1.88 7.322 4.418 1.427 2.033 2.165 4.275 2 6.776 1.72 1.306 3.107 2.837 3.333 5.102.303 3.047-.997 5.272-3.56 6.826v.028l-.253 6.32c.12-.055.237-.1.347-.17.683-.358 1.278-.837 1.807-1.372z" fill="#cdecf6"/><path d="M46.67 12.612c1.9-.93 3.724-.43 5.548.17l.204.066c.154-2.507-.584-4.75-2-6.776-1.785-2.54-4.275-3.923-7.305-4.413-.468.088-.97-.1-1.526.22 3.724 3.118 4.237 7.118 3.504 11.476l1.587-.744z" fill="#fe6b3c"/><path d="M55.76 17.956c-.226-2.264-1.614-3.796-3.333-5.102l-.204-.066c-1.83-.6-3.658-1.102-5.548-.17l-1.24.6-.342.16-.826.948c-1.785 1.74-2.033 3.895-1.56 6.176.722 3.476 4.964 6.37 9.47 4.308.005-.005.017-.005.022-.01 2.562-1.56 3.867-3.8 3.56-6.83zm-6.738 6.088c-2.925-.022-5.206-2.347-5.18-5.283.028-2.892 2.4-5.184 5.305-5.162 2.93.022 5.173 2.33 5.15 5.294-.022 2.942-2.314 5.18-5.278 5.15z" fill="#fe6142"/><path d="M30.357 12.87c-2.402 1.58-3.636 3.752-3.333 6.688.242 2.38 1.642 3.978 3.548 5.228 1.146.342 2.28.54 3.487.523 4.1-.06 7.212-4.26 6.05-8.236-1.1-3.816-5.185-6.323-9.7-4.223-.022.005-.033.017-.044.022zm3.284 11.173c-3.003.01-5.327-2.292-5.316-5.278.005-2.93 2.292-5.2 5.24-5.217 2.98-.017 5.36 2.33 5.35 5.26-.01 2.88-2.374 5.223-5.272 5.234z" fill="#fe6143"/><path d="M38.44 31.294c-.204-.204-.353-.48-.694-.485-.066 2.05 1.807 4.22 3.653 4.226 1.956.005 3.658-1.94 3.653-4.17-.738.38-1.207 1.162-2.055 1.394-1.7.463-3.245.347-4.556-.964z" fill="#070909"/><path d="M45.254 28.936c-1.24.9-2.424 1.686-3.945 1.658-1.487-.028-2.6-.953-3.906-1.85l.342 2.066c.342.01.5.28.694.485 1.306 1.3 2.865 1.427 4.556.964.848-.23 1.317-1.008 2.055-1.394-.198-.634.468-1.2.204-1.928z" fill="#fdfcfb"/><path d="M36.952 5.24c-.975.017-1.432.573-1.52 1.394.017 1.124.667 1.614 1.532 1.603a1.48 1.48 0 0 0 1.465-1.465c.017-.86-.446-1.554-1.476-1.532z" fill="#fea777"/><path d="M26.804 27.3a1.8 1.8 0 0 0-.353-1.284c-.496-.678-.97-1.388-1.35-2.138-2.347-4.617-2.7-9.4-.953-14.28 1.1-3.03 2.942-5.53 5.438-7.62.92-.77 2.292-1.102 2.75-2.4.022-.06.044-.127.06-.193-.413-.27-.755-.595-1.35-.23-3.515 2.15-6.132 5.04-7.834 8.826-1.34 2.98-1.625 6.077-1.47 9.26.176 3.598 1.45 6.804 3.564 9.7.38.518.854.843 1.5.375z" fill="#fdfefe"/><path d="M35.15-1.602c.01-.005.022-.017.033-.022-.01-.898-.5-1.592-1.344-1.388s-.832 1.047-.48 1.785l.05.116a1.36 1.36 0 0 0 .127.083c.722.435 1.113-.26 1.614-.573z" fill="#fbfdfe"/><path d="M54.3 18.898c.022-2.958-2.22-5.267-5.15-5.294-2.92-.022-5.278 2.27-5.305 5.162a5.18 5.18 0 0 0 5.179 5.283c2.964.022 5.256-2.215 5.278-5.15zm-5.02.573c-.992.017-1.57-.545-1.658-1.52-.083-.9.733-1.757 1.636-1.697.97.072 1.515.64 1.63 1.653-.132.904-.595 1.548-1.6 1.565zm-15.717-5.917c-2.947.017-5.228 2.286-5.24 5.217-.005 2.986 2.314 5.3 5.316 5.278 2.898-.01 5.26-2.352 5.272-5.228.005-2.936-2.374-5.283-5.35-5.267zm.005 5.917c-.98.01-1.57-.55-1.647-1.537-.072-.9.75-1.752 1.658-1.675.96.083 1.52.64 1.6 1.653-.12.93-.628 1.548-1.62 1.56z" fill="#fefefe"/><path d="M49.26 16.254c-.904-.066-1.72.782-1.636 1.697.088.98.667 1.537 1.658 1.52 1.008-.017 1.476-.66 1.6-1.565-.116-1.014-.66-1.58-1.63-1.653z" fill="#090b0b"/><path d="M33.58 16.26c-.9-.077-1.73.766-1.658 1.675.077.986.667 1.548 1.647 1.537.992-.01 1.5-.628 1.62-1.56-.094-1.02-.656-1.576-1.6-1.653z" fill="#090c0c"/></svg>