<?xml version="1.0" encoding="UTF-8" standalone="no"?>
<svg
   xmlns:dc="http://purl.org/dc/elements/1.1/"
   xmlns:cc="http://creativecommons.org/ns#"
   xmlns:rdf="http://www.w3.org/1999/02/22-rdf-syntax-ns#"
   xmlns:svg="http://www.w3.org/2000/svg"
   xmlns="http://www.w3.org/2000/svg"
   xmlns:sodipodi="http://sodipodi.sourceforge.net/DTD/sodipodi-0.dtd"
   xmlns:inkscape="http://www.inkscape.org/namespaces/inkscape"
   role="img"
   viewBox="-2.82 -4.07 64 64"
   version="1.1"
   id="svg10"
   sodipodi:docname="cncfio-icon.svg"
   width="64"
   height="64"
   inkscape:version="0.92.4 (5da689c313, 2019-01-14)">
  <metadata
     id="metadata16">
    <rdf:RDF>
      <cc:Work
         rdf:about="">
        <dc:format>image/svg+xml</dc:format>
        <dc:type
           rdf:resource="http://purl.org/dc/dcmitype/StillImage" />
        <dc:title></dc:title>
      </cc:Work>
    </rdf:RDF>
  </metadata>
  <defs
     id="defs14" />
  <sodipodi:namedview
     pagecolor="#ffffff"
     bordercolor="#666666"
     borderopacity="1"
     objecttolerance="10"
     gridtolerance="10"
     guidetolerance="10"
     inkscape:pageopacity="0"
     inkscape:pageshadow="2"
     inkscape:window-width="1920"
     inkscape:window-height="1001"
     id="namedview12"
     showgrid="false"
     inkscape:zoom="4.5698063"
     inkscape:cx="78.523414"
     inkscape:cy="40.07"
     inkscape:window-x="-9"
     inkscape:window-y="-9"
     inkscape:window-maximized="1"
     inkscape:current-layer="svg10" />
  <style
     id="style2">svg {enable-background:new 0 0 414 73}</style>
  <g
     id="g849"
     transform="matrix(2.5816264,0,0,2.5816264,-11.69286,-39.011573)">
    <path
       style="fill:#446ca9;stroke-width:0.38674843"
       inkscape:connector-curvature="0"
       id="path6"
       d="m 6.9756745,30.048871 h -3.519411 v 8.276416 H 11.694006 V 34.767201 H 6.9756745 Z m 17.7130775,0.03867 v 4.679656 h -4.718331 v -0.03867 3.59676 h 8.237741 V 30.048871 H 24.650077 Z M 3.4562635,21.811129 h 3.558086 l -0.03867,-0.03867 V 17.0928 H 11.69401 V 13.534715 H 3.4562675 Z M 19.970421,13.534713 v 3.558085 h 4.718331 v 4.718331 h 3.51941 v -8.276416 z" />
    <path
       style="fill:#76c4d5;stroke-width:0.38674843"
       inkscape:connector-curvature="0"
       id="path8"
       d="m 19.506325,21.811129 -4.718332,-4.718331 h 5.182428 v -3.558085 h -8.276415 v 3.558085 l 4.71833,4.718331 z m -4.254233,8.237742 h -3.093989 l 3.90616,3.906158 0.773498,0.812172 h -5.143755 v 3.558086 h 8.276415 v -3.59676 l -2.359164,-2.32049 z m 9.43666,-8.237742 v 5.143755 l -0.812171,-0.812172 -3.90616,-3.906159 v 3.132663 l 2.320491,2.320489 2.359165,2.359166 h 3.558086 V 21.811129 Z M 11.694005,26.490785 7.0143495,21.811129 h -3.558086 v 8.237742 h 3.519411 v -5.143755 l 4.7183305,4.718332 z" />
  </g>
</svg>
