<svg xmlns="http://www.w3.org/2000/svg" viewBox="0 0 100 100">
  <rect width="100" height="100" rx="12" fill="#1F6BA5"/>
  <ellipse cx="50" cy="36" rx="18" ry="10" fill="white"/>
  <path d="M32 36 L32 62 C32 72 68 72 68 62 L68 36" fill="white"/>
  <path d="M68 36 C68 46 80 46 80 36 C80 26 68 26 68 36Z" fill="white"/>
  <ellipse cx="50" cy="36" rx="18" ry="10" fill="#1F6BA5"/>
  <ellipse cx="50" cy="36" rx="14" ry="7" fill="white"/>
  <path d="M36 36 L36 60 C36 68 64 68 64 60 L64 36" fill="#1F6BA5"/>
  <path d="M64 40 C64 50 76 50 76 40 C76 30 64 30 64 40Z" fill="#1F6BA5"/>
  <circle cx="74" cy="38" r="4" fill="white"/>
</svg>
