<svg xmlns="http://www.w3.org/2000/svg" width="64" height="64"><path d="M32.002 0C14.355 0 0 14.355 0 32s14.354 32 32.002 32C49.644 64 64 49.646 64 32S49.644 0 32.002 0z" fill="#53a3da"/><path d="M32.002 2.936c-5.146 0-9.5 8.23-11.087 19.672l-.142 1.115c-.215 1.8-.36 3.673-.434 5.6A67.78 67.78 0 0 0 20.287 32c0 .902.017 1.795.052 2.675.073 1.927.22 3.8.434 5.6 2.413.312 4.993.524 7.684.625a94.81 94.81 0 0 0 3.545.069 95.26 95.26 0 0 0 3.542-.069c2.694-.1 5.273-.313 7.688-.625l.792-.1c10.05-1.41 17.042-4.535 17.042-8.167 0-16.052-13.013-29.063-29.063-29.063z" fill="#f1606d"/><path d="M44.023 23.832a14.75 14.75 0 0 0-.937-1.224c-2.667-3.143-6.64-5.14-11.083-5.14-1.44 0-2.724 2.205-3.545 5.63-.326 1.365-.58 2.924-.743 4.614A45.56 45.56 0 0 0 27.516 32c0 1.49.07 2.933.198 4.286 1.356.13 2.795.198 4.288.198s2.93-.07 4.286-.198c2.98-.283 5.554-.856 7.377-1.61 1.8-.745 2.866-1.672 2.866-2.675 0-3.028-.925-5.84-2.508-8.168z" fill="#fff"/></svg>