<svg height="320" viewBox="0 0 320 320" width="320" xmlns="http://www.w3.org/2000/svg"><g fill="#00b173" fill-rule="evenodd" transform="translate(40 22)"><g transform="translate(41.424725 85.086839)"><path d="m133.374826 0h-102.3035033v.02127985c-.1422641-.00638396-.2823942-.02127985-.4253695-.02127985-5.3107171 0-9.6156274 4.29285438-9.6156274 9.58869887 0 5.29513513 4.3049103 9.58798953 9.6156274 9.58798953.1429753 0 .2831054-.0148959.4253695-.0212798v.0212798h102.3035033c5.310005 0 9.615627-4.2928544 9.615627-9.58798953 0-5.29584449-4.305622-9.58869887-9.615627-9.58869887"/><path d="m133.374826 91.3398402h-102.3035033v.0205705c-.1422641-.0056747-.2823942-.0205705-.4253695-.0205705-5.3107171 0-9.6156274 4.2928543-9.6156274 9.5886988 0 5.294426 4.3049103 9.58728 9.6156274 9.58728.1429753 0 .2831054-.014186.4253695-.02057v.02057h102.3035033c5.310005 0 9.615627-4.292854 9.615627-9.58728 0-5.2958445-4.305622-9.5886988-9.615627-9.5886988"/><path d="m106.49887 55.2582997c0-5.0000546-3.839707-9.1013903-8.7385696-9.5447205v-.0439783h-87.7193036v.0212798c-.14226402-.0056746-.28168279-.0212798-.42536948-.0212798-5.31071709 0-9.61562732 4.2928544-9.61562732 9.5886988 0 5.2958445 4.30491023 9.5886989 9.61562732 9.5886989.14368669 0 .28310546-.0156052.42536948-.0219892v.0219892h87.7193036v-.0446877c4.8988626-.4426208 8.7385696-4.5439565 8.7385696-9.5440112"/></g><path d="m240 69.25-120-69.25-120 69.25v138.5l120 69.25 120-69.25zm-120-48.5384712 102.048512 58.8942356v117.7756566l-102.048512 58.894236-102.0613325-58.894236v-117.7756566z" fill-rule="nonzero"/></g></svg>