<?xml version="1.0" encoding="utf-8"?>
<!-- Generator: Adobe Illustrator 24.1.0, SVG Export Plug-In . SVG Version: 6.00 Build 0)  -->
<svg version="1.1" id="Layer_1" xmlns="http://www.w3.org/2000/svg" xmlns:xlink="http://www.w3.org/1999/xlink" x="0px" y="0px"
	 viewBox="0 0 64 64" width="64" height="64" style="enable-background:new 0 0 64 64;" xml:space="preserve">
<style type="text/css">
	.st0{fill:#326CE5;}
	.st1{fill:#C1D2F7;}
	.st2{fill:none;}
</style>
<g>
	<path class="st0" d="M10.1,17c-0.9-0.6-1.1-1.7-0.5-2.6c0.1-0.2,0.3-0.4,0.5-0.5L31,0.3c0.6-0.4,1.4-0.4,2,0l20.9,13.6
		c0.9,0.6,1.1,1.7,0.5,2.6c-0.1,0.2-0.3,0.4-0.5,0.5L33,30.5c-0.6,0.4-1.4,0.4-2,0L10.1,17z"/>
	<path class="st1" d="M35.3,19.4h1.4c0.6,0,1.1-0.5,1.1-1.1c0-0.2-0.1-0.4-0.1-0.5L33,9.5c-0.3-0.5-1-0.7-1.5-0.4
		c-0.2,0.1-0.3,0.2-0.4,0.4l-4.7,8.2c-0.3,0.5-0.1,1.2,0.4,1.5c0.2,0.1,0.4,0.1,0.5,0.1h1.4c0.6,0,1.1,0.5,1.1,1.1l0,0v9.4l1,0.6
		c0.7,0.5,1.7,0.5,2.4,0l1-0.6v-9.4C34.2,19.9,34.7,19.4,35.3,19.4C35.3,19.4,35.3,19.4,35.3,19.4z"/>
	<path class="st2" d="M31,63.7c0.2,0.1,0.4,0.2,0.6,0.3c-0.4-0.2-0.8-0.4-1.2-0.6L31,63.7z M29.8,34.2l-2.1,1.3
		c0.7,0.4,1.4,0.8,2.1,1.2V34.2z M34.2,38.6c1.8,0.6,3.6,1,5.5,1.5c2,0.5,4,1,6,1.6l-6.5-4.2c-1.7-0.5-3.4-1-5-1.7L34.2,38.6z
		 M34.2,49.9V50c0,0.5-0.5,0.9-1.1,0.9h-2.2c-0.6,0-1.1-0.4-1.1-0.9v-1.2c-4.6-1.2-9.1-2.6-13-6.2l-2.7,1.7c4.1,4,9.2,5.3,14.6,6.6
		c5,1.2,10.1,2.5,14.4,6.1l2.7-1.7C42.5,52.3,38.4,51,34.2,49.9z M16.3,54.1l7.1,4.6c3.7,0.9,7.4,2.1,10.7,4.3l2.7-1.8
		c-3.6-2.5-7.8-3.5-12.1-4.6C21.8,56,19,55.3,16.3,54.1z M29.8,39.1c-1.4-0.6-2.7-1.4-3.9-2.3l-2.7,1.8c2,1.6,4.3,2.6,6.6,3.4
		L29.8,39.1z M39.2,42.1c-1.7-0.4-3.3-0.8-5-1.3v2.5c0.6,0.2,1.2,0.3,1.9,0.5c5.5,1.3,11.1,2.7,15.7,7.3c0.1,0.1,0.2,0.2,0.3,0.3
		l1.8-1.2c0.3-0.2,0.5-0.4,0.6-0.7c-0.2-0.2-0.4-0.4-0.6-0.6C49.8,44.7,44.6,43.4,39.2,42.1L39.2,42.1z M35.6,45.7
		c-0.5-0.1-0.9-0.2-1.4-0.3v2.4c4.7,1.2,9.5,2.7,13.4,6.4l2.7-1.7c0,0,0,0,0,0C46.1,48.3,41,47.1,35.6,45.7z M29.8,44.1
		c-3-1-5.9-2.3-8.5-4.4l-2.7,1.7c3.3,2.8,7.1,4.1,11.2,5.2V44.1z"/>
	<path class="st2" d="M12.6,45.7c-0.1-0.1-0.1-0.1-0.2-0.2L10.1,47c-0.1,0.1-0.2,0.2-0.3,0.3c0.2,0.2,0.4,0.4,0.6,0.6
		c4.1,4.1,9.3,5.4,14.7,6.7c4.6,1.1,9.4,2.3,13.5,5.4l2.7-1.8c-3.8-3-8.3-4.1-13.1-5.3C22.8,51.7,17.1,50.3,12.6,45.7L12.6,45.7z"/>
	<path class="st0" d="M39.2,37.5l-5-3.3v1.5C35.8,36.5,37.5,37,39.2,37.5z M34.2,38.6v2.2c1.7,0.5,3.3,0.9,5,1.3
		c5.4,1.3,10.6,2.6,14.7,6.7c0.2,0.2,0.4,0.4,0.6,0.6c0.4-0.9,0.2-1.9-0.6-2.4l-8.2-5.3c-2-0.7-4-1.2-6-1.6
		C37.8,39.6,36,39.1,34.2,38.6L34.2,38.6z M29.8,36.8c-0.7-0.4-1.4-0.8-2.1-1.2l-1.9,1.2c1.2,0.9,2.6,1.7,3.9,2.3L29.8,36.8z
		 M36.1,43.7c-0.6-0.2-1.2-0.3-1.9-0.5v2.1c0.5,0.1,0.9,0.2,1.4,0.3c5.4,1.3,10.6,2.6,14.7,6.7c0,0,0,0,0,0l1.8-1.1
		c-0.1-0.1-0.2-0.2-0.3-0.3C47.2,46.4,41.5,45.1,36.1,43.7z M29.8,42c-2.4-0.8-4.6-1.9-6.6-3.4l-1.8,1.2c2.6,2.1,5.5,3.4,8.5,4.4V42
		z M29.8,46.7c-4.1-1.1-7.9-2.4-11.2-5.2l-1.8,1.2c3.8,3.5,8.4,5,13,6.2V46.7z M34.2,49.9c4.3,1.1,8.3,2.4,11.6,5.4l1.8-1.2
		c-4-3.7-8.7-5.2-13.4-6.4L34.2,49.9z M14.2,44.4l-1.8,1.2c0.1,0.1,0.1,0.1,0.2,0.2c4.5,4.5,10.2,5.9,15.7,7.3
		c4.7,1.2,9.3,2.3,13.1,5.3l1.8-1.2c-4.3-3.6-9.4-4.9-14.4-6.1C23.4,49.7,18.3,48.4,14.2,44.4z M10.4,47.9c-0.2-0.2-0.4-0.4-0.6-0.6
		c-0.7,0.7-0.7,1.9,0,2.6c0.1,0.1,0.2,0.2,0.3,0.2l6.1,4c2.7,1.1,5.6,1.8,8.4,2.5c4.4,1.1,8.5,2.1,12.1,4.6l1.9-1.2
		c-4.1-3.1-8.9-4.3-13.5-5.4C19.7,53.3,14.5,52,10.4,47.9L10.4,47.9z M30.4,63.3c0.4,0.2,0.8,0.4,1.2,0.6c0.5,0.1,1,0,1.4-0.3l1-0.7
		c-3.3-2.2-7-3.3-10.7-4.3L30.4,63.3z"/>
</g>
</svg>
