<svg xmlns="http://www.w3.org/2000/svg" xmlns:xlink="http://www.w3.org/1999/xlink" viewBox="-0.62 -1.68 64 64" width="64" height="64"><filter height="3.667" width="1.3" x="-.15" y="-1.333"><feGaussianBlur in="SourceGraphic" stdDeviation="4"/></filter><g transform="matrix(1.084877 0 0 1.084877 -2.663449 .142593)"><path d="M25.748 53.08c-.172 0-.296.155-.296.3l.123 3.612c0 .18.148.3.296.3l1.38-.052c.172 0 .296-.155.296-.3l-.123-3.612c0-.18-.148-.3-.296-.3z"/><path d="M22.522 56.487c0-.335.27-.62.6-.62h2.512c.32 0 .6.284.6.62v.284c0 .155-.1.258-.246.258l-2.857.077c-.32.026-.6-.258-.6-.62zM35.33 53.08c.172 0 .296.155.296.3l-.123 3.612c0 .18-.148.3-.296.3l-1.38-.052c-.172 0-.296-.155-.296-.3l.123-3.612c0-.18.148-.3.296-.3z"/><path d="M38.53 56.487c0-.335-.27-.62-.6-.62h-2.512c-.32 0-.6.284-.6.62v.284c0 .155.1.258.246.258l2.857.077c.345.026.6-.258.6-.62zm-10.245-46.03c.837 1.084 3.128 2.503 5.985 3.586 2.956 1.135 5.665 1.574 6.92 1.264 1.724 2.425 2.562 5.573 2.192 9.03l-2.7 23.84c-.345 3.122-3.08 5.65-6.06 5.65h-8.867c-2.98 0-5.714-2.53-6.06-5.65l-2.7-23.84c-.862-7.508 4.162-13.623 11.305-13.882zm2.66 0h.665c3.03 0 5.7 1.058 7.734 2.812-.246.645-2.315.44-4.63-.464-1.897-.722-3.4-1.677-3.768-2.348z"/><path d="M36.758 24.286c1.92-1.16 2.586-3.74 1.478-5.754s-6.97 4.232-6.97 4.232 3.57 2.683 5.492 1.522z" fill="#fff"/><ellipse ry="1.342" rx="1.305" cy="21.629" cx="33.556"/><path d="M23.58 24.286c-1.92-1.16-2.586-3.74-1.478-5.754s6.97 4.232 6.97 4.232-3.57 2.683-5.492 1.522z" fill="#fff"/><path d="M18.704 41.3L17.3 38.53l.443-.232 1.232 2.45.246-.542-1.182-2.348.443-.232 1 2.013.246-.542-.96-1.9.443-.232.813 1.574 1.084-2.27-2.07-5.728c-.566-1.884-5.74-1.24-6.084 1.9-.345 3.174 4.606 11.198 4.606 11.198zm31.034-14.795L47.25 28.26l.27.44 2.192-1.548-.025.593-2.094 1.47.27.44 1.798-1.264-.025.593-1.7 1.213.27.44L49.6 29.63l-.074 2.53-4.384 4.025c-1.33 1.393-5.6-1.73-4.483-4.696 1.158-2.967 9.138-7.612 9.138-7.612z"/><path d="M30.305 39.277L42.842 26.8l-2.6 23.325-19.58.232-3.054-22.86z" fill="#fff"/><path d="M30.625 48.592L42.67 28.905l-1.108 11.74-1 11.38-3.892 3.948-3.72-.258-2.488-1.497-2.167 1.238-3.448.516-4.68-3.715-1.182-9.908-1.33-14.036z" fill="#333"/><path d="M19.098 42.322l1.182 9.856 4.58 3.638 3.374-.516 2.192-1.24 2.537 1.497 3.645.258 3.818-3.845 1-11.327 1.06-11.224-11.872 19.403L17.806 28.8z" fill="none" stroke="#000" stroke-width=".252"/><path d="M29.862 25a.46.46 0 0 1 .69 0L33 27.563a.35.35 0 0 1-.099.593l-2.118 1.1c-.246.13-.64.13-.887.026l-2.364-1.135c-.246-.13-.296-.387-.1-.568z" fill="#f5a623"/><path d="M40.008 11.128l-.27 1.078c-.22.63-2.302.44-4.64-.45s-4.06-2.124-3.83-2.78l.455-1.007c-1.83-.314-3.135-.18-3.354.45-.362 1.043 2.46 3.107 6.3 4.572s7.26 1.808 7.632.74c.196-.64-.698-1.612-2.293-2.604z"/><path d="M42.752 4.212c-.375.626-2.25.515-4.865-.482-2.638-1.006-4.143-2.184-4.023-2.907 0 0-.948 4.4-2.54 8.367-.017.653 1.613 1.768 3.766 2.6s4.095 1.04 4.474.552c1.23-4.144 3.188-8.12 3.188-8.12z" fill="#e54733"/><path d="M43.78 2.764c-.375.626-2.713.34-5.328-.66-2.638-1.006-4.606-2.36-4.485-3.083 0 0-.485 4.565-2.077 8.544-.017.653 1.613 1.768 3.766 2.6s4.095 1.04 4.474.552c1.222-4.12 3.65-7.944 3.65-7.944z"/><path d="M43.9 2.457l-.025.073c-.375.626-2.713.34-5.328-.66C35.92.865 33.953-.5 34.073-1.212l.025-.073c.244-.703 2.645-.447 5.376.595 2.662 1.015 4.68 2.444 4.437 3.147z"/><path d="M25.034 31.795c-.222-.155-.394-.052-.37.232l.517 6.7c.025.284.222.387.443.232l9.778-7.096c.222-.155.394-.052.394.232v6.528c0 .284-.197.387-.42.232z" fill="#e64934" stroke="#000" stroke-width=".252"/><ellipse ry=".516" rx=".493" cx="30.157" cy="41.935"/><ellipse ry=".516" rx=".493" cx="30.157" cy="43.999"/><use xlink:href="#A" fill="#333"/><use xlink:href="#A"/><g stroke="#fff" stroke-width=".504"><ellipse ry="4.902" rx="4.68" cy="20.777" cx="25.724" fill="#fff" fill-opacity=".2"/><path d="M21.167 19.745s-1.207 2.94.887 8.5S23.68 36.3 23.68 36.3" fill="none"/></g></g><defs><path id="A" d="M34.646 45.433l-.123-.087a.51.51 0 0 1-.217-.309.58.58 0 0 1 .091-.372l.1-.17c.124-.193.255-.35.398-.434l.306.216c-.103.114-.213.285-.35.5-.04.064-.07.107-.062.143-.014.02.013.072.054.1l.02.014c.04.03.06.043.095.036s.048-.028.1-.093l.124-.193a.42.42 0 0 1 .438-.22c.075.022.17.058.252.116l.06.043c.306.216.353.467.174.745l-.262.406c-.04.064-.117.135-.227.213l-.306-.216c.117-.135.24-.328.38-.542.028-.043.055-.086.048-.12s-.027-.05-.047-.065l-.04-.03c-.04-.03-.06-.043-.075-.022-.034.007-.048.028-.076.07l-.124.193a.5.5 0 0 1-.165.164.37.37 0 0 1-.164.071c-.055-.008-.1-.001-.164-.022-.095-.036-.177-.094-.238-.137zm1.806-.6l-1.5-1.053.455-.706a.71.71 0 0 1 .336-.292c.137-.028.287.016.45.13s.272.223.292.33c.007.036.034.086.02.107s-.007.057-.014.114l.75.126-.303.47-.655-.183L36.2 44l.55.4zm-.596-1.012l.152-.235c.028-.043.035-.1.014-.114-.007-.036-.047-.065-.1-.108s-.102-.072-.136-.065-.068.014-.096.057l-.152.235zm.98-.553l-.306-.216.427-.663.306.216zm-.22-1.275l-.347-.245.66-1.027.232.01 1 1.43-.3.45-.868-1.236zm.865-2.128l1.5 1.053-.262.406-1.123-.794-.124.286-.245-.173v-.372z"/></defs></svg>