<svg xmlns="http://www.w3.org/2000/svg" xmlns:xlink="http://www.w3.org/1999/xlink" width="64" height="64" viewBox="0 0 32 32"><defs><clipPath id="A"><path d="M0 216h216V0H0v216z"/></clipPath><clipPath id="B"><path d="M121.724 55.66c.343 1.114.4 2.832-3.038 2.054 0 0-9.395-1.342-9.843-12.303l-.214-21h-2.258l-.213 21c-.448 10.96-9.842 12.303-9.842 12.303-3.428.778-3.383-.938-3.04-2.052-3.37 5.738-12.394 4.996-12.394 4.996-3.133-1.117-.224-3.13-.224-3.13 4.92-1.788 5.37-7.158 5.37-7.158V35.2l.52-11.728c1.117-5.224 3.874-8.312 6.578-10.13l28.803.033c3.484 2.365 7.047 6.846 7.047 15.307V50.37s.447 5.37 5.37 7.158c0 0 2.906 2.014-.225 3.13 0 0-.382.03-1.017.032-2.455 0-8.7-.47-11.378-5.03M94.53 34.04v16.552c0 1.617-.285 2.977-.773 4.12 3.24-2.526 3.457-8.855 3.457-8.855v-20.66c-3.225 2.282-2.684 8.846-2.684 8.846M117.8 45.86s.217 6.33 3.456 8.855c-.487-1.143-.772-2.503-.772-4.12V34.042s.54-6.1-2.684-8.612v20.43z"/></clipPath><clipPath id="C"><path d="M0 216h216V0H0v216z"/></clipPath><path id="D" d="M158.542 54.996c0-9.73-22.538-17.617-50.34-17.617s-50.34 7.887-50.34 17.617 22.537 17.62 50.34 17.62 50.34-7.9 50.34-17.62"/><path id="E" d="M75.282 93.676c0-.555-.65-1.006-1.454-1.006s-1.455.45-1.455 1.006.65 1.008 1.455 1.008 1.454-.45 1.454-1.008"/></defs><g transform="matrix(.178423 0 0 -.177923 -3.18057 36.6508)"><g clip-path="url(#C)"><use xlink:href="#D" fill="#a0dcf2"/></g><g clip-path="url(#B)"><use xlink:href="#D" fill="#82bde7"/></g><g clip-path="url(#A)"><path d="M50.7 106.8l-1.453-5.063s-.378-1.83 1.346-2.154c1.8.035 1.653 1.72 1.527 2.266l-1.42 4.95z" fill="#a0dcf2"/><path d="M197.042 128.027l.133.658c-14.768 2.953-29.922 2.983-39.1 2.602 1.506 5.426 1.96 11.67 1.96 18.633 0 9.986-3.752 17.975-9.843 24.054 1.065 3.435 2.487 11.066-1.42 20.833 0 0-6.9 2.188-22.476-8.243-6.106 1.526-12.604 2.28-19.112 2.28-7.16 0-14.395-.912-21.143-2.763-16.086 10.975-23.186 8.727-23.186 8.727-4.636-11.6-1.77-20.17-.9-22.302-5.448-5.88-8.774-13.384-8.774-22.585 0-6.947.792-13.178 2.724-18.594-9.247.336-23.85.207-38.1-2.64l.132-.658c14.325 2.865 29.018 2.965 38.2 2.617.425-1.12.9-2.2 1.43-3.26-9.088-.293-24.604-1.45-39.475-5.646l.182-.645c14.988 4.227 30.64 5.356 39.64 5.63 5.43-10.12 16.135-16.658 35.18-18.7-2.704-1.816-5.46-4.904-6.58-10.13-3.683-1.76-15.343-6.062-22.34 5.97 0 0-3.916 7.16-11.412 7.72 0 0-7.27.1-.503-4.53 0 0 4.867-2.293 8.223-10.9 0 0 4.38-14.695 25.512-9.98v-15.18s-.447-5.37-5.37-7.158c0 0-2.908-2.014.224-3.13 0 0 13.645-1.12 13.645 10.065v16.552s-.54 6.565 2.683 8.846V68.963s-.222-6.487-3.578-8.948c0 0-2.237-4.025 2.684-2.908 0 0 9.394 1.342 9.842 12.303l.214 27.513h2.257l.215-27.513c.447-10.96 9.842-12.303 9.842-12.303 4.92-1.117 2.683 2.908 2.683 2.908-3.355 2.46-3.578 8.948-3.578 8.948v26.953c3.223-2.5 2.684-8.612 2.684-8.612V70.752c0-11.184 13.644-10.065 13.644-10.065 3.13 1.117.225 3.13.225 3.13-4.922 1.8-5.37 7.158-5.37 7.158v21.697c0 8.46-3.563 12.942-7.047 15.307 20.3 2.014 30.056 8.572 34.548 18.762 8.896-.244 24.906-1.328 40.22-5.65l.182.645c-15.227 4.295-31.13 5.406-40.117 5.668.426 1.03.797 2.1 1.127 3.2 9.105.4 24.328.385 39.154-2.58" fill="#292929"/><path d="M140.178 150.4c4.375-3.963 6.934-8.75 6.934-13.905 0-24.075-17.948-24.728-40.085-24.728S66.94 115.09 66.94 136.485c0 5.122 2.524 9.878 6.845 13.825 7.206 6.578 19.404 3.095 33.24 3.095 13.782 0 25.934 3.518 33.15-3.015" fill="#f5cdb5"/><path d="M93.697 135.258c0-6.63-3.734-12.006-8.34-12.006s-8.342 5.375-8.342 12.006 3.736 12.004 8.342 12.004 8.34-5.373 8.34-12.004" fill="#fff"/><path d="M91.02 135.107c0-4.42-2.5-8.002-5.56-8.002s-5.56 3.582-5.56 8.002 2.488 8.006 5.56 8.006 5.56-3.584 5.56-8.006" fill="#b1645a"/><path d="M138.443 135.258c0-6.63-3.734-12.006-8.342-12.006s-8.34 5.375-8.34 12.006 3.735 12.004 8.34 12.004 8.342-5.373 8.342-12.004" fill="#fff"/><path d="M135.766 135.107c0-4.42-2.5-8.002-5.56-8.002s-5.56 3.582-5.56 8.002 2.5 8.006 5.56 8.006 5.56-3.584 5.56-8.006m-26.536-10.5c0-1.152-.934-2.086-2.086-2.086s-2.086.934-2.086 2.086.933 2.086 2.086 2.086 2.086-.934 2.086-2.086m-6.945-5.275a.67.67 0 1 0 1.265.447c.536-1.515 1.973-2.533 3.577-2.533s3.04 1.018 3.578 2.533a.67.67 0 1 0 1.264-.447 5.15 5.15 0 0 0-9.684 0" fill="#b1645a"/><g fill="#c5e6da"><path d="M56.04 109.785c0-.557-.652-1.006-1.455-1.006s-1.454.45-1.454 1.006.65 1.008 1.454 1.008 1.455-.45 1.455-1.008m4.028-2.235c0-.557-.652-1.008-1.455-1.008s-1.454.45-1.454 1.008.65 1.006 1.454 1.006 1.455-.45 1.455-1.006m2.462-2.9c0-.555-.65-1.006-1.455-1.006s-1.453.45-1.453 1.006.65 1.008 1.453 1.008 1.455-.45 1.455-1.008m2.235-3.357c0-.557-.65-1.008-1.453-1.008s-1.455.45-1.455 1.008.65 1.008 1.455 1.008 1.453-.45 1.453-1.008m2.462-3.143c0-.555-.65-1.006-1.454-1.006s-1.455.45-1.455 1.006.652 1.008 1.455 1.008 1.454-.45 1.454-1.008m3.357-2.683c0-.557-.65-1.008-1.455-1.008s-1.453.45-1.453 1.008.65 1.006 1.453 1.006 1.455-.45 1.455-1.006"/><use xlink:href="#E"/><use xlink:href="#E" x="4.676"/><path d="M84.704 94.455c0-.557-.65-1.008-1.454-1.008s-1.455.45-1.455 1.008.65 1.008 1.455 1.008 1.454-.45 1.454-1.008"/></g></g></g></svg>