<svg width="87" height="87" viewBox="0 0 87 87" fill="none" xmlns="http://www.w3.org/2000/svg">
<path d="M43.4156 83.2925C65.5326 83.2925 83.4616 65.3633 83.4616 43.2464C83.4616 21.1295 65.5326 3.2002 43.4156 3.2002C21.2986 3.2002 3.36963 21.1295 3.36963 43.2464C3.36963 65.3633 21.2986 83.2925 43.4156 83.2925Z" fill="#FFC000"/>
<path d="M43.385 86.7688C19.462 86.7688 0 67.3077 0 43.3847C0 19.4616 19.462 0 43.385 0C67.308 0 86.77 19.4616 86.77 43.3847C86.77 67.3077 67.308 86.7688 43.385 86.7688ZM43.385 3.677C21.493 3.677 3.677 21.4923 3.677 43.3847C3.677 65.277 21.493 83.0923 43.385 83.0923C65.277 83.0923 83.093 65.277 83.093 43.3847C83.093 21.4923 65.277 3.677 43.385 3.677Z" fill="black"/>
<path fill-rule="evenodd" clip-rule="evenodd" d="M63.5998 58.6158C62.4618 60.3235 59.1538 59.5543 53.8618 57.9543C53.6158 57.8773 53.3848 57.8927 53.1538 57.985C54.7698 55.6312 55.1238 51.3081 54.5538 48.1543C54.5538 48.1389 54.5538 48.1235 54.5538 48.1081C54.5538 48.0927 54.5538 48.0927 54.5538 48.0773C54.3848 46.8466 54.1078 45.862 53.7998 45.4312C60.8308 51.0927 64.7538 56.6312 63.5998 58.6158Z" fill="white"/>
<path fill-rule="evenodd" clip-rule="evenodd" d="M37.1078 30.2769C36.6468 27.4153 38.1538 24.5538 40.7848 23.3384C41.2618 26.2 39.7388 29.0461 37.1078 30.2769Z" fill="white"/>
<path fill-rule="evenodd" clip-rule="evenodd" d="M24.0158 41.3694C24.0158 41.3694 24.2458 40.8155 23.7078 40.3232C21.3538 38.0924 16.1388 32.8309 19.1078 31.3232C22.4158 29.6463 31.4458 32.0463 41.4618 37.3232C36.4158 40.2463 32.9538 42.6617 29.2928 45.6155C25.2618 42.6463 24.5388 41.9848 24.0158 41.3694Z" fill="white"/>
<path fill-rule="evenodd" clip-rule="evenodd" d="M58.0155 45.677C54.4465 42.677 50.8305 40.2616 45.7695 37.3385C55.7845 32.0616 64.7995 29.7077 68.1075 31.4C71.0765 32.9077 65.8615 38.1693 63.5075 40.4C63.0925 40.8 63.1845 40.9693 63.1995 41.4462C62.6925 42.0462 62.0615 42.7077 58.0155 45.677Z" fill="white"/>
<path fill-rule="evenodd" clip-rule="evenodd" d="M33.4466 45.354C33.1386 45.7848 32.8616 46.7694 32.6926 48.0002C32.6926 48.0002 32.6926 48.0156 32.6926 48.031C32.6926 48.0463 32.6926 48.0617 32.6926 48.0771C32.1226 51.231 32.4766 55.554 34.0926 57.9079C33.8766 57.8156 33.6306 57.8156 33.3846 57.8771C28.0766 59.4771 24.7846 60.2463 23.6466 58.5387C22.4766 56.554 26.3996 51.0156 33.4466 45.354Z" fill="white"/>
<path fill-rule="evenodd" clip-rule="evenodd" d="M49.9078 30.2769C47.2768 29.0461 45.7698 26.2 46.2308 23.3384C48.8458 24.5538 50.3698 27.4153 49.9078 30.2769Z" fill="white"/>
<path fill-rule="evenodd" clip-rule="evenodd" d="M34.7076 54.4462C35.1386 55.8616 35.7996 57.1847 36.7076 58.3386H50.3536C51.2766 57.1847 51.9386 55.8616 52.3536 54.4462H34.7076ZM63.5236 40.3847C63.0926 40.7847 63.0766 41.4616 63.4766 41.9078L63.6306 42.077C69.8306 36.7847 73.5696 32.6924 71.7076 29.4616C69.6616 26.6155 61.0306 27.9539 50.4616 32.7232C50.9996 31.6463 51.2616 30.4616 51.2616 29.2924C51.2616 28.8616 51.2306 28.4155 51.1536 27.9847C50.9076 26.4616 50.1846 25.0001 49.0156 23.8463C48.3846 23.2001 47.6466 22.7078 46.8766 22.3386L46.9076 22.2616L47.7236 20.4924C47.8466 20.2155 47.7236 19.877 47.4466 19.7386C47.1696 19.6155 46.8306 19.7386 46.6926 20.0155L45.8156 21.9232C44.3536 21.477 42.7696 21.477 41.3076 21.9232L40.4306 20.0155C40.3076 19.7386 39.9696 19.6155 39.6766 19.7386C39.3996 19.8616 39.2766 20.2001 39.3996 20.4924L40.1846 22.2001L40.2466 22.3386C39.4766 22.7078 38.7386 23.2155 38.1076 23.8463C36.5696 25.3847 35.8306 27.4155 35.8616 29.4309C35.8766 30.5232 36.1236 31.6155 36.6156 32.6309C33.8766 31.4001 18.6926 25.1232 15.6306 29.4001C12.8616 33.3078 21.3696 40.1386 23.6466 42.077L23.7996 41.9078C24.1996 41.477 24.1696 40.8001 23.7536 40.3847C22.6306 39.3386 20.8766 37.6001 19.6616 35.9078C18.0616 33.677 18.0156 32.3693 18.7846 31.6463C21.1996 29.3693 30.1696 32.3847 32.9536 33.4463C35.6306 34.477 38.5076 35.7693 41.4766 37.3386C27.2616 45.5847 17.5996 55.4309 19.8766 59.3847C21.3076 61.8616 27.2616 61.5386 34.8926 58.8463L34.6156 58.4001C34.3536 57.9693 33.8616 57.7693 33.3696 57.9232C28.0616 59.5232 24.7696 60.2924 23.6306 58.5847C22.0306 55.8309 30.1236 46.3232 42.6766 39.0616L43.6156 38.5232C43.9386 38.6924 44.2466 38.877 44.5696 39.0616C57.1386 46.3078 65.2156 55.8155 63.6156 58.5847C62.4766 60.2924 59.1696 59.5232 53.8766 57.9232C53.3996 57.7693 52.8926 57.9693 52.6306 58.4001L52.3536 58.8463C59.9996 61.5386 65.9386 61.8616 67.3696 59.3847C69.6466 55.4309 59.9846 45.5847 45.7696 37.3386C55.7846 32.0616 64.7996 29.7078 68.1076 31.4001C71.0926 32.8924 65.8766 38.1539 63.5236 40.3847ZM37.1076 30.277C36.6466 27.4155 38.1536 24.5539 40.7846 23.3386C41.2616 26.2001 39.7386 29.0463 37.1076 30.277ZM49.9076 30.277C47.2766 29.0463 45.7696 26.2001 46.2306 23.3386C48.8466 24.5539 50.3696 27.4155 49.9076 30.277ZM52.2156 46.4924C49.5996 44.5847 46.6926 42.6616 43.5386 40.8309C40.3996 42.6616 37.4766 44.5847 34.8766 46.4924C34.3536 47.9847 34.1236 49.6001 34.1846 51.1847H52.9076C52.9536 49.5847 52.7236 47.9847 52.2156 46.4924ZM39.6926 61.6001C40.8616 62.8309 41.7846 63.9232 43.5386 67.0924C45.2926 63.9232 46.2156 62.8309 47.3846 61.6001H39.6926Z" fill="black"/>
</svg>
