<svg xmlns="http://www.w3.org/2000/svg" width="64" height="64"><path d="M14.36 31.847c-4.705 1.147-7.91 3.41-7.91 6 0 1.617 1.235 3.088 3.264 4.235-.618-.97-.94-2.03-.94-3.088.03-2.676 2.117-5.176 5.587-7.146zM64 41.992c0-1.706-1.06-3.264-2.823-4.558.147.53.265 1.06.265 1.588 0 4.852-6.793 9.028-16.44 10.763a31.33 31.33 0 0 0 3.382.176C57 49.932 64 46.374 64 41.992zm-5.558-2.647c0-1.794-1.53-3.44-4.146-4.793.618.735.94 1.53.94 2.353 0 4.323-9.175 7.822-20.526 7.822-11.322 0-20.526-3.5-20.526-7.822 0-.56.147-1.088.44-1.588-1.823 1.206-2.853 2.588-2.853 4.058 0 4.676 10.44 8.47 23.32 8.47s23.35-3.852 23.35-8.5zM48.267 39.1c-4.764 3.058-19.41 4.235-25.702.294-4.94-3.088-3.235-8-17.38-18.762-1.853-1.412.353-2.91 1.735-1.94s.118 1.206 2.91 4c5.646 5.646 5.587.56 6.47 2.5 1.882 4.03 6 8.087 6 8.087 4.146 2.705 7.44 3.294 13.557-.853 3.882-2.617 2.294 4.176 11.792-.735 3.47-1.794 3.323-.588 6.852-5.5 1.47-2.03 4.264 1.56 1.088 2.06-1.265.206-3.41 1.588-4.323 3.764-1.323 3.264-.765 5.676-3 7.087zM21.86 30.818c-1.176-.53-2.41-2.53-2.882-3.323 1.323-1.294.794-3.44.03-4.617-.735-1.176-1.647-.853-2.617-1.94-1-1.088.382-3.91 1.647-1.735 4.735 8.146 7.852 4.764 11.704 4.264 3.705-.47 7 1.56 8-4.176.176-.94 1.088-1.147 1.176.382.088 1.56.676 5.323 2.705 5.793 2.03.5 3.676-.47 4.146-1s.735-.47.94.882c.206 1.323.735 3.176 3.588 1.117 5.852-4.176 4.176-5.793 6.47-6.88 1.294-.618 3.352 1.382.382 2.882-4.235 2.147-4.676 4.793-7.352 6.47-4.5 2.823-3.117.118-10.35-.912-2.794-.382-3.676 2.705-5.852 1.823-4.97-2.06-8.47-1.647-11.734.97zm15.674-15.086c.176 1.235.382 1.206.823 1.294.44.118 1-.588 1-1.235.03-.676-.294-1.088-.94-1.06-.676.03-.912.353-.882 1zm21.76 2.206c.53.5 1.94.176 2.264-.206.853-.94.882-1.5.44-2.147-.44-.618-1.353-.53-2.264.147s-.735 1.94-.44 2.206zm-.382 6.234c-.44.588-.47 1.03-.147 1.353.353.353 1.06.647 1.56.265.5-.412.5-1 .088-1.5-.44-.53-1.03-.53-1.5-.118zm-44.64-7.352c.676.206 1 .853 1.56.118.294-.353.323-.853-.06-1.382-.235-.323-1.353-.56-1.823-.088s-.03 1.235.323 1.353zM.48 16.408c1.235.765 2.03 1.91 2.97.882.323-.353.706-.97.03-2.206-.5-.912-2.117-1.265-2.676-.912C.215 14.496-.5 15.82.48 16.408zm11.38 5.852c.382.412 1.06.382 1.47.147.382-.235.323-.853-.06-1.382-.235-.323-.94-.5-1.412 0s-.265.94 0 1.235z" fill="#41bf47"/></svg>