<svg xmlns="http://www.w3.org/2000/svg" xmlns:xlink="http://www.w3.org/1999/xlink" width="64" height="64"><defs><linearGradient y2="29.677" x2="69.369" y1="5.046" x1="69.369" id="A" xlink:href="#I"><stop offset="0" stop-color="#2beda7"/><stop offset="1" stop-color="#018afd"/></linearGradient><linearGradient y2="35.321" x2="59.593" y1="10.69" x1="59.593" id="B" xlink:href="#I"><stop offset="0" stop-color="#2beda7"/><stop offset="1" stop-color="#018afd"/></linearGradient><linearGradient y2="41.478" x2="49.816" y1="16.334" x1="49.816" id="C" xlink:href="#I"><stop offset="0" stop-color="#2beda7"/><stop offset="1" stop-color="#018afd"/></linearGradient><linearGradient y2="41.477" x2="29.379" y1="16.334" x1="29.379" id="D" xlink:href="#I"><stop offset="0" stop-color="#2beda7"/><stop offset="1" stop-color="#018afd"/></linearGradient><linearGradient y2="35.321" x2="19.603" y1="10.69" x1="19.603" id="E" xlink:href="#I"><stop offset="0" stop-color="#2beda7"/><stop offset="1" stop-color="#018afd"/></linearGradient><linearGradient y2="29.677" x2="9.827" y1="5.045" x1="9.827" id="F" xlink:href="#I"><stop offset="0" stop-color="#2beda7"/><stop offset="1" stop-color="#018afd"/></linearGradient><linearGradient y2="146.622" x2="239.749" y1="43.139" x1="239.749" id="G" xlink:href="#I"><stop offset="0" stop-color="#2beda7"/><stop offset="1" stop-color="#018afd"/></linearGradient><linearGradient y2="146.628" x2="8.642" y1="43.142" x1="8.642" id="H" xlink:href="#I"><stop offset="0" stop-color="#2beda7"/><stop offset="1" stop-color="#018afd"/></linearGradient><linearGradient id="I" gradientUnits="userSpaceOnUse"/></defs><g transform="translate(-7.598 20.207)"><g transform="matrix(.257649 0 0 .257649 7.59786 -17.871783)"><path d="M231.1 136.7l17.3 9.9V53.1l-17.3-10z" fill="url(#G)"/><path d="M17.3 136.7V43.1L0 53.1v93.5z" fill="url(#H)"/></g><path d="M49.827 31.468V26.34L30.683 15.288l-1.314.747v3.633zm1.16 6.828L29.37 25.825v5.127l5.77 3.324-6.93 4.02c-.464.258-.464.953 0 1.2l3.4 1.958 7.987-4.612 7.987 4.612 3.4-1.958c.464-.258.464-.928 0-1.2z" fill="#2beda7"/><path d="M67.14 7.6v21.36c0 .54.593.876 1.056.618l3.04-1.752c.206-.13.36-.36.36-.618V5.033z" fill="url(#A)"/><path d="M58.432 35.23l2.86-1.65c.335-.18.515-.54.515-.902V10.7l-4.432 2.576v21.36c0 .515.567.85 1.056.593z" fill="url(#B)"/><path d="M47.585 41.465l4.097-2.37c.206-.13.36-.36.36-.618V16.292L47.61 18.87v22.596z" fill="url(#C)"/><path d="M27.514 39.12l4.097 2.37V18.92l-4.432-2.576v22.184c-.026.232.103.464.335.593z" fill="url(#D)"/><path d="M17.904 33.58l2.86 1.65c.464.258 1.056-.077 1.056-.618v-21.36l-4.432-2.576v21.977c0 .386.18.72.515.928z" fill="url(#E)"/><path d="M8.14 27.938l2.86 1.65c.464.258 1.056-.077 1.056-.618V7.6L7.598 5.033V27.01c0 .386.206.72.54.928z" fill="url(#F)"/><path d="M71.598-4.2L67.14-6.767l-7.987 4.612L53.82-5.22l6.957-4.02c.464-.258.464-.953 0-1.2l-2.86-1.65a1.1 1.1 0 0 0-1.056 0L49.4-7.798l-5.333-3.066 6.957-4.02c.464-.258.464-.953 0-1.2l-2.86-1.65a1.1 1.1 0 0 0-1.056 0l-7.472 4.303-7.472-4.33a1.1 1.1 0 0 0-1.056 0L28.2-16.094c-.464.258-.464.953 0 1.2L67.14 7.6l4.432-2.576L63.585.42zm-50.293-7.9l-2.886 1.65c-.464.258-.464.953 0 1.2l38.93 22.493 4.457-2.576L22.36-12.1a1.1 1.1 0 0 0-1.056 0zM35.14 11.706l-7.987 4.638 4.457 2.55 7.987-4.612 7.987 4.612 4.457-2.55-39.987-23.1L7.598-4.2 15.6.42 7.598 5.06l4.457 2.55 7.987-4.612 5.333 3.066L17.4 10.7l4.432 2.55 8.013-4.612z" fill="#2beda7"/></g></svg>