<?xml version="1.0" encoding="UTF-8" standalone="no"?>
<!-- Created with Inkscape (http://www.inkscape.org/) -->

<svg
   width="20.859974mm"
   height="20.859974mm"
   viewBox="0 0 20.859974 20.859975"
   version="1.1"
   id="svg1"
   xml:space="preserve"
   xmlns="http://www.w3.org/2000/svg"
   xmlns:svg="http://www.w3.org/2000/svg"><defs
     id="defs1" /><g
     id="layer1"
     transform="translate(1831.407,340.10657)"><rect
       style="fill:#000000;fill-opacity:0;stroke-width:0.27596"
       id="rect1"
       width="20.859974"
       height="20.859974"
       x="-1831.407"
       y="-340.10657" /><g
       id="g1"
       transform="matrix(0.01448918,0,0,0.01448918,-1825.0547,-337.91563)"><path
         fill="#c62b47"
         d="m 337.05543,1196.7986 -36.94409,-37.624 -0.29913,-246.61985 -0.29794,-246.61988 -2.41195,-0.34524 c -2.33036,-0.33342 -68.84321,33.0034 -255.80891,128.216 -47.7304407,24.30622 -87.058101,43.92099 -87.392699,43.58639 -0.334598,-0.3346 0.587615,-6.06296 2.050151,-12.72891 25.136219,-114.64173 89.212296,-242.1909 168.922248,-336.25072 67.4327,-79.57163 147.77047,-144.79692 240.55575,-195.30346 l 9.16301,-4.98823 v 251.85168 l 2.96054,0.7425 c 7.64491,1.91891 38.9174,-17.64501 56.78823,-35.52767 18.79778,-18.80842 31.08331,-38.77434 39.59369,-64.3421 15.53929,-46.69236 8.57658,-99.50916 -18.51521,-140.43178 C 445.88131,286.00434 434.96964,274.13499 353.96386,190.04925 265.51416,98.239385 256.07212,88.017007 245.62746,72.768568 237.61603,61.075379 232.50484,50.364701 228.81008,37.529386 c -3.75743,-13.05168 -3.68649,-40.3480065 0.13833,-53.795766 7.44746,-26.183758 24.83473,-50.318549 46.71601,-64.841041 14.1335,-9.381745 37.3851,-18.210162 49.19652,-18.680727 l 4.21144,-0.16789 -4.7293,-0.780332 c -8.22307,-1.35731 14.09804,-2.79265 23.05533,-1.48264 6.73925,0.98606 7.10222,1.15986 2.95581,1.41525 -4.30957,0.26365 -4.09912,0.37952 2.36465,1.301735 33.33327,4.757673 65.9004,26.18967 90.38161,59.479199 11.18243,15.207058 110.20329,175.855406 160.0631,259.682206 7.59407,12.76911 8.55885,16.31608 3.01847,11.10558 C 599.17087,224.17113 448.22113,66.381651 412.21817,28.012856 370.88883,-16.033462 366.2222,-20.454173 355.67468,-25.554721 c -6.8894,-3.332973 -8.78703,-3.714864 -18.32603,-3.693582 -13.22312,0.02956 -19.44214,2.703976 -29.1443,12.53264 -9.10153,9.224496 -12.06207,17.03611407 -11.3716,30.007396 0.56161,10.539241 3.45476,17.621365 10.77689,26.385937 2.27834,2.727622 40.50289,42.863993 84.94292,89.19338 44.44004,46.3282 86.34516,90.08603 93.11988,97.2391 32.6227,34.4352 52.83099,72.40791 62.27304,117.01111 4.12631,19.49416 5.26607,58.24367 2.31499,78.66359 -6.09134,42.13923 -23.91606,82.94598 -50.3552,115.27664 -10.12661,12.38485 -31.13534,32.08001 -43.7732,41.03849 -15.03208,10.65392 -21.62117,14.47401 -53.61842,31.08331 l -27.33061,14.18789 -0.59117,305.52685 -0.59116,305.52567 z M 147.50517,661.52834 c 80.17579,-41.10587 133.58375,-68.72497 141.53607,-73.19416 11.2841,-6.34081 10.42692,0.39844 10.81235,-84.96893 0.18681,-41.29269 0.0437,-76.27531 -0.31804,-77.73784 -1.16932,-4.7293 -5.87852,-3.33416 -15.78049,4.682 -83.80316,67.83233 -146.98658,145.42119 -199.237048,244.66433 -9.166562,17.40854 -10.113604,22.35657 -3.901671,20.38445 1.304104,-0.41381 31.402539,-15.63742 66.887649,-33.82985 z M -49.770407,840.82076 c 0.05675,-1.37741 0.336963,-1.65762 0.714124,-0.71412 0.341692,0.85245 0.299129,1.8728 -0.0934,2.26533 -0.392532,0.39253 -0.67156,-0.30504 -0.620721,-1.55121 z"
         id="path19"
         style="stroke-width:1.18232" /></g></g></svg>
