<svg xmlns="http://www.w3.org/2000/svg" role="img" viewBox="75.83 -0.17 204.59 359.84"><defs><style>.cls-4{fill:#ae7f70}.cls-5{fill:#060707}.cls-6{fill:#348ebf}.cls-7{fill:#090a0a}.cls-8{fill:#4f3f3e}.cls-9{fill:#2b2323}</style></defs><path fill="none" d="M209.81447 110.42352l.00017-.02172-.00922.00024.00905.02172z"/><path fill="#fefefe" d="M196.72663 237.87232a29.29752 29.29752 0 0 0 5.31311.07143 68.04169 68.04169 0 0 0 7.40876-.46815 46.671 46.671 0 0 0 27.1235-14.42022 16.89515 16.89515 0 0 0 4.3136-16.67011 34.86477 34.86477 0 0 0-16.93876-21.75792 14.84365 14.84365 0 0 0-8.44088-2.04436 21.79984 21.79984 0 0 0-13.87128 6.05335 47.52929 47.52929 0 0 0-13.56019 23.03789 29.05755 29.05755 0 0 0 1.97975 20.8107 8.853 8.853 0 0 0 6.67239 5.38739zm-1.80865-29.638a16.4938 16.4938 0 0 1 14.4717-4.5451 3.31359 3.31359 0 0 1 2.12868 5.6142c-.48382.59683-1.058 1.11973-1.55286 1.70832a4.48493 4.48493 0 0 0-.30765 5.75381 5.10466 5.10466 0 0 0 5.64844 2.5212 16.29546 16.29546 0 0 0 3.08058-1.38185c2.94319-1.4496 5.17686-.06036 5.212 3.21731.0829 7.72575-7.20349 15.21154-14.94423 15.34974-.67957.01208-1.35961.00155-2.30222.00155-4.25749-.08133-8.464-1.02028-11.69165-4.50462a16.4333 16.4333 0 0 1-3.9822-9.47919c-.65962-5.32821.06159-10.40082 4.23937-14.25549zm-48.71484-24.27882a13.93331 13.93331 0 0 0-7.18149-1.623 20.31457 20.31457 0 0 0-10.40675 3.86982 36.4915 36.4915 0 0 0-14.2479 19.89885 15.83654 15.83654 0 0 0-.36272 8.16614 21.06663 21.06663 0 0 0 6.59161 10.68633c9.80291 9.44144 21.82927 13.06163 35.1279 13.18679a9.94389 9.94389 0 0 0 9.81687-6.13911 26.11667 26.11667 0 0 0 2.70533-11.62809 39.51068 39.51068 0 0 0-1.93764-11.71738 38.52508 38.52508 0 0 0-20.10521-24.70035zm13.57922 33.852c2.2839-1.46879 4.36324-.62319 4.76526 2.11061a13.39328 13.39328 0 0 1-3.06653 10.89432 14.72978 14.72978 0 0 1-12.19512 5.75279c-2.956-.23084-5.80411-.14108-8.48066-1.44766a16.7795 16.7795 0 0 1 9.50323-31.59239q.37158.04061.74108.09774a3.68682 3.68682 0 0 1 3.00955 2.62017 3.12473 3.12473 0 0 1-1.206 3.48488c-.27054.24051-.5229.50264-.77292.765-2.018 2.11826-2.22369 4.471-.58029 6.59722 1.929 2.49571 4.28064 3.04465 6.91462 1.59637.47372-.26065.91177-.58592 1.36775-.87915zm46.70803 111.80163a48.09947 48.09947 0 0 1-36.1028 6.07221 96.7091 96.7091 0 0 1-25.711-10.3056c-1.60261-.88179-3.19559-1.781-4.87046-2.71539a1.228 1.228 0 0 0 .43587.9781 55.41041 55.41041 0 0 0 25.53407 18.18444 42.59714 42.59714 0 0 0 24.6604 1.49967 42.03518 42.03518 0 0 0 23.52285-15.35933 21.785 21.785 0 0 0 3.76789-5.77189 1.49419 1.49419 0 0 0-1.014.4818 110.64569 110.64569 0 0 1-10.22282 6.93599z"/><path fill="#563a39" d="M256.51524 113.37568c7.44126-17.02829 13.98818-34.36075 16.30062-52.96756a75.86406 75.86406 0 0 0-.38931-24.21557A35.9308 35.9308 0 0 0 243.92186 7.43c-8.3356-1.49656-15.73943.52554-21.73928 6.74679a50.416 50.416 0 0 0-10.41367 16.56881c-7.20067 18.03887-10.44309 36.95215-12.237 56.17062-.7195 7.70849-1.32163 15.42794-1.97726 23.14248h.00008a19.14922 19.14922 0 0 1 4.81773-1.27617c.3322-.0581.81135-.20947 1.00189.12556.168.29549-.06442.69072-.26094 1.00516a19.39455 19.39455 0 0 0-2.8663 6.68255 12.56444 12.56444 0 0 0 .14981 5.50362c.24239.93505.75873 1.23506 1.7118.796a8.29269 8.29269 0 0 0 4.20369-5.37282 30.08859 30.08859 0 0 0 1.05008-7.87283c.10825-1.473.0195-2.96049.2586-4.50471q1.09212 2.62839 2.18423 5.257l.00922-.00024c.08064-3.52176-.26367-7.02692-.4174-10.53964-.12072-2.76.03777-5.51337.14381-8.2715.51317-13.34452 1.90231-26.57457 5.53411-39.46439 2.35237-8.34886 5.47937-16.42 10.88115-23.345 2.93866-3.76719 6.56238-6.85707 11.40458-7.85856 6.30906-1.305 12.03206.49 17.0897 4.20936 4.744 3.48878 7.06948 8.60546 8.42558 14.174a45.06116 45.06116 0 0 1 .36031 17.34913 157.46109 157.46109 0 0 1-10.69475 38.37523 180.4721 180.4721 0 0 1-22.10394 39.14655 56.88146 56.88146 0 0 1-8.47473 9.14977c-2.22835 1.89708-3.52926 1.74111-4.9709-.78953a47.92319 47.92319 0 0 1-4.67924-12.53156c-.07393-.30305-.20444-.59222-.30874-.88786-.52524 1.09133-1.03145 2.1925-1.58421 3.26969a1.21464 1.21464 0 0 0 .06091 1.36482c2.44408 3.959 2.6459 8.29171 2.18961 12.7787a47.28307 47.28307 0 0 1-2.26705 9.828h-.00008c-.02511.25055-.046.59877-.33464.58426-.3552-.01789-.15574-.383-.198-.59738-.634-4.08988-.88335-8.29107-3.46765-11.81126a2.87189 2.87189 0 0 0-1.70859-1.36445c.56688 9.13161-2.6385 17.23848-6.43992 25.1854a39.092 39.092 0 0 0 .63176-5.87337 23.83214 23.83214 0 0 0-1.57543-7.65267 38.53925 38.53925 0 0 0-10.32144-14.6127c-.05389-.04952-.16227-.03969-.40342-.09163 1.96821 10.48778-2.00915 19.1671-7.98506 27.3059a.70489.70489 0 0 1-.30289-.84981c.79756-5.68361-1.14759-10.86327-2.94961-16.0651-.38447-1.10982-.93528-2.16269-1.306-3.27618-.38517-1.15707-.96515-1.08852-1.8315-.52258a8.17786 8.17786 0 0 0-2.98545 3.94647 40.161 40.161 0 0 0-2.33646 10.66676 103.45065 103.45065 0 0 0-.59394 11.48264c-.01287 1.217-.02129 2.43449-.03548 3.6524-.44452-1.17065-.85418-2.34621-1.23772-3.52544a69.02409 69.02409 0 0 1-3.27712-26.9896 25.94008 25.94008 0 0 0-4.10292 15.36487c-.6313-1.48259-1.2902-2.95409-1.88866-4.44989a49.88812 49.88812 0 0 1-3.22535-11.99578 11.92621 11.92621 0 0 1 .15871-4.85643 1.42824 1.42824 0 0 0-.65353-1.82587 9.19285 9.19285 0 0 1-3.16981-3.63511 40.78881 40.78881 0 0 1-3.6857-10.56258l-.00017-.00016a53.95432 53.95432 0 0 1-5.88677 18.61883c-1.42386 2.53469-2.70954 2.629-4.95842.67768-5.91617-5.13333-10.40855-11.41643-14.59982-17.94743A184.07524 184.07524 0 0 1 99.009 82.002a145.54739 145.54739 0 0 1-5.88919-25.27406 60.383 60.383 0 0 1-.72488-9.445 34.03031 34.03031 0 0 1 4.35958-16.3286c3.24484-5.65382 8.39347-8.74183 14.64724-10.04582 8.71235-1.81669 14.92167 2.29177 19.77193 8.90777 5.12071 6.985 8.06554 15.02828 10.37409 23.29806a137.76514 137.76514 0 0 1 3.87279 21.00107c.7248 6.15161 1.17867 12.31281 1.41638 18.50559.14076 3.66744.02869 7.31352-.04188 10.96923q1.46328-3.83409 2.92671-7.66819c.216 6.86635.43165 13.66376 2.59576 20.26348a91.03692 91.03692 0 0 1 5.03891-15.90227l.00031.00008q.26484-.12039.52952-.24028l.00008-.00015c-.01123-.67771.01-1.35774-.03852-2.03286-.71786-9.98087-1.52915-19.95162-3.22242-29.8275-1.78962-10.4378-3.68367-20.8532-7.08089-30.92033a66.8686 66.8686 0 0 0-11.371-21.4662A23.47151 23.47151 0 0 0 110.035 8.053c-8.36566 2.62625-15.48842 7.01029-20.30926 14.55607-5.33564 8.35143-6.98582 17.70943-6.89248 27.3874A112.64592 112.64592 0 0 0 86.529 75.46922c3.36532 13.85583 8.59919 27.03531 14.44447 39.99539 5.04317 11.18155 10.75035 22.0209 16.79068 32.69015 1.08744 1.92078.92763 2.63616-.54988 4.04419a59.52762 59.52762 0 0 0-16.4586 26.87943c-2.31221 7.95238-1.93468 16.0239-1.21651 24.12672q.96531 10.89158 1.81209 21.79348c.3667 4.73858.42534 9.509.9767 14.2236 1.0369 8.866 1.64761 17.76067 2.25715 26.65894a100.763 100.763 0 0 0 2.36506 18.42456c2.08433 8.08014 5.33128 15.74442 8.4539 23.45029 1.42161 3.50812 2.94643 6.97444 4.54346 10.74007.21353-.74259.33683-1.1712.46-1.59971a110.59412 110.59412 0 0 1 3.29523-13.22825 76.31231 76.31231 0 0 1 12.32794-21.88191c5.6617-7.09719 11.84224-13.68544 19.48517-18.7234a38.233 38.233 0 0 1 17.04585-6.52618 37.515 37.515 0 0 1 12.50325.82618c9.186 2.14043 17.11035 6.75546 24.41568 12.50481a86.926 86.926 0 0 1 24.63357 30.76927c.66779 1.37489 1.21638 2.80765 1.82034 4.2135a130.07287 130.07287 0 0 0 8.718-27.3297c1.57368-8.77466 2.89936-17.59378 4.3407-26.3923 1.41926-8.66362 2.88477-17.3192 4.10166-26.01556q2.01407-14.39426 3.73539-28.82539a65.73689 65.73689 0 0 0-.16338-20.42054c-2.04806-10.64453-6.698-19.73254-15.42858-26.47123-1.795-1.38549-1.93447-2.29637-.73954-4.30942a287.10292 287.10292 0 0 0 16.01644-31.71053z"/><path d="M235.93468 304.85047v-.00008c-.67335-.03767-.695-.6497-.861-1.064a80.01039 80.01039 0 0 0-12.79188-20.90224 83.23716 83.23716 0 0 0-22.05917-18.9325 49.034 49.034 0 0 0-20.24538-7.05773 33.615 33.615 0 0 0-17.26219 2.6927 56.12013 56.12013 0 0 0-15.51958 10.58807 99.88128 99.88128 0 0 0-15.149 17.71846 66.58273 66.58273 0 0 0-10.384 24.78627c-.2664 1.43112-.24852 2.989-1.2548 4.21685a19.722 19.722 0 0 1 .47892 4.63439 28.45288 28.45288 0 0 0 7.27216 16.89594 36.89767 36.89767 0 0 0 16.25976 9.70114c11.05809 3.57667 22.54487 4.22863 34.02291 4.77356a124.66031 124.66031 0 0 0 14.78387-.33823 51.89251 51.89251 0 0 0 30.515-12.08735 39.473 39.473 0 0 0 11.7981-15.53089c2.64707-6.64124 2.29516-13.35607.39628-20.09436zm-21.97542 23.11269a42.03518 42.03518 0 0 1-23.52285 15.35932 42.59714 42.59714 0 0 1-24.6604-1.49967 55.41041 55.41041 0 0 1-25.53407-18.18444 1.22794 1.22794 0 0 1-.43586-.9781c1.6749.93443 3.26784 1.8336 4.87045 2.71539a96.70946 96.70946 0 0 0 25.711 10.30561 48.09947 48.09947 0 0 0 36.1028-6.07222 110.64042 110.64042 0 0 0 10.22271-6.936 1.49423 1.49423 0 0 1 1.014-.4818 21.785 21.785 0 0 1-3.76778 5.77191z" class="cls-4"/><path d="M209.48076 269.86762c-7.30531-5.74935-15.22963-10.36441-24.41567-12.50481a37.515 37.515 0 0 0-12.50325-.82618 38.233 38.233 0 0 0-17.04584 6.52617c-7.64293 5.038-13.82347 11.62622-19.48517 18.72341a76.31231 76.31231 0 0 0-12.32794 21.88191 110.59607 110.59607 0 0 0-3.29524 13.22825c1.00625-1.22789.9884-2.78574 1.2548-4.21686a66.58276 66.58276 0 0 1 10.384-24.78626 99.88058 99.88058 0 0 1 15.149-17.71848 56.12013 56.12013 0 0 1 15.51958-10.58807 33.61494 33.61494 0 0 1 17.26219-2.6927 49.034 49.034 0 0 1 20.24538 7.05773 83.23724 83.23724 0 0 1 22.05917 18.93248 80.01039 80.01039 0 0 1 12.79188 20.90224c.16611.41426.18763 1.02629.861 1.064-.60392-1.40585-1.1525-2.83861-1.82035-4.2135a86.92584 86.92584 0 0 0-24.63354-30.76933z" class="cls-4"/><path d="M167.12762 107.5903a37.72043 37.72043 0 0 1 5.356 9.90093 51.56578 51.56578 0 0 1 3.9294-11.71559.44755.44755 0 0 0 .02731-.06792c.00577-.00851.01505-.02278.03346-.05335.22742-.37635.36263-.9756.86393-.93263.5434.04663.51806.67637.58754 1.09134a56.01166 56.01166 0 0 0 1.76233 7.80873 28.30221 28.30221 0 0 0 1.80327 4.537c.38283.73385.73915.70147 1.13688.03759 2.43908-4.07118 3.91809-8.35011 2.92634-13.19015-.11776-.57475-.57047-1.18632-.03315-1.78881.04344.00264.08353.00872.124.01451l-.03166-.29h.00016l-.00016-.00008a2.43354 2.43354 0 0 0-1.24232-.98287 16.274 16.274 0 0 0-4.73-1.15115v.0004q-1.19575-.00116-2.39159-.002v-.00038a15.1324 15.1324 0 0 0-10.92179 6.06161v.00014a2.73961 2.73961 0 0 1 .80005.72268z" class="cls-6"/><path d="M185.66269 103.23408c.85411.1318 1.03534.94456 1.3444 1.55175a60.01412 60.01412 0 0 1 4.46493 10.07758c.78446-.56531.97436-1.49834 1.76-1.79212-.27163-.23176-.22725-.57351-.29619-.87268a14.75252 14.75252 0 0 0-4.74521-7.83115c-.7344-.65345-1.43424-1.468-2.57716-1.42551a.20736.20736 0 0 1 .08469.19817.19419.19419 0 0 1-.03546.09396z" class="cls-6"/><path d="M179.64093 100.80786l-.03766-16.93722-.002-.0007a2.19639 2.19639 0 0 1-2.33724-.1665l-.01474 17.1024a2.19281 2.19281 0 0 1 2.39164.00202z" class="cls-7"/><path d="M157.73968 101.50919a35.05547 35.05547 0 0 0 .70429 7.78955 81.15354 81.15354 0 0 0-.55768-9.25581l-.00008.00007a.85824.85824 0 0 0-.22871.39391c.31317.27573.08662.74068.08218 1.07228z" class="cls-8"/><path d="M145.98 105.23824c.16227-.589.21937-1.23982.79233-1.63014-.60875-.63792-.38406-1.42153-.30724-2.15085a39.64031 39.64031 0 0 0-.00484-8.26667c-.24245-2.3416-.13374-4.69856-.28433-7.052a204.60245 204.60245 0 0 0-2.98718-24.24886 94.63714 94.63714 0 0 0-8.45913-25.59187 34.403 34.403 0 0 0-9.63383-12.12845 15.75009 15.75009 0 0 0-12.70648-3.03075c-8.45174 1.40585-14.33732 6.05459-17.31475 14.26565a36.32641 36.32641 0 0 0-2.32 13.98046A98.00368 98.00368 0 0 0 95.10416 66.045a166.005 166.005 0 0 0 10.80075 33.01551 180.10165 180.10165 0 0 0 20.82365 35.58674 51.248 51.248 0 0 0 8.01132 8.47372c1.91572 1.5878 2.98038 1.46449 4.22894-.69651a48.95332 48.95332 0 0 0 4.98174-13.74945 36.1673 36.1673 0 0 1 1.14356-4.72415c.02231.00336.04157.00874.06239.01311a4.27584 4.27584 0 0 1-.68206-2.785 50.06293 50.06293 0 0 1 1.50555-15.94073z" class="cls-6"/><path d="M210.14825 106.80209c-.32682-2.97581-.2742-5.96655-.42019-8.94647-.18592-3.79355.2801-7.59075.44721-11.38689.25127-5.709.911-11.37058 1.69151-17.02136A107.92506 107.92506 0 0 1 219.245 41.396c2.445-5.694 5.2281-11.17928 9.88776-15.44955a16.91955 16.91955 0 0 1 9.37695-4.891A21.29434 21.29434 0 0 1 259.9634 32.3967a36.70461 36.70461 0 0 1 3.301 21.16717 150.29736 150.29736 0 0 1-9.052 36.31844 184.865 184.865 0 0 1-20.67787 39.38914 67.5674 67.5674 0 0 1-11.43531 13.4028c-2.56137 2.17907-3.54823 2.02686-5.1576-.981a50.54328 50.54328 0 0 1-4.07024-10.93168c-.16136-.604-.137-1.34581-.86526-1.64629l-.002.00255c.10427.29564.23482.58482.30875.88786a47.92352 47.92352 0 0 0 4.67923 12.53156c1.44165 2.53064 2.74261 2.68661 4.97091.78953a56.88146 56.88146 0 0 0 8.47473-9.14977 180.47206 180.47206 0 0 0 22.10393-39.14659 157.46 157.46 0 0 0 10.6948-38.37528 45.06116 45.06116 0 0 0-.36032-17.34913c-1.35609-5.56852-3.68161-10.68516-8.42557-14.17394-5.05763-3.71939-10.78062-5.51432-17.0897-4.20937-4.84215 1.00149-8.46592 4.09137-11.40459 7.85856-5.40177 6.925-8.52879 14.99615-10.88114 23.345-3.6318 12.88982-5.021 26.11991-5.53411 39.4644-.106 2.75812-.26449 5.51148-.14381 8.27149.15373 3.51272.498 7.01788.4174 10.53965a.85664.85664 0 0 0 .09177-.00172 6.19141 6.19141 0 0 0 .24185-3.59799z" class="cls-6"/><path d="M209.87062 156.34592c.04234.2144-.15717.57953.198.59738.28863.01451.30953-.33371.33464-.58426a.34841.34841 0 0 1-.53268-.01312z" class="cls-9"/></svg>
