<svg xmlns="http://www.w3.org/2000/svg" width="64" height="64"><path d="M38.307 14.92L10.572 7.01c-.903-.258-1.875-.077-2.625.488s-1.19 1.45-1.19 2.39v51.12a2.99 2.99 0 0 0 3.688 2.912L38.177 57.3c1.35-.318 2.305-1.525 2.3-2.913v-36.59c-.005-1.335-.89-2.507-2.172-2.878z" fill="#1a237e"/><path d="M57.2 13.1c-.008-1.332-.9-2.5-2.17-2.87L19.735.116c-.904-.26-1.877-.08-2.628.486s-1.193 1.45-1.192 2.39v38.8c-.003.918.417 1.786 1.138 2.355s1.664.773 2.556.555l35.342-8.5c1.35-.32 2.3-1.528 2.294-2.915z" fill="#10a6fa"/><path d="M38.307 14.92L15.91 8.532v33.252c-.003.918.417 1.786 1.138 2.355s1.664.773 2.556.555L40.48 39.67V17.797c-.005-1.336-.89-2.508-2.175-2.878z" fill="#3351ff"/></svg>