<svg xmlns="http://www.w3.org/2000/svg" xmlns:xlink="http://www.w3.org/1999/xlink" width="64" height="64"><style><![CDATA[.B{fill-rule:evenodd}.C{clip-path:url(#A)}.D{fill:#0eb1e4}.E{fill:#158bc2}.F{fill:#32449b}.G{fill:#35393b}]]></style><defs><clipPath id="A"><path d="M297 782.84l2574-.043v398.16L297 1181z"/></clipPath><clipPath ><path d="M-32768 32767h65535v-65535h-65535z"/></clipPath><clipPath ><path d="M-32768 32767h65535v-65535h-65535z"/></clipPath><clipPath ><path d="M-32768 32767h65535v-65535h-65535z"/></clipPath><path id="E" d="M457.193 214.13h-63.677v-34.936h63.677c4.91 0 8.27.74 10.08 2.2 1.793 1.477 2.698 4.054 2.698 7.783v15.1c0 3.64-.905 6.198-2.698 7.657-1.8 1.46-5.17 2.198-10.08 2.198m-91.53-103.852v125.6h104.082c9.68 0 16.677-1.928 21.012-5.766s6.5-10.035 6.5-18.593V182.04c0-8.47-2.176-14.648-6.5-18.522-4.335-3.892-11.333-5.82-21.012-5.82H453.85l56.192-47.422h-40.647l-49.055 47.422h-26.825v-47.422zm200.7 23.645h93.375v79.492h-93.375zm-28.322 72.25c0 11.405 2.07 19.206 6.214 23.404s12.116 6.306 23.954 6.306h89.562c11.82 0 19.8-2.108 23.954-6.306s6.213-12 6.213-23.404v-66.178c0-11.495-2.07-19.314-6.213-23.476s-12.134-6.234-23.954-6.234h-89.562c-11.838 0-19.81 2.07-23.954 6.234s-6.214 11.98-6.214 23.476zm287.85-41.35h-64.6v-31.964h64.6c5.38 0 9 .83 10.88 2.505 1.88 1.657 2.82 4.576 2.82 8.792v9.495c0 4.198-.94 7.117-2.82 8.738s-5.5 2.433-10.88 2.433m0 50.6h-64.6v-29.944h64.6c4.91 0 8.304.685 10.184 2.036 1.88 1.333 2.82 3.675 2.82 7.008v11.874c0 3.243-.94 5.567-2.82 6.955s-5.275 2.07-10.184 2.07M733.437 110.28v125.6h104.306c9.592 0 16.54-1.946 20.838-5.837 4.3-3.874 6.458-10.054 6.458-18.522v-15.333c0-6.017-1.8-10.828-5.414-14.432s-8.79-5.855-15.545-6.72c6.98-.955 12.377-3.53 16.172-7.7 3.813-4.218 5.7-9.677 5.7-16.415v-16.035c0-8.307-2.96-14.487-8.878-18.54-5.9-4.037-14.883-6.054-26.93-6.054zm173.055 125.6h28.322V110.3h-28.322zm76.125-125.598v125.58h19.34l85.663-74.015a134.671 134.671 0 0 0 7.712-6.955 77.106 77.106 0 0 0 6.11-6.702l-.923 14.973c-.157 2.918-.226 5.17-.226 6.756v65.943h25.432v-125.58h-19.34l-89.337 77.582a210.38 210.38 0 0 0-5.64 5.351 64.087 64.087 0 0 0-4.49 4.865c.382-3.874.66-7.53.85-11 .192-3.442.296-6.433.296-8.973v-67.835z"/><path id="F" d="M239.068 309.34H69.63c-22.1 0-39.997-17.907-39.997-39.997V99.905c0-22.1 17.907-39.997 39.997-39.997h169.438c22.1 0 39.997 17.908 39.997 39.997v169.438c0 22.1-17.907 39.997-39.997 39.997"/><path id="G" d="M239.592 309.34l-48.278-.032L39.538 73.642c1.498-1.713 3.12-3.314 4.886-4.75l234.64 118.303v82.175c0 21.913-17.627 39.687-39.472 39.97"/><path id="H" d="M228.493 297.927c-7.252 0-13.145-5.893-13.145-13.145 0-7.245 5.893-13.145 13.145-13.145s13.145 5.9 13.145 13.145c0 7.252-5.893 13.145-13.145 13.145"/></defs><g transform="matrix(.48544 0 0 -.48544 0 59.7)" class="C"><path d="M466.344 152.2c-17.25-12.143-38.285-19.276-60.986-19.276-21.902 0-42.252 6.64-59.148 18.01 20.305 8.454 41.246 18.94 61.57 30.856 19.326-11.332 39.2-21.36 58.564-29.588M156.1 231.023c0 53.285 43.2 96.484 96.493 96.484 13.88 0 27.075-2.93 39-8.205a96.784 96.784 0 0 0-5.28 31.616c0 53.477 43.357 96.825 96.84 96.825 9.33 0 18.354-1.32 26.893-3.782l-1.96.134h-.607c-26.35-1.27-47.32-23.06-47.32-49.716 0-26.662 20.972-48.45 47.32-49.716h.608c26.346 1.267 47.32 23.054 47.32 49.716 0 12.27-4.445 23.512-11.812 32.193 13.35-10.678 23.8-24.812 30.027-41.05 18.694 10.145 40.108 15.906 62.873 15.906 72.9 0 131.98-59.083 131.98-131.967 0-49.802-27.585-93.158-68.312-115.623.282 18.095-15.896 44.3-47.838 73.727-3.29-8.17-9.722-13.716-17.085-16.557 23.77-29.122 20.43-50.184-11.84-50.184-25.268 0-62.254 12.9-97.584 32.482 19.18 12.357 29.654 18.968 45.607 33.415 7.47 6.767-6.017 22.882-22.492 8.078-11.61-10.43-26.996-21.37-41.15-30.37-14.147 9.002-37.53 26.605-49.145 37.033-16.474 14.805-29.965-1.312-22.494-8.076 15.958-14.446 34.428-27.722 53.606-40.08-21.035-11.647-42.656-20.947-62.046-26.555 0 0-2.713-.8-4.204-1.167-11.55-3.074-22.205-4.76-31.327-4.76-32.273 0-35.616 21.063-11.842 50.185-7.36 2.84-13.8 8.386-17.082 16.557-41.22-37.966-56.186-70.57-43.427-87.317-37.16 13.413-63.718 48.995-63.718 90.775m367.153-6.566c8.215 0 15.688 5.197 15.688 15.686 0 52.254-30.084 97.482-73.88 119.314a69.28 69.28 0 0 0-23.547-23.918c38.594-14.5 66.055-51.743 66.055-95.396 0-10.5 7.47-15.686 15.685-15.686m-230.947 0c8.22 0 15.692 5.197 15.692 15.686 0 43.653 27.46 80.896 66.053 95.396a69.312 69.312 0 0 0-23.55 23.918c-43.79-21.832-73.88-67.06-73.88-119.314 0-10.5 7.472-15.686 15.685-15.686" fill="#0090d1"/><g fill="#005bab" class="B"><path d="M409.97 343.298v-138.02l-2.782-1.78c-14.15 8.993-31.742 19.608-43.355 30.036-16.475 14.798-26.306-4.824-18.832-11.6 15.956-14.442 24.976-17.218 44.153-29.565-10.486-5.8-21.115-11.033-31.543-15.503l-67.458 46.054 1.223-.036c5.816 0 11.252 2.6 13.934 7.838 1.327 2.276 2.097 5.105 2.097 8.474 0 17.47 4.395 33.908 12.147 48.275 11.644 21.234 30.636 37.87 53.556 46.48l-.506.314.854.324a69.29 69.29 0 0 0-23.546 23.916 133.307 133.307 0 0 1-31.154-21.542c10.308 17.5 24.47 33.027 41.513 45.592 4.558-21.802 23.38-38.38 46.263-39.483h.6zm-119.31-25.573l-.313.926.66-.3a96.283 96.283 0 0 0-3.338 12.203 122.066 122.066 0 0 0 6.304-5.27l8.044-7.2c-16.54-22.195-26.33-49.714-26.33-79.52 0-2.486.424-4.676 1.167-6.567l-94.53 64.538c17.54 18.12 42.123 29.386 69.34 29.386 13.88 0 27.067-2.93 38.994-8.205m119.3-139.318v-37.275l-33.258 22.706a531.305 531.305 0 0 1 30.13 16.39z"/><path d="M542.783 390.3l-21.955-85.024a133.815 133.815 0 0 1-24.053 30.606zm-36.64-141.882L485 166.488c-9.46 2.85-19.418 6.556-29.55 10.956l-8.865 4.004a362.187 362.187 0 0 0-21.357 10.93c19.18 12.348 25.755 15.53 41.712 29.973 7.467 6.762-2.12 26.315-18.595 11.5-11.614-10.428-26.996-21.37-41.148-30.362-4.122 2.612-9.02 5.963-14.182 9.645l83.02 98.2c16.68-16.337 27.76-38.356 30.118-62.926m-99.3-68.2c19.2-11.265 38.955-21.243 58.2-29.44-17.123-11.848-37.892-18.792-60.292-18.792-21.71 0-41.894 6.523-58.7 17.715 20.062 8.395 40.716 18.752 60.78 30.517m-26.972 17.377l8.57-5.618a355.095 355.095 0 0 0-23.26-11.754z"/></g><path d="M540.928 399.735l81.084-231.2a132.462 132.462 0 0 0-22.451-15.618c.28 18.096-15.9 44.302-47.84 73.725l-.36-.63-.204-.48-.604-1.362-12.21 15.046c0 52.254-30.086 97.477-73.88 119.3a68.875 68.875 0 0 0-10.892-13.995l-11.98 14.872a49.746 49.746 0 0 1 6.955 9.842 49.56 49.56 0 0 1 6.266 24.198c0 7.992-1.88 15.548-5.233 22.242l2.938.234a96.922 96.922 0 0 0 20.162-31.97c18.688 10.14 40.102 15.904 62.867 15.904zm-295.232-74l-81.088-136.583c-5.832 12.427-9.083 26.296-9.083 40.927 0 16.33 4.05 31.71 11.208 45.184 15.42 28.52 44.794 48.4 78.963 50.472" class="B F"/><path d="M667.512 267.9c0-23.395-6.096-45.37-16.77-64.42a132.43 132.43 0 0 0-20.415-27.132l14.485 165.57c14.326-21.106 22.7-46.588 22.7-74.018" fill="#005bab" class="B"/><g fill="#fff"><path d="M411.95 312.595h-5.635v18.697h5.635z"/><path d="M475.16 302.776l-13.22-13.224-3.985 3.985 13.22 13.224z" class="B"/><path d="M499.4 237.185l-18.7.002v5.63h18.7zm-182.058 7.517l18.7-.005v-5.632h-18.7zm29.17 62.938l13.226-13.22-4-3.986-13.22 13.224z"/></g><g class="B"><path d="M196.8 69.56c-.512-6.112-2.804-10.9-6.88-14.365-4.176-3.36-9.677-5.042-16.502-5.042-7.947 0-14 2.395-18.186 7.183-4.176 4.584-6.265 11.358-6.265 20.323 0 9.17 2.14 16.046 6.42 20.63 4.38 4.787 10.696 7.18 18.95 7.18 6.723 0 12.072-1.68 16.045-5.042 3.77-3.26 5.908-7.844 6.42-13.752h-6.572c-2.446 0-4.178 1.07-5.197 3.21a14.898 14.898 0 0 1-2.598 3.514c-2.036 1.528-4.737 2.293-8.098 2.293-4.687 0-8.303-1.527-10.85-4.585-2.444-3.056-3.667-7.537-3.667-13.447 0-5.704 1.223-10.085 3.667-13.142 2.344-3.158 5.86-4.737 10.545-4.737 3.26 0 5.96.815 8.1 2.445 1.937 1.53 3.312 3.973 4.126 7.335zm5.275 34.382h5.5c1.427 0 2.65-.484 3.668-1.452s1.528-2.164 1.528-3.6V51.374h-10.697zM229.4 81.936c-2.14-2.345-3.107-5.833-2.903-10.468s1.07-7.868 2.597-9.702c.612-.814 1.682-1.504 3.21-2.062a7.3 7.3 0 0 1 4.662-.154c1.58.458 2.98 1.605 4.202 3.44s1.885 4.788 1.987 8.86c0 3.67-.585 6.42-1.758 8.253s-2.52 3.005-4.05 3.515a7.42 7.42 0 0 1-4.585.077c-1.526-.46-2.647-1.045-3.36-1.76m-7.335-26.892c-2.14 1.834-3.668 4.303-4.584 7.4s-1.376 6.343-1.376 9.704c0 2.75.38 5.5 1.145 8.252s1.962 5.042 3.6 6.876c2.65 3.056 6.064 4.864 10.24 5.424s7.947.23 11.31-.994c3.87-1.526 6.724-4.175 8.558-7.946 1.732-3.36 2.6-7.283 2.6-11.766 0-3.26-.358-6.06-1.07-8.403s-1.63-4.33-2.75-5.96c-2.445-3.362-5.553-5.45-9.32-6.265a20.819 20.819 0 0 0-10.162-.231c-3.414.766-6.14 2.065-8.176 3.9m71.175 36.98v-23.84c0-7.23-1.885-11.97-5.653-14.2S279.68 50.6 275.2 50.6c-4.38.204-8.38 1.426-11.995 3.668s-5.426 6.877-5.426 13.906v23.838h10.697v-25.98c0-2.444.713-4.227 2.14-5.348s3.054-1.68 4.9-1.68a8 8 0 0 1 4.966 1.68c1.478 1.12 2.216 2.903 2.216 5.348v20.783c0 1.424.483 2.647 1.45 3.667s2.216 1.528 3.745 1.528zm13.642-20.018c0-4.074.765-7.182 2.292-9.322s3.72-3.208 6.572-3.208c2.75 0 4.89 1.07 6.418 3.208 1.427 2.14 2.14 5.248 2.14 9.322 0 3.668-.764 6.57-2.292 8.7-1.63 2.038-3.82 3.055-6.57 3.055-2.648 0-4.737-1.07-6.266-3.208-1.527-2.037-2.292-4.9-2.292-8.557m17.42 32.1h5.196c1.427 0 2.65-.534 3.668-1.605s1.528-2.266 1.528-3.6V69.1c0-7.235-2.087-12.123-6.265-14.67s-8.71-3.822-13.6-3.822a24.07 24.07 0 0 0-7.796 1.3c-2.546.866-4.584 2.268-6.112 4.202-2.954 3.77-4.432 8.914-4.432 15.435 0 6.42 1.478 11.562 4.432 15.433 3.057 3.973 6.98 5.96 11.767 5.96 2.547 0 4.788-.5 6.725-1.53 2.037-1.22 3.667-2.8 4.89-4.735zm44.64-52.72h-10.85v19.56l-19.103 33.006h13.295l11.156-22.616 9.017 19.56c1.018 2.037 2.7 3.056 5.043 3.056h8.7l-17.27-33.006zm50.337 40.647v-23.84c0-7.23-1.885-11.97-5.654-14.2s-7.895-3.363-12.38-3.363c-4.38.204-8.377 1.426-11.995 3.668s-5.425 6.877-5.425 13.906v23.838h10.697v-25.98c0-2.444.714-4.227 2.14-5.348s3.056-1.68 4.9-1.68a8 8 0 0 1 4.966 1.68c1.477 1.12 2.215 2.903 2.215 5.348v20.783c0 1.424.484 2.647 1.453 3.667s2.215 1.528 3.743 1.528zm15.512-20.63c0-7.03 2.038-10.926 6.114-11.688s7.08.176 9.015 2.826c.917 1.12 1.58 2.877 1.986 5.27s.434 4.765.076 7.108-1.196 4.43-2.52 6.265-3.26 2.75-5.807 2.75c-3.464 0-5.807-1.272-7.03-3.82s-1.834-5.45-1.834-8.7m17.422-17.572v2.597c-1.834-2.852-4.305-4.635-7.4-5.348s-6.193-.46-9.247.764-5.68 3.488-7.87 6.8-3.288 7.667-3.288 13.067c0 6.316 1.453 11.435 4.356 15.357s7.563 5.883 13.983 5.883c4.9 0 9.424-1.324 13.6-3.974s6.265-7.54 6.265-14.668V52.75c0-7.132-2.088-11.995-6.265-14.593s-8.7-3.897-13.6-3.897c-9.374 0-15.18 4.38-17.423 13.14h11.156c.815-1.425 2.063-2.52 3.745-3.283s3.36-.968 5.043-.61 3.2 1.35 4.584 2.98 2.165 4.074 2.37 7.335m42.453-.765a18.841 18.841 0 0 0-6.8-2.063c-2.395-.253-4.5-.382-6.343-.382-3.668 0-6.876.994-9.628 2.98s-4.125 5.272-4.125 9.857c0 4.28 1.248 7.335 3.744 9.17s5.678 3.056 9.55 3.668c.5 0 1.12.074 1.834.228s1.527.28 2.445.383c4.482.61 6.724 1.934 6.724 3.972 0 1.528-.8 2.52-2.37 2.98s-3.03.688-4.355.688c-1.426 0-2.7-.204-3.82-.612s-1.936-1.17-2.445-2.292h-10.24c.408 3.158 1.833 5.757 4.28 7.794 2.75 2.344 6.67 3.515 11.766 3.515 5.706 0 9.984-.968 12.837-2.904 2.955-2.037 4.43-4.9 4.43-8.558V67.573c0-4.077-.738-7.26-2.217-9.552s-3.234-3.946-5.27-4.966m-2.446 18.795c-1.427-.71-3.412-1.373-5.96-1.985l-3.515-.764c-1.833-.5-3.158-1.17-3.973-1.986-.713-1.122-1.07-2.243-1.07-3.362 0-1.53.458-2.75 1.376-3.668.916-.815 2.24-1.223 3.973-1.223 2.853 0 5.093.816 6.723 2.446s2.446 3.87 2.446 6.723z" class="F"/><path d="M511.2 59.778h5.194v-8.403h-8.404v5.194c0 2.14 1.07 3.2 3.2 3.2m48.66-2.14c-1.834-2.647-4.023-4.585-6.57-5.807-2.65-1.12-5.552-1.68-8.7-1.68-7.54 0-13.5 2.496-17.88 7.488-4.484 4.9-6.724 11.614-6.724 20.17 0 8.456 2.2 15.13 6.57 20.02 4.586 5.093 10.647 7.64 18.187 7.64 6.52 0 11.92-1.58 16.197-4.736 4.177-3.362 6.673-7.743 7.49-13.143h-7.336c-2.14 0-3.718.97-4.737 2.904-.714 1.222-1.732 2.343-3.056 3.362-2.036 1.426-4.737 2.14-8.1 2.14-4.38 0-7.845-1.58-10.39-4.737-2.546-3.36-3.822-7.844-3.822-13.448 0-5.703 1.326-10.187 3.976-13.447 2.546-3.16 6.163-4.736 10.85-4.736 3.463 0 6.315.967 8.557 2.903 2.242 2.037 3.667 4.84 4.278 8.405H552.2c-1.53 0-2.83.534-3.898 1.604a5.3 5.3 0 0 0-1.604 3.895v3.516h21.852V51.375h-2.903c-2.853 0-4.635 1.426-5.35 4.28zm49.037 34.382v-23.84c0-7.23-1.885-11.97-5.653-14.2s-7.897-3.363-12.38-3.363c-4.38.204-8.38 1.426-11.995 3.668s-5.425 6.877-5.425 13.906v23.838h10.698v-25.98c0-2.444.713-4.227 2.14-5.348a7.68 7.68 0 0 1 4.888-1.68c1.834 0 3.492.558 4.968 1.68s2.216 2.903 2.216 5.348v20.783c0 1.424.484 2.647 1.45 3.667S602 92.02 603.54 92.02zm4.167-40.647v19.712c0 3.974.586 7.31 1.758 10.01s2.776 4.864 4.814 6.494c1.935 1.528 4.2 2.65 6.8 3.362a30.134 30.134 0 0 0 8.023 1.069h1.528V81.173h-3.516c-2.954 0-5.143-.714-6.57-2.14s-2.14-3.668-2.14-6.725V51.375zm61.98 40.647v-23.84c0-7.23-1.885-11.97-5.654-14.2S661.483 50.6 657 50.6c-4.38.204-8.378 1.426-11.995 3.668s-5.425 6.877-5.425 13.906v23.838h10.697v-25.98c0-2.444.712-4.227 2.14-5.348s3.056-1.68 4.9-1.68a8 8 0 0 1 4.966 1.68c1.477 1.12 2.215 2.903 2.215 5.348v20.783c0 1.424.484 2.647 1.453 3.667s2.215 1.528 3.743 1.528z" fill="#0090d1"/><path d="M153.006 38.837H420.13a24.041 24.041 0 0 1 3.075-4.5h-270.2zm314.466 0h207.07v-4.5H464.18a19.737 19.737 0 0 1 3.29 4.5" class="F"/></g></g><g transform="matrix(.35166 0 0 -.35166 0 4.286)" class="C"><use xlink:href="#E" fill="#df2127"/><use xlink:href="#F"/><use xlink:href="#G" fill="#de2428"/><use xlink:href="#H"/><use xlink:href="#E" fill="#df2127"/><use xlink:href="#F"/><use xlink:href="#G" fill="#de2428"/><use xlink:href="#H"/></g><g transform="matrix(.75254 0 0 -.75254 0 30.459)" class="C"><path d="M107.468 64.5c-29.677 0-53.726 24.05-53.726 53.725s24.05 53.727 53.726 53.727c29.667 0 53.727-24.05 53.727-53.727S137.135 64.5 107.468 64.5m100.872 7.338c-3.192 5.455-10.065 7.382-15.63 4.503l-16.125 18.18a72.713 72.713 0 0 1 3.95 23.703 72.76 72.76 0 0 1-3.82 23.292l13.66 16.17c3.312-1.386 7.164-1.277 10.477.67 5.628 3.268 7.533 10.52 4.242 16.148-3.3 5.628-10.54 7.555-16.18 4.243-3.3-1.927-5.292-5.26-5.725-8.8L162.7 166c-10.585 12.208-25.132 20.867-41.67 23.984l-7.77 22.577c5.14 3.442 6.83 10.347 3.658 15.78-3.3 5.607-10.54 7.533-16.17 4.22-5.627-3.268-7.543-10.54-4.242-16.17a11.22 11.22 0 0 1 3.3-3.594l-7.8-23.205c-16.03-3.442-30.078-12.143-40.295-24.2l-22.924 4.286c-.108 1.775-.584 3.55-1.537 5.195-3.3 5.628-10.54 7.533-16.17 4.242s-7.532-10.542-4.242-16.17c3-5.15 9.33-7.142 14.676-4.913l16.083-18.42a72.886 72.886 0 0 1-3.192-21.41c0-8.333 1.396-16.322 3.972-23.767L21.88 75.118a11.782 11.782 0 0 1-11.018-.454 11.84 11.84 0 0 1-4.243-16.192c3.3-5.606 10.54-7.533 16.17-4.243 3.495 2.057 5.54 5.628 5.823 9.395l25.272 4.957c10-10.8 23.237-18.57 38.173-21.798l8.247-23.443c-4.6-3.593-6.018-10.087-2.987-15.26 3.3-5.63 10.542-7.533 16.18-4.243 5.618 3.3 7.523 10.542 4.233 16.2a12.104 12.104 0 0 1-3.247 3.571l7.868 23.076c15.25 3.16 28.768 11.06 38.93 22.123l25.23-4.87c.228-1.386.65-2.75 1.418-4.027 3.28-5.63 10.52-7.533 16.17-4.243 5.628 3.3 7.52 10.563 4.242 16.17M97.424 114.06c-.596 2.013-.823 3.744-.714 5.206.118 1.633.65 3.343 1.57 5.053.94 1.7 2.012 3.096 3.213 4.135l30.045 25.76c-9.156 6.104-20.607 8.767-32.274 6.537-23.497-4.545-38.856-27.252-34.33-50.738 0 0 .302-2.078 1.363-5.24a12.71 12.71 0 0 1 .205-.584l.38-1.082c.475-1.213.95-2.402 1.492-3.572l.044.023c3.052-6.364 8.658-14.287 18.756-19.612.163-.065.325-.152.487-.24.498-.258.996-.496 1.494-.734a48.24 48.24 0 0 0 1.017-.455c.152-.064.303-.13.455-.216v.022c7.652-3.247 16.3-4.32 25.055-2.642 4.167.802 8.085 2.208 11.7 4.05L101.2 107.935c-1.926 2.012-3.193 4.1-3.766 6.125" fill="#414142"/><path d="M142.264 144.018l-25.49-20.976-2.64-2.294c-.65-.606-1.007-1.45-1.083-2.533-.086-1.45.216-2.652.996-3.657a49.386 49.386 0 0 1 2.792-3.27l22.166-22.77c9.178 9.784 13.724 23.702 10.996 37.88-1.266 6.602-3.97 12.577-7.738 17.62" fill="#28aae1"/><path d="M258.56 117.934l20.736 22.88h22.068l-24.06-26.603 25.52-37.08h-21.267L264.934 100.8h-10.228V77.132H236.23v94.377h18.475v-53.575zm81.8 9.18c-10.5 0-17.686-7.035-17.686-17.686 0-10.758 7.187-18.203 17.686-18.203s17.544 7.445 17.544 18.203c0 10.65-7.046 17.686-17.544 17.686m25.92 7.057c6.517-6.256 9.84-14.503 9.84-24.743 0-10.367-3.323-18.723-9.84-25.108s-15.15-9.57-25.92-9.57-19.406 3.184-26.052 9.57-9.968 14.74-9.968 25.108c0 10.24 3.323 18.487 9.828 24.743 6.656 6.233 15.422 9.437 26.192 9.437s19.405-3.204 25.92-9.437m73.945-25.392c0 12.5-5.585 18.746-16.884 18.746-4.254 0-9.168-.282-14.882-.8v-33.9c4.654-.67 9.968-1.06 16.083-1.06 9.167 0 15.683 7.445 15.683 17.013m17.945.52c0-9.83-2.923-17.815-8.637-23.92-5.714-5.975-13.16-9.048-22.07-9.048-7.576 0-13.82.28-19.005.8V46.436h-18.475v93.296c15.812 2.013 27.913 3.074 36.28 3.074 20.076 0 31.376-12.902 31.906-33.508m14.416-13.81c9.697-3.723 18.335-5.584 25.78-5.584 7.306 0 10.9 1.58 10.9 4.912 0 2.924-2.793 4.395-7.047 5.326-2.262.65-3.452.78-6.516 1.32l-3.452.67c-15.012 2.793-21.938 8.376-21.938 19.136 0 13.29 10.768 21.257 27.912 21.257 9.438 0 18.345-1.58 26.722-4.785l-4.123-13.94c-10.228 2.923-17.945 4.373-23.26 4.373-5.843 0-9.166-2.12-9.166-5.455 0-2.922 2.12-3.983 5.844-5.174 2.262-.54 3.322-.67 6.527-1.32l3.712-.67c15.543-3.182 22.058-7.708 22.058-19.006 0-14.222-11.16-21.41-28.845-21.41-9.838 0-19.405 1.863-28.843 5.585z" fill="#414142"/></g><g transform="matrix(.90474 0 0 -.90474 93.24 64)" class="C"><g class="B"><path d="M84.37 259.072c3.25 4.648 6.387 6.268 8.428 3.558 6.604-8.766 16.098-13.4 25.75-13.87 9.653.482 19.148 5.105 25.752 13.87 2.04 2.7 5.178 1.1 8.427-3.557 14.936-21.373 16.96-42.467 7.58-56.955 18.425-18.712 13.306-44.335 6.683-56.69-2.845-5.307-3.956-4.904-7.1-2.06l-3.384 3.074c-1.646-6.406-3.2-10.755-6.063-16.792-3.83-8.074-12.206-9.443-12.677.077H99.33c-.47-9.52-8.848-8.15-12.676-.077-2.863 6.037-4.418 10.386-6.063 16.792a1006.18 1006.18 0 0 0-3.383-3.074c-3.145-2.844-4.256-3.247-7.1 2.06-6.625 12.356-11.743 37.98 6.68 56.7-9.38 14.49-7.356 35.583 7.58 56.956" class="D"/><path d="M118.55 248.76c9.652.48 19.147 5.103 25.75 13.87 2.04 2.7 5.18 1.1 8.428-3.558 14.936-21.374 16.96-42.468 7.58-56.955 18.425-18.712 13.306-44.335 6.683-56.7-2.845-5.31-3.956-4.906-7.102-2.06l-3.382 3.072c-1.646-6.405-3.2-10.755-6.063-16.8-3.83-8.075-12.206-9.444-12.677.075H118.55V185.2c0 1.644 1 2.917-4.972 3.64-14.048 1.703-27.2 10.362-31.632 22.716a22.948 22.948 0 0 0-1.36 7.77c0 5.292 2.378 9.896 6.616 13.037 7.755 5.748 19.62 3.804 24.642-4.652 2.843-4.787 3.254-10.717 3.84-16.12.216-2 .38-4.142.73-6.128.164-.93.42-2.232 1.37-2.68.514-.24.18-.16.764-.16z" class="E"/><path d="M110.582 101.324c-.436-.98-1.648-7.338-3.126-8.3-5.35-3.444-20.937 34.846-21.954 39.1 18.74 1.757 47.37 1.794 66.1.038-.996-4.186-16.554-42.634-21.968-39.148-1.478.952-2.7 7.3-3.127 8.3-.78-2.347-4.06-16.9-8.377-15.908-4.22.97-6.55 12.882-7.557 15.908" class="D"/><path d="M118.55 133.48c11.844.01 23.7-.42 33.062-1.298-.28-1.173-1.7-5.033-3.722-9.907l-.025-.06-.002-.004-.026-.064-.028-.065-.026-.064-.08-.195-.055-.13-.026-.066-.03-.065-.027-.065-.027-.066-.018-.042-.01-.024-.027-.066-.056-.132-.028-.065-.027-.066-.056-.134-.056-.132-.056-.134-.03-.067-.01-.024-.02-.043-.056-.134-.057-.135-.028-.067-.058-.135-.03-.068-.03-.067-.03-.07-.03-.067-.03-.07v-.004l-.027-.064-.03-.068-.028-.068-.266-.62-.024-.053-.006-.016-.06-.138-.12-.278-.182-.418c-5.3-12.16-12.94-27.17-16.414-24.93-1.477.952-2.7 7.3-3.127 8.3-.756-2.272-3.853-15.984-7.967-15.956v33.046c0 2.078-.246 4.92-5.336 4.795-7.397-.18-16.15-1.163-23.494-2.134-.658 1.508-1.83 4.54-2.403 5.92 9.252 1.155 20.984 1.776 31.184 1.776h.05z" class="E"/><path d="M118.55 192.932c2.028 0 4.057.15 6.066.436 14.764 2.1 31.898 12.9 31.898 29.487 0 5.292-2.38 9.896-6.617 13.037-7.755 5.748-19.62 3.804-24.64-4.652-2.844-4.787-3.256-10.717-3.84-16.12-.218-2-.382-4.142-.733-6.127-.163-.932-.42-2.233-1.37-2.68-.515-.242-.182-.162-.765-.162s-.25-.08-.765.16c-.95.448-1.207 1.75-1.37 2.68-.35 1.985-.515 4.116-.732 6.126-.585 5.404-.996 11.334-3.84 16.12-5.022 8.456-16.887 10.4-24.642 4.652-4.237-3.14-6.617-7.745-6.617-13.037 0-2.658.464-5.27 1.36-7.77 5.085-14.166 22.298-22.153 36.604-22.153" fill="#fff"/><path d="M118.55 192.933c2.028 0 4.058.15 6.066.436 14.764 2.11 31.9 12.9 31.9 29.487 0 5.292-2.38 9.895-6.618 13.036-7.754 5.75-19.62 3.804-24.64-4.65-2.843-4.787-3.255-10.718-3.84-16.12-.217-2-.38-4.14-.73-6.127-.164-.93-.42-2.232-1.37-2.68-.515-.242-.182-.16-.765-.16z" fill="#ddf4f9"/><path d="M135.872 229.223a7.261 7.261 0 1 0-7.26-7.261 7.26 7.26 0 0 0 7.26 7.26m-34.646 0a7.26 7.26 0 1 0 .001-14.52 7.26 7.26 0 0 0 0 14.52" class="G"/><path d="M103.542 226.1a2.104 2.104 0 1 0-.001-4.208 2.104 2.104 0 0 0 .001 4.208m34.758 0a2.104 2.104 0 1 0-.001-4.208 2.104 2.104 0 0 0 0 4.208m-19.75-40.63c-10.678 0-19.368-8.514-19.652-19.123-.298.02-.598.03-.902.03a14.05 14.05 0 0 1-14.045-14.044 14.05 14.05 0 0 1 14.045-14.046h41.108a14.05 14.05 0 0 1 14.044 14.046c0 7.756-6.288 14.044-14.044 14.044-3.67 0-6.92-1.084-9.658-3.585 1.402 3.206 4.256 6.153 8.136 7.958-2.2 8.468-9.88 14.72-19.032 14.72" fill="#fff"/></g><path d="M37.452 19.515c-2.616 0-5.016.812-7.186 2.266-1.843 1.233-3.37 2.782-4.533 4.67a3.45 3.45 0 0 0-.43 2.726 3.602 3.602 0 0 0 1.607 2.303 3.58 3.58 0 0 0 2.761.427 3.529 3.529 0 0 0 2.263-1.637c.587-.955 1.408-1.724 2.33-2.352.952-.65 2.02-1.112 3.188-1.112 1.2 0 2.252.354 3.163 1.165.82.698 1.28 1.553 1.28 2.642 0 .886-.22 1.72-.956 2.27-.966.722-3.33 1.374-4.5 1.692-2.228.61-4.978 1.512-6.864 2.88-2.707 1.966-3.9 4.73-3.9 8.03 0 3.117 1.212 5.738 3.477 7.866 2.318 2.18 5.1 3.232 8.28 3.232 2.3 0 4.473-.595 6.44-1.808a11.049 11.049 0 0 0 4.311-4.853c.423-.912.47-1.862.12-2.806s-1-1.62-1.915-2.038a3.565 3.565 0 0 0-2.766-.106c-.94.34-1.633 1-2.065 1.907-.34.755-.898 1.328-1.584 1.75a5.015 5.015 0 0 1-2.542.664c-1.21 0-2.273-.357-3.188-1.158-.808-.707-1.246-1.57-1.246-2.648 0-.846.197-1.674.88-2.195.975-.695 3.347-1.347 4.505-1.67 2.2-.614 5.03-1.524 6.896-2.894 2.703-1.982 3.888-4.793 3.888-8.113 0-3.112-1.183-5.744-3.445-7.876-2.312-2.18-5.12-3.222-8.3-3.222m32.24 37.067c5.06 0 9.354-1.863 12.9-5.464 3.572-3.628 5.35-8.016 5.35-13.107 0-5.084-1.778-9.457-5.35-13.075-3.546-3.6-7.854-5.42-12.9-5.42s-9.35 1.828-12.887 5.42c-3.57 3.626-5.36 7.988-5.36 13.076 0 5.096 1.79 9.47 5.36 13.107 3.538 3.605 7.828 5.464 12.887 5.464m26.983 12.086c1.008 0 1.874-.373 2.582-1.1a3.54 3.54 0 0 0 1.053-2.576V23.14a3.57 3.57 0 0 0-1.064-2.58c-.716-.7-1.576-1.044-2.57-1.044-1 0-1.873.352-2.603 1.054a3.51 3.51 0 0 0-1.054 2.57v41.863c0 1 .345 1.87 1.054 2.58.715.716 1.6 1.086 2.602 1.086m26.96-12.086c5.058 0 9.353-1.863 12.898-5.464 3.572-3.628 5.35-8.016 5.35-13.107 0-5.084-1.777-9.457-5.35-13.075-3.545-3.6-7.854-5.42-12.898-5.42s-9.35 1.828-12.89 5.42c-3.568 3.626-5.36 7.988-5.36 13.076 0 5.096 1.79 9.47 5.36 13.107 3.538 3.605 7.828 5.464 12.888 5.464m43.072 12.02c.77 0 1.5-.2 2.176-.568a4.268 4.268 0 0 0 1.694-1.68 4.51 4.51 0 0 0 .607-2.238c0-.785-.214-1.527-.593-2.212a4.23 4.23 0 0 0-1.668-1.67 4.474 4.474 0 0 0-2.216-.595c-.795 0-1.537.205-2.23.597-.706.4-1.272.957-1.666 1.668a4.533 4.533 0 0 0-.592 2.212c0 .79.212 1.54.6 2.23.4.73.97 1.294 1.703 1.69a4.584 4.584 0 0 0 2.194.568m0-12.02a3.487 3.487 0 0 0 2.56-1.077 3.483 3.483 0 0 0 1.096-2.59V23.14a3.45 3.45 0 0 0-1.087-2.57c-.705-.704-1.573-1.054-2.57-1.054s-1.867.348-2.578 1.052-1.09 1.568-1.09 2.572v29.776a3.52 3.52 0 0 0 1.082 2.577 3.51 3.51 0 0 0 2.585 1.09m26.852 0c5.06 0 9.354-1.864 12.9-5.464 3.57-3.628 5.348-8.016 5.348-13.107 0-5.084-1.777-9.457-5.35-13.075-3.544-3.588-7.853-5.42-12.898-5.42s-9.35 1.828-12.887 5.42c-3.57 3.626-5.36 7.988-5.36 13.076 0 5.096 1.79 9.47 5.36 13.107 3.538 3.605 7.828 5.464 12.887 5.464M151.436 28.48a4.52 4.52 0 0 0 2.176-.57 4.269 4.269 0 0 0 1.694-1.678 4.516 4.516 0 0 0 .608-2.24c0-.785-.215-1.527-.594-2.21a4.226 4.226 0 0 0-1.668-1.67 4.471 4.471 0 0 0-2.216-.596 4.45 4.45 0 0 0-2.228.597c-.706.4-1.273.958-1.666 1.67a4.539 4.539 0 0 0-.593 2.212c0 .79.213 1.54.592 2.23a4.14 4.14 0 0 0 1.701 1.688c.68.368 1.42.57 2.194.57m-81.743-1.674c3.046 0 5.612 1.093 7.74 3.27 2.157 2.2 3.218 4.85 3.218 7.935 0 3.1-1.05 5.757-3.218 7.978-2.128 2.178-4.694 3.27-7.74 3.27s-5.612-1.1-7.74-3.27c-2.163-2.22-3.217-4.88-3.217-7.978 0-3.08 1.067-5.727 3.217-7.934 2.127-2.182 4.695-3.27 7.74-3.27m53.943 0c3.044 0 5.6 1.093 7.74 3.27 2.156 2.2 3.217 4.85 3.217 7.935 0 3.1-1.05 5.757-3.218 7.978-2.13 2.178-4.695 3.27-7.74 3.27s-5.613-1.1-7.74-3.27c-2.163-2.22-3.217-4.88-3.217-7.978 0-3.08 1.066-5.727 3.217-7.934 2.127-2.182 4.695-3.27 7.74-3.27m69.924 0c3.045 0 5.612 1.093 7.74 3.27 2.156 2.21 3.217 4.85 3.217 7.935 0 3.1-1.05 5.758-3.217 7.978-2.128 2.177-4.695 3.27-7.74 3.27s-5.614-1.1-7.74-3.27c-2.163-2.22-3.218-4.88-3.218-7.978 0-3.08 1.068-5.727 3.218-7.934 2.126-2.18 4.694-3.27 7.74-3.27" class="G"/><g class="B"><path d="M43.92 142.985c.552 3.97 3.45 8.03 7.46 8.968 2.247-1.7 4.516-3.35 6.848-4.92 3.608-2.43 7.327-4.594 11.17-6.632 6.208-3.295 8.143-5.24 15.555-4.1 11.164 1.733 22.485 2.56 33.78 2.56 14.163 0 28.403-1.296 42.298-4.067 12.542-2.5 25.04-6.26 36.68-11.6.544-4.155-.968-8.6-4.8-10.61-10.83 4.967-22.488 8.434-34.15 10.76-13.146 2.62-26.62 3.836-40.02 3.836s-26.873-1.215-40.018-3.836c-11.676-2.33-23.35-5.8-34.187-10.777-4.744 2.062-5.972 5.7-4.833 10.6 6.313 2.898 12.856 5.317 19.503 7.328l2.557.774-2.303 1.355c-5.362 3.155-10.568 6.596-15.532 10.35" fill="#c18e2e"/><path d="M43.92 142.308c.25 1.795.98 3.6 2.074 5.145 7.25-5.528 14.813-10.97 22.847-15.087l-7.087-1.762-2.303 1.356c-5.363 3.155-10.568 6.595-15.532 10.348m152.6-26.13c-.812-1.485-2-2.744-3.608-3.582-10.83 4.968-22.488 8.435-34.15 10.76-13.144 2.62-26.62 3.836-40.017 3.836s-26.873-1.215-40.018-3.836c-11.677-2.33-23.35-5.8-34.187-10.777-2.007.872-3.386 2.027-4.22 3.44 18 9.433 46.352 15.518 78.252 15.518 31.72 0 59.936-6.017 77.95-15.36" fill="#a96c25"/></g></g><g class="B"><path d="M19.747 1.747C20.912.08 22.036-.5 22.768.472c2.367 3.142 5.77 4.798 9.23 4.97 3.46-.173 6.862-1.83 9.23-4.97.732-.97 1.856-.39 3.02 1.275 5.353 7.66 6.08 15.22 2.717 20.412 6.603 6.706 4.77 15.89 2.395 20.317-1.02 1.902-1.418 1.757-2.545.738L45.6 42.113c-.6 2.296-1.147 3.854-2.173 6.018-1.372 2.894-4.375 3.384-4.543-.028H25.11c-.168 3.412-3.17 2.92-4.543.028a30.04 30.04 0 0 1-2.173-6.018l-1.213 1.102c-1.127 1.02-1.525 1.164-2.545-.738-2.374-4.428-4.208-13.61 2.395-20.317-3.362-5.192-2.636-12.752 2.716-20.412z" class="D"/><path d="M31.997 5.443c3.46-.173 6.862-1.83 9.23-4.97.732-.97 1.856-.39 3.02 1.275 5.353 7.66 6.078 15.22 2.716 20.412 6.603 6.706 4.77 15.89 2.395 20.317-1.02 1.902-1.418 1.758-2.545.738L45.6 42.113a30.07 30.07 0 0 1-2.173 6.018c-1.372 2.894-4.374 3.384-4.543-.027h-6.887V28.218c0-.59.36-1.046-1.782-1.305-5.034-.6-9.748-3.714-11.336-8.14-.322-.893-.487-1.835-.488-2.785a5.69 5.69 0 0 1 2.371-4.672c2.78-2.06 7.032-1.363 8.83 1.667 1.02 1.716 1.166 3.84 1.376 5.778.078.72.137 1.484.262 2.196.06.334.15.8.49.96.184.087.065.058.274.058z" class="E"/><path d="M29.142 58.28c-.156.35-.59 2.63-1.12 2.97-1.917 1.234-7.503-12.49-7.868-14.017 6.716-.63 16.977-.643 23.693-.013-.357 1.5-5.933 15.28-7.873 14.03-.53-.34-.964-2.62-1.12-2.97-.28.84-1.455 6.057-3.002 5.7-1.513-.348-2.347-4.617-2.708-5.7z" class="D"/><path d="M31.997 46.757c4.245-.003 8.49.15 11.85.465-.1.42-.6 1.804-1.334 3.55l-.01.022-.001.002-.01.023-.01.023-.01.023-.01.023-.01.023-.01.023-.02.047-.01.024-.01.023-.01.023-.01.024-.006.015h-.004l-.01.024-.02.047-.01.023-.01.024-.01.024-.01.024-.02.047-.01.024-.01.024-.01.024-.004.01-.007.015-.01.024-.01.024-.02.048-.01.024-.03.073-.01.024-.01.025-.01.024-.01.025h-.001l-.01.023-.02.05-.095.222-.01.02-.002.006-.01.025-.01.025-.044.1-.01.025-.044.1-.01.025c-1.9 4.358-4.637 9.737-5.882 8.935-.53-.34-.964-2.62-1.12-2.97-.27.814-1.38 5.728-2.855 5.72V52.156c0-.745-.088-1.763-1.912-1.718-2.65.065-5.788.417-8.42.765-.236-.54-.656-1.627-.86-2.122 3.316-.414 7.52-.636 11.176-.636h.018z" class="E"/><path d="M31.997 25.45a15.45 15.45 0 0 0 2.174-.156c5.29-.756 11.432-4.624 11.432-10.568a5.69 5.69 0 0 0-2.372-4.672c-2.78-2.06-7.032-1.363-8.83 1.667-1.02 1.715-1.167 3.84-1.376 5.777-.078.72-.137 1.484-.263 2.195-.058.334-.15.8-.49.96-.184.086-.065.058-.274.058s-.1.028-.274-.058c-.34-.16-.433-.627-.49-.96-.126-.71-.184-1.475-.262-2.195-.2-1.937-.357-4.062-1.376-5.777-1.8-3.03-6.052-3.727-8.83-1.667a5.69 5.69 0 0 0-2.371 4.672c0 .953.166 1.888.488 2.785 1.822 5.077 7.99 7.94 13.12 7.94z" fill="#fff"/><path d="M31.997 25.45c.727 0 1.454-.053 2.174-.156 5.29-.756 11.432-4.623 11.432-10.568 0-1.897-.853-3.546-2.372-4.672-2.78-2.06-7.03-1.363-8.83 1.667-1.02 1.716-1.167 3.84-1.376 5.778-.078.72-.137 1.484-.262 2.196-.06.334-.15.8-.49.96-.184.087-.065.058-.274.058z" fill="#ddf4f9"/><path d="M38.205 12.444c1.437 0 2.602 1.165 2.602 2.602s-1.165 2.602-2.602 2.602-2.602-1.165-2.602-2.602 1.165-2.602 2.602-2.602zm-12.417 0c1.437 0 2.602 1.165 2.602 2.602s-1.165 2.602-2.602 2.602-2.602-1.165-2.602-2.602 1.165-2.602 2.602-2.602z" class="G"/><path d="M26.62 13.564c.27 0 .518.144.653.377s.135.52 0 .754-.384.377-.653.377c-.416 0-.754-.338-.754-.754s.338-.754.754-.754zm12.457 0c.27 0 .518.144.653.377s.135.52 0 .754-.384.377-.653.377c-.416 0-.754-.338-.754-.754s.338-.754.754-.754zm-7.078 14.56c-3.827 0-6.94 3.05-7.043 6.854l-.323-.01c-2.78 0-5.034 2.254-5.034 5.033s2.254 5.034 5.034 5.034h14.733c2.78 0 5.033-2.254 5.033-5.034s-2.254-5.033-5.033-5.033c-1.316 0-2.48.388-3.46 1.285.503-1.15 1.525-2.205 2.916-2.852a7.05 7.05 0 0 0-6.821-5.276z" fill="#fff"/><path d="M5.25 43.35c.198-1.423 1.236-2.878 2.673-3.214l2.455 1.764c1.293.87 2.626 1.646 4.003 2.377 2.225 1.18 2.92 1.877 5.575 1.466 4-.62 8.058-.917 12.107-.917 5.076 0 10.18.464 15.16 1.457 4.495.896 8.974 2.243 13.146 4.157.195 1.49-.347 3.082-1.724 3.802-3.88-1.78-8.06-3.023-12.24-3.856-4.71-.94-9.54-1.375-14.342-1.375s-9.63.435-14.342 1.375c-4.185.835-8.368 2.08-12.252 3.863-1.7-.74-2.14-2.043-1.732-3.8 2.262-1.04 4.607-1.906 7-2.627l.916-.277-.825-.486c-1.922-1.13-3.787-2.364-5.566-3.71z" fill="#c18e2e"/><path d="M5.25 43.593c.1-.643.35-1.294.743-1.844 2.6 1.98 5.31 3.932 8.188 5.407l-2.54.632-.825-.486c-1.922-1.13-3.787-2.364-5.566-3.71zm54.686 9.365c-.29.532-.72.983-1.293 1.284-3.88-1.78-8.06-3.023-12.24-3.857-4.71-.94-9.54-1.375-14.342-1.375s-9.63.435-14.342 1.375c-4.185.835-8.37 2.08-12.252 3.862-.72-.313-1.214-.727-1.513-1.233 6.45-3.38 16.612-5.56 28.044-5.56 11.368 0 21.48 2.156 27.936 5.505z" fill="#a96c25"/></g></svg>