<svg xmlns="http://www.w3.org/2000/svg" width="64" height="64"><g transform="matrix(.217406 0 0 .217406 3.845899 -.1862)" fill-rule="nonzero"><path d="M39.804 116.54s21.156-18.392 83.77-18.392c57.44 0 73.584 13.013 89.98 18.392l-85.536 41.74z" fill="#c9781f"/><path d="M30.873 171.897c.388 7.978 8.368 4.287 11.983 1.793 3.43-2.368 4.435-.4 4.736-5.073.197-3.07.552-6.143.377-9.227-5.19-.47-10.833.764-15.087 3.85-2.19 1.6-6.3 6.665-2 8.657" fill="#f6d2a2"/><path d="M30.873 171.897c1.162-.43 2.393-.738 3.18-1.787" fill="#c6b198"/><path d="M49.317 76.853c-30.583-8.6-7.842-47.443 16.717-31.462zm135.88-34.378c24.208-16.98 46.083 21.33 17.95 30.97z" fill="#37abc8"/><path d="M190.405 270.087c6.15 3.8 17.388 15.288 8.164 20.86-8.863 8.104-13.823-8.895-21.602-11.25 3.35-4.543 7.596-8.686 13.438-9.608zM80.552 283.07c-7.217 1.115-11.28 7.618-17.296 10.92-5.67 3.376-7.838-1.08-8.35-1.986-.9-.405-.814.377-2.186-1.002-5.256-8.284 5.476-14.34 11.065-18.454 7.784-1.572 12.662 5.167 16.766 10.522z" fill="#f6d2a2"/><path d="M50.594 66.12C46.56 64 43.6 61.095 46.067 56.434c2.285-4.314 6.53-3.846 10.565-1.715zm146.18-4.05c4.035-2.13 6.995-5.026 4.527-9.687-2.285-4.315-6.53-3.846-10.565-1.715z" fill="#077e91"/><path d="M224.547 170.884c-.388 7.978-8.368 4.287-11.983 1.793-3.43-2.368-4.435-.4-4.736-5.073-.197-3.07-.552-6.143-.377-9.227 5.19-.47 10.833.764 15.087 3.85 2.19 1.6 6.3 6.665 2 8.657" fill="#f6d2a2"/><path d="M224.547 170.884c-1.162-.43-2.393-.738-3.18-1.787" fill="#c6b198"/><path d="M124.646 26.337c30.618 0 59.32 4.373 74.282 33.75 13.43 32.927 8.654 68.434 10.702 103.233 1.76 29.88 5.66 64.402-8.222 92.093-14.602 29.133-51.09 36.46-81.154 35.387-23.613-.844-52.138-8.537-65.465-30.082-15.635-25.275-8.233-62.86-7.098-90.983 1.345-33.315-9.036-66.73 1.923-99.33 11.37-33.816 42.03-41.46 75.03-44.066" fill="#37abc8"/><path d="M130.05 67.384c5.497 31.913 57.732 23.475 50.23-8.7-6.727-28.862-52.056-20.873-50.23 8.7m-62.42 5.16c7.125 27.783 51.666 20.67 49.988-7.2-2-33.378-56.8-26.937-49.988 7.2m72.56 32.04c.024 4.265 1 8.433.158 13.22-1.06 2.002-3.14 2.214-4.935 3.022a7.26 7.26 0 0 1-5.561-4.332c-.637-5.038.237-9.916.398-14.956z" fill="#fff"/><ellipse cx="79.916" cy="68.015" rx="7.521" ry="8.136" fill="#000"/><ellipse cx="83.337" cy="69.85" rx="1.773" ry="2.068" fill="#fff"/><ellipse cx="142.935" cy="65.988" rx="7.396" ry="8.136" fill="#000"/><ellipse cx="146.3" cy="67.824" rx="1.744" ry="2.068" fill="#fff"/><path d="M118.697 105.226c-3.282 7.943 1.83 23.825 10.734 12.1-.637-5.038.237-9.916.398-14.956z" fill="#fff"/><path d="M118.175 89.93c-6.116.52-11.116 7.783-7.936 13.53 4.212 7.6 13.612-.673 19.466.103 6.738.138 12.26 7.115 17.67 1.26 6.02-6.51-2.592-12.852-9.32-15.687z" fill="#f6d2a2"/><path d="M39.804 116.54s1.936 20.948 1.804 29.978 8.53 3.328 8.98 17.53-5.248 11.507-8.25 18.458-5.042 39.5-5.042 39.5 3.08 6.082 12.7 11.558 25.1 8.552 38.485 7.946 22.963-3.472 25.356-5.057 6.362-6.597 7.856-10.474 4.613-35.808 4.396-54.08-3.24-35.13-3.24-35.13z" fill="#ef9325"/><path d="M124.655 205.505c-39.447 4.398-85.218-7.76-85.218-7.76s.672-12.33 3.633-16.67c41.027 12.694 82.417 8.67 82.417 8.67.614 5.756.18 10.332-.83 15.76zm-4.955 24.302c-39.447 4.398-82.394-8.248-82.394-8.248s-.138-11.843 1.43-17.044c41.027 12.694 84.847 9.53 84.847 9.53-.37 6.25-1.25 12.4-3.883 15.76z" fill="#e5e5e5"/><path d="M213.553 116.54l-.133 29.978c.134 9.03-5.25 3.328-5.707 17.53s5.314 11.507 8.353 18.458 5.105 39.5 5.105 39.5-3.12 6.082-12.86 11.558-25.406 8.552-38.97 7.946-23.25-3.472-25.674-5.057-6.442-6.597-7.954-10.474-4.672-35.808-4.45-54.08 3.28-35.13 3.28-35.13z" fill="#ef9325"/><path d="M132.715 205.505c39.943 4.398 86.3-7.76 86.3-7.76s-.68-12.33-3.678-16.67c-41.542 12.694-83.452 8.67-83.452 8.67-.622 5.756-.184 10.332.842 15.76zm5.027 24.302c39.943 4.398 83.43-8.248 83.43-8.248s.14-11.843-1.447-17.044c-41.542 12.694-85.913 9.53-85.913 9.53.374 6.25 1.265 12.4 3.932 15.76z" fill="#e5e5e5"/><path d="M229.487 154.96c-1.24 2.34-3.698 3.468-5.487 2.52l-1.434-.758c-1.79-.947-2.235-3.61-.993-5.95l27.952-52.688c1.24-2.34 3.698-3.468 5.487-2.52l1.434.758c1.79.947 2.235 3.61.993 5.95z" fill="#d2e261"/><path d="M216.286 179.843c-.723 1.363-2.76 1.7-4.55.753l-1.434-.758c-1.79-.947-2.655-2.82-1.93-4.182l13.114-24.72c.723-1.363 2.76-1.7 4.55-.753l1.434.758c1.79.947 2.655 2.82 1.93 4.182z" fill="#000"/><path d="M227.946 150.042l-1.434-.758c-1.79-.947-3.62-.998-4.09-.115l-.838 1.58c.47-.884 2.3-.832 4.09.115l1.434.758c1.79.947 2.86 2.43 2.392 3.314l.838-1.58c.47-.883-.603-2.367-2.392-3.314z" fill="#9b9b9b"/><ellipse transform="rotate(20.414 216.137 164.336)" cx="216.137" cy="164.336" rx="6.153" ry="4.754" fill="#f6d2a2"/><path d="M26.943 155.81c1.132 2.394 3.535 3.634 5.366 2.77l1.467-.692c1.83-.864 2.398-3.505 1.266-5.898L9.538 98.078c-1.132-2.394-3.535-3.634-5.366-2.77L2.706 96c-1.83.864-2.398 3.505-1.266 5.898z" fill="#d2e261"/><path d="M38.988 181.272c.66 1.394 2.68 1.824 4.5.96l1.467-.692c1.83-.864 2.78-2.695 2.12-4.09L35.12 152.158c-.66-1.394-2.68-1.824-4.5-.96l-1.467.692c-1.83.864-2.78 2.695-2.12 4.09z" fill="#000"/><path d="M28.708 150.968l1.467-.692c1.83-.864 3.662-.832 4.1.072l.765 1.617c-.428-.904-2.26-.936-4.1-.073l-1.467.692c-1.83.864-2.97 2.297-2.542 3.2l-.765-1.617c-.427-.903.71-2.337 2.542-3.2z" fill="#9b9b9b"/><ellipse transform="rotate(159.586 41.089 165.024)" cx="41.089" cy="165.024" rx="6.153" ry="4.754" fill="#f6d2a2"/><path d="M52.905 88.827c-1.216 2.208-4.084 2.964-6.407 1.688l-2.672-1.467c-2.323-1.276-3.22-4.1-2.004-6.308l27.804-50.496c1.216-2.208 4.084-2.964 6.407-1.688l2.672 1.467c2.323 1.276 2.922 3.662 2.004 6.308-9.74 28.064-27.804 50.496-27.804 50.496z" fill="#960000"/><path d="M60.26 59.985c8.455-15.356 14-28.563 12.687-30.06l.03-.056c-.036-.02-.075-.033-.11-.053l-.014-.007c-12.993-7.03-30.473-.068-39.108 15.616s-5.16 34.154 7.746 41.344l-.004.008c.054.02.085.047.12.066l.03-.056c1.975.314 10.166-11.446 18.62-26.8z" fill="#595959"/><path d="M199.593 88.933c1.15 2.242 3.997 3.08 6.356 1.872l2.713-1.4c2.36-1.208 3.337-4.005 2.186-6.247l-26.333-51.276c-1.15-2.242-3.997-3.08-6.356-1.872l-2.713 1.4c-2.36 1.208-3.027 3.577-2.186 6.247 8.925 28.333 26.333 51.276 26.333 51.276z" fill="#960000"/><path d="M193.074 59.9c-8.008-15.593-13.18-28.955-11.813-30.414l-.03-.057c.037-.02.076-.03.112-.05l.015-.006c13.2-6.653 30.462.8 38.64 16.737s4.17 34.288-8.937 41.104l.004.008c-.054.02-.086.044-.123.063l-.03-.057c-1.983.256-9.832-11.734-17.84-27.327z" fill="#595959"/><path d="M219.147 53.314s-9.73-24.334-21.012-37.2-121.675-17.253-139.803 0-24.963 37.2-24.963 37.2v-5.4s8.385-23.69 24.963-37.2 125.518-12.8 139.572 0 21.243 37.2 21.243 37.2z" fill="#353535"/><g fill="#960000"><ellipse transform="matrix(-.889823 .456306 -.456306 -.889823 411.322893 .104922)" cx="192.49" cy="46.096" rx="3.81" ry="9.294"/><ellipse transform="matrix(.876281 .4818 -.4818 .876281 49.435695 2.495276)" cx="8.209" cy="45.461" rx="3.81" ry="9.294"/></g><g fill="#fff"><path d="M177.55 48.18H74.586c-18.487 0-18.423 49.06-1.066 51.887l35.89-2.305c4.34 0 13.004-16.784 14.63-18.103s6.98-1.48 9.087 0S140.03 96.07 144.37 96.07l35.89 3.996c16.765-7.704 12.538-51.887-2.7-51.887z" opacity=".6"/><path d="M101.924 58.324c-11.34-.253-29.084-.15-38.777-.07-1.625 5.32-3.437 12.058-2.538 18.6l41.547.043c8.194 0 15.083 1.544 21.5 3.217.158-.2.29-.35.394-.434 1.626-1.32 6.98-1.48 9.087 0 .545.383 1.274 1.674 2.124 3.367 3.27.69 6.548 1.165 9.952 1.207l44.992.04c1.78-5.944.468-12.316.07-18.304-13.654 0-35.354-.308-45.758-.308-14.66-.001-27.458-7.02-42.582-7.357z" opacity=".5"/></g><path d="M117.405 89.612c-.453-10.582 19.75-11.905 22.136-3.047 2.38 8.837-21.14 10.9-22.136 3.047-.794-6.262 0 0 0 0z" fill="#000"/></g></svg>