<svg xmlns="http://www.w3.org/2000/svg" width="146" height="146" xml:space="preserve" viewBox="-20 -20 146 146">
  <path fill="none" d="M105.6 54.9c0-.7.1-1.4.1-2s0-1.4-.1-2v4z" class="st1"/>
  <path fill="#009BDB" d="M90.4 87.1c-3.3 0-4.9 1.2-6.7 2.7-2 1.6-4.2 3.4-8.6 3.4-4.3 0-6.6-1.8-8.6-3.4-1.8-1.4-3.4-2.7-6.7-2.7-3.3 0-4.9 1.2-6.7 2.7-2 1.6-4.2 3.4-8.6 3.4-4.3 0-6.6-1.8-8.6-3.4-1.8-1.4-3.4-2.7-6.7-2.7-3.3 0-4.9 1.2-6.7 2.7-1.3 1-2.7 2.2-4.8 2.8 8.3 7.3 18.9 12 30.5 13 .3 0 .6.1 1 .1 1.1.1 2.3.1 3.4.1 1.2 0 2.3-.1 3.4-.1.3 0 .6 0 1-.1 14.2-1.2 26.8-8 35.6-18.2-.5-.2-1.3-.3-2.2-.3zM14.2 47.6c3.6 0 5.3-1.4 7.2-2.9 2-1.6 4-3.2 8-3.2s6.1 1.6 8 3.2c1.9 1.5 3.6 2.9 7.2 2.9s5.3-1.4 7.2-2.9c2-1.6 4-3.2 8-3.2s6.1 1.6 8 3.2c1.9 1.5 3.6 2.9 7.2 2.9s5.3-1.4 7.2-2.9c2-1.6 4-3.2 8-3.2s6.1 1.6 8 3.2c1.8 1.5 3.6 2.8 7 2.9-.5-4.8-1.6-9.5-3.3-13.8-1.8-.6-3.1-1.6-4.4-2.6-1.9-1.5-3.7-2.9-7.4-2.9s-5.5 1.4-7.4 2.9c-1.9 1.5-3.9 3.1-7.9 3.1s-5.9-1.6-7.9-3.1c-1.9-1.5-3.7-2.9-7.4-2.9s-5.5 1.4-7.4 2.9c-1.9 1.5-3.9 3.1-7.9 3.1s-5.9-1.6-7.9-3.1c-1.9-1.5-3.7-2.9-7.4-2.9s-5.5 1.4-7.4 2.9c-1.9 1.5-3.9 3.1-7.9 3.1s-5.9-1.6-7.9-3.1c-.4-.3-.9-.7-1.3-1-1.7 3.6-3.1 7.5-3.9 11.6 2.7.5 4.3 1.7 5.9 3 2.5 1.4 4.2 2.8 7.8 2.8z" class="st2"/>
  <path fill="#009BDB" d="M14.2 33.5c3.7 0 5.5-1.4 7.4-2.9 1.9-1.5 3.9-3.1 7.9-3.1s5.9 1.6 7.9 3.1c1.9 1.5 3.7 2.9 7.4 2.9s5.5-1.4 7.4-2.9c1.9-1.5 3.9-3.1 7.9-3.1s5.9 1.6 7.9 3.1c1.9 1.5 3.7 2.9 7.4 2.9s5.5-1.4 7.4-2.9c1.9-1.5 3.9-3.1 7.9-3.1s5.9 1.6 7.9 3.1c1.1.8 2.1 1.7 3.4 2.2C94.1 13.6 75.1 0 53.1 0 32.3 0 14.4 12 5.7 29.5c.5.4 1 .7 1.4 1.1 1.6 1.4 3.4 2.9 7.1 2.9zm76.2 38.9c-3.4 0-5 1.3-6.8 2.8-1.9 1.5-4.1 3.3-8.4 3.3-4.2 0-6.4-1.7-8.4-3.3-1.9-1.5-3.5-2.8-6.8-2.8-3.4 0-5 1.3-6.8 2.8-1.9 1.5-4.1 3.3-8.4 3.3-4.2 0-6.4-1.7-8.4-3.3-1.9-1.5-3.5-2.8-6.8-2.8-3.4 0-5 1.3-6.8 2.8-1.9 1.5-4.1 3.3-8.4 3.3-4.2 0-6.4-1.7-8.4-3.3-.5-.4-1-.8-1.5-1.1 2.6 6 6.3 11.4 10.9 16 2.6-.2 4-1.4 5.6-2.6 2-1.6 4.2-3.4 8.6-3.4s6.6 1.8 8.6 3.4c1.8 1.4 3.4 2.7 6.7 2.7 3.3 0 4.9-1.2 6.7-2.7 2-1.6 4.2-3.4 8.6-3.4 4.3 0 6.6 1.8 8.6 3.4 1.8 1.4 3.4 2.7 6.7 2.7 3.3 0 4.9-1.2 6.7-2.7 2-1.6 4.2-3.4 8.6-3.4 1.8 0 3.3.3 4.5.8 1.9-2.5 3.5-5.1 5-7.9-1-.6-1.8-1.2-2.6-1.8-2.3-1.6-4-2.8-7.3-2.8zM105.5 49c-4 0-6-1.6-8-3.2-1.9-1.5-3.6-2.9-7.2-2.9s-5.3 1.4-7.2 2.9c-2 1.6-4 3.2-8 3.2s-6.1-1.6-8-3.2c-1.9-1.5-3.6-2.9-7.2-2.9s-5.3 1.4-7.2 2.9c-2 1.6-4 3.2-8 3.2s-6.1-1.6-8-3.2c-1.9-1.5-3.6-2.9-7.2-2.9s-5.3 1.4-7.2 2.9c-2 1.6-4 3.2-8 3.2s-6.1-1.6-8-3.2c-1.5-1.2-3-2.3-5.3-2.7-.5 2.5-.8 5.1-.9 7.7 0 .7-.1 1.4-.1 2 0 .7 0 1.4.1 2v.9c3.5.3 5.4 1.8 7.2 3.2 1.8 1.4 3.5 2.8 7 2.8s5.2-1.4 7-2.8c1.9-1.5 4.1-3.2 8.2-3.2s6.3 1.7 8.2 3.2c1.8 1.4 3.5 2.8 7 2.8s5.2-1.4 7-2.8c1.9-1.5 4.1-3.2 8.2-3.2s6.3 1.7 8.2 3.2c1.8 1.4 3.5 2.8 7 2.8s5.2-1.4 7-2.8c1.9-1.5 4.1-3.2 8.2-3.2s6.3 1.7 8.2 3.2c1.7 1.3 3.3 2.6 6.3 2.8.3-1.6.5-3.2.6-4.9 0-.6.1-1.3.1-1.9v-4.1c.1-.6 0-1.8 0-1.8z" class="st2"/>
  <path fill="#009BDB" d="M90.4 57.7c-3.5 0-5.2 1.4-7 2.8-1.9 1.5-4.1 3.2-8.2 3.2S68.9 62 67 60.5c-1.8-1.4-3.5-2.8-7-2.8s-5.2 1.4-7 2.8c-1.9 1.5-4.1 3.2-8.2 3.2s-6.3-1.7-8.2-3.2c-1.8-1.4-3.5-2.8-7-2.8s-5.2 1.4-7 2.8c-1.9 1.5-4.1 3.2-8.2 3.2S8.1 62 6.2 60.5C4.6 59.2 3.1 58 .4 57.7c.4 4.5 1.4 8.7 2.8 12.8 1.9.6 3.2 1.7 4.4 2.7 1.9 1.5 3.5 2.8 6.8 2.8 3.4 0 5-1.3 6.8-2.8 1.9-1.5 4.1-3.3 8.4-3.3 4.2 0 6.4 1.7 8.4 3.3 1.9 1.5 3.5 2.8 6.8 2.8 3.4 0 5-1.3 6.8-2.8 1.9-1.5 4.1-3.3 8.4-3.3 4.2 0 6.4 1.7 8.4 3.3 1.9 1.5 3.5 2.8 6.8 2.8 3.4 0 5-1.3 6.8-2.8 1.9-1.5 4.1-3.3 8.4-3.3 4.2 0 6.4 1.7 8.4 3.3.7.6 1.4 1.1 2.2 1.6 1.6-3.5 2.8-7.2 3.6-11.1-3.5-.3-5.4-1.8-7.2-3.2-1.8-1.5-3.6-2.8-7-2.8z" class="st2"/>
  <path fill="#FFF" d="M81.8 87.4c-1.8 1.4-3.4 2.7-6.7 2.7-3.3 0-4.9-1.2-6.7-2.7-2-1.6-4.2-3.4-8.6-3.4-4.3 0-6.6 1.8-8.6 3.4-1.8 1.4-3.4 2.7-6.7 2.7-3.3 0-4.9-1.2-6.7-2.7-2-1.6-4.2-3.4-8.6-3.4s-6.6 1.8-8.6 3.4c-1.6 1.3-3 2.4-5.6 2.6.9.9 1.8 1.7 2.7 2.5 2.1-.6 3.5-1.8 4.8-2.8 1.8-1.4 3.4-2.7 6.7-2.7 3.3 0 4.9 1.2 6.7 2.7 2 1.6 4.2 3.4 8.6 3.4 4.3 0 6.6-1.8 8.6-3.4 1.8-1.4 3.4-2.7 6.7-2.7 3.3 0 4.9 1.2 6.7 2.7 2 1.6 4.2 3.4 8.6 3.4 4.3 0 6.6-1.8 8.6-3.4 1.8-1.4 3.4-2.7 6.7-2.7.9 0 1.7.1 2.4.3.7-.8 1.4-1.7 2-2.5-1.2-.5-2.7-.8-4.5-.8-4.3 0-6.5 1.8-8.5 3.4zm8.6-17.5c-4.2 0-6.4 1.7-8.4 3.3-1.9 1.5-3.5 2.8-6.8 2.8-3.4 0-5-1.3-6.8-2.8-1.9-1.5-4.1-3.3-8.4-3.3-4.2 0-6.4 1.7-8.4 3.3-1.9 1.5-3.5 2.8-6.8 2.8-3.4 0-5-1.3-6.8-2.8-1.9-1.5-4.1-3.3-8.4-3.3-4.2 0-6.4 1.7-8.4 3.3-1.9 1.5-3.5 2.8-6.8 2.8-3.4 0-5-1.3-6.8-2.8-1.2-1-2.5-2-4.4-2.7.4 1.2.9 2.3 1.4 3.5.5.3 1 .7 1.5 1.1 1.9 1.5 4.1 3.3 8.4 3.3 4.2 0 6.4-1.7 8.4-3.3 1.9-1.5 3.5-2.8 6.8-2.8 3.4 0 5 1.3 6.8 2.8 1.9 1.5 4.1 3.3 8.4 3.3 4.2 0 6.4-1.7 8.4-3.3 1.9-1.5 3.5-2.8 6.8-2.8 3.4 0 5 1.3 6.8 2.8 1.9 1.5 4.1 3.3 8.4 3.3 4.2 0 6.4-1.7 8.4-3.3 1.9-1.5 3.5-2.8 6.8-2.8 3.4 0 5 1.3 6.8 2.8.8.6 1.6 1.3 2.6 1.8.4-.7.7-1.5 1.1-2.2-.8-.4-1.4-1-2.2-1.6-2-1.5-4.2-3.2-8.4-3.2zm0-14.2c-4.1 0-6.3 1.7-8.2 3.2-1.8 1.4-3.5 2.8-7 2.8s-5.2-1.4-7-2.8c-1.9-1.5-4.1-3.2-8.2-3.2s-6.3 1.7-8.2 3.2c-1.8 1.4-3.5 2.8-7 2.8s-5.2-1.4-7-2.8c-1.9-1.5-4.1-3.2-8.2-3.2s-6.3 1.7-8.2 3.2c-1.8 1.4-3.5 2.8-7 2.8s-5.2-1.4-7-2.8C5.7 57.5 3.7 56 .2 55.7c0 .6.1 1.3.1 1.9 2.7.3 4.2 1.5 5.8 2.8 1.9 1.5 4.1 3.2 8.2 3.2s6.3-1.7 8.2-3.2c1.8-1.4 3.5-2.8 7-2.8s5.2 1.4 7 2.8c1.9 1.5 4.1 3.2 8.2 3.2s6.3-1.7 8.2-3.2c1.8-1.4 3.5-2.8 7-2.8s5.2 1.4 7 2.8c1.9 1.5 4.1 3.2 8.2 3.2s6.3-1.7 8.2-3.2c1.8-1.4 3.5-2.8 7-2.8s5.2 1.4 7 2.8c1.7 1.4 3.7 2.9 7.2 3.2.1-.6.2-1.3.3-1.9-3-.2-4.6-1.4-6.3-2.8-1.8-1.5-4-3.2-8.1-3.2zM14.2 49c4 0 6.1-1.6 8-3.2 1.9-1.5 3.6-2.9 7.2-2.9s5.3 1.4 7.2 2.9c2 1.6 4 3.2 8 3.2s6.1-1.6 8-3.2c1.9-1.5 3.6-2.9 7.2-2.9s5.3 1.4 7.2 2.9c2 1.6 4 3.2 8 3.2s6.1-1.6 8-3.2c1.9-1.5 3.6-2.9 7.2-2.9s5.3 1.4 7.2 2.9c1.9 1.5 4 3.1 8 3.2v-.1c0-.4-.1-.8-.1-1.3-3.4-.1-5.2-1.4-7-2.9-2-1.6-4-3.2-8-3.2s-6.1 1.6-8 3.2c-1.9 1.5-3.6 2.9-7.2 2.9s-5.3-1.4-7.2-2.9c-2-1.6-4-3.2-8-3.2s-6.1 1.6-8 3.2c-1.9 1.5-3.6 2.9-7.2 2.9s-5.3-1.4-7.2-2.9c-2-1.6-4-3.2-8-3.2s-6.1 1.6-8 3.2c-1.9 1.5-3.6 2.9-7.2 2.9S9 46.2 7.1 44.7c-1.6-1.3-3.2-2.5-5.9-3-.1.4-.2.9-.3 1.3 2.4.4 3.8 1.5 5.3 2.7 1.9 1.7 3.9 3.3 8 3.3zm0-14.7c4 0 5.9-1.6 7.9-3.1 1.9-1.5 3.7-2.9 7.4-2.9s5.5 1.4 7.4 2.9c1.9 1.5 3.9 3.1 7.9 3.1s5.9-1.6 7.9-3.1c1.9-1.5 3.7-2.9 7.4-2.9s5.5 1.4 7.4 2.9c1.9 1.5 3.9 3.1 7.9 3.1s5.9-1.6 7.9-3.1c1.9-1.5 3.7-2.9 7.4-2.9s5.5 1.4 7.4 2.9c1.3 1 2.5 2 4.4 2.6-.1-.3-.3-.7-.4-1-1.3-.6-2.4-1.4-3.4-2.2-1.9-1.5-3.9-3.1-7.9-3.1s-5.9 1.6-7.9 3.1c-1.9 1.5-3.7 2.9-7.4 2.9s-5.5-1.4-7.4-2.9c-1.9-1.5-3.9-3.1-7.9-3.1s-5.9 1.6-7.9 3.1c-1.9 1.5-3.7 2.9-7.4 2.9s-5.5-1.4-7.4-2.9c-2.1-1.6-4.1-3.2-8.1-3.2s-5.9 1.6-7.9 3.1c-1.9 1.5-3.7 2.9-7.4 2.9S8.6 32 6.7 30.5c-.3-.3-.8-.7-1.3-1.1-.1.2-.3.5-.4.8.4.3.9.6 1.3 1 1.9 1.5 3.9 3.1 7.9 3.1z" class="st0"/>
</svg>
