<svg xmlns="http://www.w3.org/2000/svg" height="800" width="1200" viewBox="-45.0006 -75 390.0052 450"><g fill="#88171A"><path d="M299.745 145.56S306.685 0 146.705 0C5.225 0 .805 139.63.805 139.63S-20.005 300 149.965 300c163.02 0 149.78-154.44 149.78-154.44zm-197.8-50.863c30.017-18.364 68.366-7.14 82.735 20.476 2.724 5.234 3.07 13.291 1.345 18.782-5.955 18.956-20.014 29.587-39.312 34.103 5.69-4.87 10.218-10.394 11.659-18.025a26.402 26.402 0 00-4.543-20.956 26.76 26.76 0 00-30.81-9.39c-11.882 4.512-18.39 15.355-17.217 28.684 1.09 12.38 10.484 20.405 28.061 23.453-2.627 1.39-4.65 2.414-6.63 3.517a63.918 63.918 0 00-20.543 17.868c-1.784 2.408-3.01 2.602-5.727.941-35.338-21.61-37.61-75.844.982-99.453zm-26.449 133.53c-5.677 1.441-11.178 3.574-16.98 5.478 2.838-19.152 25.264-36.789 44.23-34.777a48.881 48.881 0 00-9.243 25.893c-6.302 1.161-12.24 1.942-18.007 3.405zm120.79-186.98c5.61.206 11.23.12 16.844.254 1.402.092 2.794.286 4.168.58a40.607 40.607 0 01-4.236 5.434c-2.007 1.87-4.275 3.698-7.166.856-.696-.684-2.339-.527-3.549-.543-5.582-.073-11.172-.252-16.746-.041a104.04 104.04 0 00-14.425 1.473c-.894.16-2.23 3.131-1.819 4.227.97 2.585 2.383 5.436 4.478 7.09 7.74 6.11 15.972 11.595 23.748 17.663 7.556 5.897 14.589 12.358 18.875 21.253 5.584 11.59 5.747 23.743 3.339 35.95-4.02 20.378-14.333 37.261-31.032 49.524-6.729 4.941-15.06 7.746-22.767 11.295-6.778 3.123-13.755 5.812-20.55 8.901-12.248 5.57-19.132 18.865-17.107 32.688 1.858 12.685 12.987 23.271 25.735 25.456 15.292 2.622 31.07-7.316 34.812-22.86 4.206-17.478-5.29-33.083-23.065-37.813-.783-.208-1.569-.405-3.201-.827 4.754-2.124 8.861-3.638 12.653-5.724a347.934 347.934 0 0019.48-11.562c1.875-1.2 2.887-1.2 4.486.182 12.225 10.57 19.518 23.718 21.563 39.84 3.384 26.683-9.247 51.197-33.072 63.761-36.86 19.44-81.965-2.686-90.106-43.552-6.974-35.003 17.73-66.754 47.462-72.884 12.787-2.636 24.48-7.96 33.57-17.807 5.865-6.354 8.708-11.806 9.677-14.266a39.565 39.565 0 002.721-14.469 33.867 33.867 0 00-2.965-12.398c-3.104-7.075-14.995-18.33-17.94-20.704l-28-21.92c-.987-.813-2.099-.754-4.507-.591-2.861.194-10.175.599-13.331-.228 2.553-1.933 9.513-4.746 12.502-7.007-9.074-6.13-19.43-3.916-28.941-5.747 2.199-4.095 13.08-10.39 19.27-11.09a91.533 91.533 0 00-1.688-10.282c-.378-1.391-1.931-2.74-3.286-3.535-3.286-1.927-6.77-3.517-10.55-5.433a21.936 21.936 0 0111.333-3.505A42.316 42.316 0 01134.3 23.99c6.742 1.54 12.124.535 17.488-4.048-4.222-1.7-8.444-3.253-12.538-5.09a123.04 123.04 0 01-11.78-6.159c10.623 1.476 20.897 5.459 31.758 4.004l.277-1.481-25.229-5.873c15.04-1.376 29.042-1.604 42.301 4.855 3.731 1.817 7.635 3.321 11.211 5.397 1.744 1.012 2.919 3.008 4.35 4.56 1.136 1.232 2.05 2.883 3.446 3.626 5.3 2.818 11.134 2.929 17.078 2.787l.13-1.993c5.983 1.87 12.715 8.768 12.704 13.806-9.69 0-19.374-.037-29.056.054-1.034.01-2.062.766-3.093 1.175.98.571 1.943 1.6 2.942 1.637z"/><path d="M183.785 26.906a1.48 1.48 0 00-.189 2.369 2.233 2.233 0 003.072.821c.933-.47 1.848-.97 2.975-1.566-.908-.775-1.636-1.415-2.385-2.032-1.318-1.086-2.411-.404-3.473.408z"/></g></svg>